<svg width="325" height="77" viewBox="0 0 325 77" fill="none" xmlns="http://www.w3.org/2000/svg">
<path d="M8 0C11.7277 0 14.86 2.54954 15.748 6H312V70.1719L321.313 60.8574C322.095 60.0765 323.362 60.0764 324.143 60.8574C324.924 61.6384 324.924 62.9055 324.143 63.6865L311.414 76.4141C310.633 77.1951 309.367 77.1951 308.586 76.4141L295.857 63.6865C295.076 62.9055 295.076 61.6384 295.857 60.8574C296.638 60.0764 297.905 60.0765 298.687 60.8574L308 70.1719V10H15.748C14.86 13.4505 11.7277 16 8 16C4.27231 16 1.14003 13.4505 0.251953 10H0V6H0.251953C1.14003 2.54954 4.27231 0 8 0Z" fill="url(#paint0_linear_13_1166)"/>
<defs>
<linearGradient id="paint0_linear_13_1166" x1="2.41941e-06" y1="38.4999" x2="324.728" y2="38.4999" gradientUnits="userSpaceOnUse">
<stop offset="0.182692" stop-color="#F6D3D1"/>
<stop offset="1" stop-color="#C4E3FF"/>
</linearGradient>
</defs>
</svg>
