<svg width="14" height="14" viewBox="0 0 14 14" fill="none" xmlns="http://www.w3.org/2000/svg">
<path d="M6.16334 13L6.16334 13.8367L7.83666 13.8367L7.83666 13L7 13L6.16334 13ZM7.59161 0.408392C7.26487 0.0816555 6.73513 0.0816555 6.40839 0.408392L1.08392 5.73286C0.757184 6.0596 0.757184 6.58934 1.08392 6.91608C1.41066 7.24282 1.9404 7.24282 2.26714 6.91608L7 2.18322L11.7329 6.91608C12.0596 7.24282 12.5893 7.24282 12.9161 6.91608C13.2428 6.58934 13.2428 6.0596 12.9161 5.73286L7.59161 0.408392ZM7 13L7.83666 13L7.83666 1L7 1L6.16334 1L6.16334 13L7 13Z" fill="#1A112F"/>
</svg>
