<svg width="9" height="10" viewBox="0 0 9 10" fill="none" xmlns="http://www.w3.org/2000/svg">
<path d="M3.94482 1.05511C3.94482 0.778972 4.16868 0.555115 4.44482 0.555115C4.72097 0.555115 4.94482 0.778972 4.94482 1.05511L4.44482 1.05511L3.94482 1.05511ZM4.79838 8.90867C4.60312 9.10393 4.28653 9.10393 4.09127 8.90867L0.90929 5.72669C0.714028 5.53143 0.714028 5.21484 0.90929 5.01958C1.10455 4.82432 1.42113 4.82432 1.6164 5.01958L4.44482 7.84801L7.27325 5.01958C7.46851 4.82432 7.7851 4.82432 7.98036 5.01958C8.17562 5.21484 8.17562 5.53143 7.98036 5.72669L4.79838 8.90867ZM4.44482 1.05511L4.94482 1.05511L4.94482 8.55511L4.44482 8.55511L3.94482 8.55511L3.94482 1.05511L4.44482 1.05511Z" fill="#FAFCFF"/>
</svg>
