<svg width="326" height="336" viewBox="0 0 326 336" fill="none" xmlns="http://www.w3.org/2000/svg">
<path d="M318 0C322.418 0 326 3.58172 326 8C326 12.4183 322.418 16 318 16C314.534 15.9999 311.583 13.7952 310.472 10.7119H17.0008V328.601L26.3142 319.287C27.0953 318.507 28.3625 318.506 29.1434 319.287C29.9236 320.068 29.9234 321.334 29.1434 322.115L16.4148 334.844C15.6339 335.624 14.3677 335.624 13.5867 334.844L0.858195 322.115C0.0775363 321.334 0.0775474 320.068 0.858195 319.287C1.63929 318.507 2.90642 318.506 3.6873 319.287L13.0008 328.601V6.71191H310.105C310.721 2.9063 314.02 0.000118845 318 0Z" fill="url(#paint0_linear_13_1431)"/>
<defs>
<linearGradient id="paint0_linear_13_1431" x1="0.272219" y1="168.715" x2="326" y2="168.715" gradientUnits="userSpaceOnUse">
<stop offset="0.182692" stop-color="#F6D3D1"/>
<stop offset="1" stop-color="#C4E3FF"/>
</linearGradient>
</defs>
</svg>
