<svg width="15" height="12" viewBox="0 0 15 12" fill="none" xmlns="http://www.w3.org/2000/svg">
<path d="M1.53254 10.1283L0.838651 10.5957L1.77358 11.9835L2.46746 11.516L2 10.8221L1.53254 10.1283ZM14.4321 3.1601C14.5206 2.70656 14.2246 2.26722 13.771 2.17879L6.38026 0.737843C5.92673 0.649419 5.48738 0.945401 5.39896 1.39894C5.31054 1.85247 5.60652 2.29182 6.06005 2.38024L12.6296 3.66108L11.3488 10.2307C11.2604 10.6842 11.5564 11.1235 12.0099 11.212C12.4634 11.3004 12.9028 11.0044 12.9912 10.5509L14.4321 3.1601ZM2 10.8221L2.46746 11.516L14.0784 3.69388L13.6109 2.99999L13.1435 2.3061L1.53254 10.1283L2 10.8221Z" fill="#F3F3F3"/>
</svg>
