<svg width="326" height="334" viewBox="0 0 326 334" fill="none" xmlns="http://www.w3.org/2000/svg">
<path d="M319.646 0C323.155 0 326 2.81319 326 6.2832C326 9.75314 323.155 12.5664 319.646 12.5664C317.007 12.5663 314.745 10.9758 313.784 8.71191H17.0002V326.601L26.3136 317.287C27.0946 316.506 28.3617 316.506 29.1427 317.287C29.9232 318.068 29.9231 319.334 29.1427 320.115L16.4142 332.844C15.6333 333.624 14.3671 333.624 13.5861 332.844L0.857583 320.115C0.077172 319.334 0.0770178 318.068 0.857583 317.287C1.63857 316.506 2.90569 316.506 3.68668 317.287L13.0002 326.601V4.71191H313.492C314.198 2.00229 316.685 0.000165106 319.646 0Z" fill="url(#paint0_linear_13_1431)"/>
<defs>
<linearGradient id="paint0_linear_13_1431" x1="0.272219" y1="166.715" x2="326" y2="166.715" gradientUnits="userSpaceOnUse">
<stop offset="0.182692" stop-color="#F6D3D1"/>
<stop offset="1" stop-color="#C4E3FF"/>
</linearGradient>
</defs>
</svg>
