<svg width="204" height="204" viewBox="0 0 204 204" fill="none" xmlns="http://www.w3.org/2000/svg">
<path fill-rule="evenodd" clip-rule="evenodd" d="M96.8275 0.435532L108.21 0.531138C110.934 0.557245 113.144 2.80248 113.118 5.5263L113.049 13.689C117.591 14.2633 122.03 15.1945 126.328 16.4302L129.505 8.93759C130.566 6.42262 133.49 5.23903 135.997 6.30071L146.483 10.7477C148.989 11.8094 150.173 14.7334 149.111 17.2397L145.935 24.7498C149.903 27.0211 153.671 29.5969 157.221 32.4339L163.043 26.7164C164.984 24.8019 168.143 24.8281 170.049 26.7775L178.029 34.8966C179.943 36.8459 179.917 39.9961 177.968 41.9106L172.146 47.6281C174.905 51.2048 177.394 54.9901 179.595 58.967L187.149 55.9039C189.672 54.877 192.579 56.104 193.597 58.6364L197.87 69.1924C198.888 71.7161 197.67 74.6226 195.137 75.6408L187.601 78.7039C188.776 83.055 189.629 87.5367 190.134 92.1228L198.296 92.1926C201.02 92.2187 203.231 94.4637 203.204 97.1875L203.1 108.57C203.083 111.303 200.829 113.505 198.105 113.496L189.959 113.426C189.376 117.96 188.445 122.398 187.21 126.706L194.711 129.873C197.217 130.944 198.401 133.868 197.339 136.374L192.901 146.852C191.839 149.366 188.915 150.55 186.4 149.488L178.899 146.303C176.619 150.272 174.043 154.04 171.206 157.59L176.932 163.412C178.847 165.361 178.812 168.512 176.871 170.426L168.743 178.406C166.803 180.321 163.653 180.286 161.738 178.345L156.012 172.515C152.444 175.273 148.65 177.762 144.681 179.964L147.745 187.517C148.763 190.05 147.536 192.948 145.004 193.975L134.448 198.239C131.924 199.265 129.017 198.038 127.999 195.506L124.945 187.961C120.594 189.136 116.103 189.989 111.526 190.502L111.447 198.656C111.43 201.38 109.176 203.59 106.452 203.564L95.0697 203.469C92.3372 203.443 90.1355 201.189 90.1616 198.465L90.2312 190.32C85.6886 189.745 81.2504 188.814 76.9515 187.57L73.7753 195.062C72.7136 197.577 69.7896 198.761 67.2833 197.699L56.7969 193.252C54.2906 192.191 53.1071 189.267 54.1688 186.76L57.3453 179.25C53.3858 176.97 49.6088 174.403 46.067 171.566L40.2453 177.284C38.296 179.198 35.1458 179.172 33.2313 177.223L25.2511 169.103C23.3366 167.154 23.3628 164.004 25.3122 162.089L31.134 156.372C28.3754 152.795 25.8776 149.01 23.676 145.033L16.1225 148.096C13.5989 149.123 10.6923 147.896 9.67415 145.364L5.40134 134.816C4.38318 132.293 5.61016 129.386 8.13383 128.359L15.6788 125.305C14.4952 120.954 13.6422 116.472 13.1375 111.886L4.99236 111.816C2.25984 111.79 0.0581373 109.536 0.0755419 106.821L0.179912 95.4297C0.206019 92.7059 2.45126 90.4955 5.17508 90.5216L13.3377 90.5912C13.9121 86.0573 14.8432 81.6191 16.079 77.3115L8.5776 74.1352C6.07134 73.0736 4.88781 70.1583 5.94949 67.6433L10.3877 57.1656C11.4494 54.6507 14.3819 53.4674 16.8882 54.529L24.3896 57.7141C26.6696 53.7458 29.2455 49.9777 32.0824 46.4272L26.3652 40.6053C24.4506 38.656 24.4766 35.5058 26.4172 33.5913L34.5453 25.6113C36.4859 23.6968 39.6361 23.7315 41.5506 25.6721L47.2766 31.494C50.8446 28.7441 54.6388 26.2377 58.607 24.0535L55.5439 16.4913C54.5258 13.9676 55.7527 11.0611 58.2764 10.0429L68.8324 5.7786C71.3561 4.75172 74.2626 5.97897 75.2808 8.51134L78.3351 16.056C82.6863 14.8725 87.1766 14.0284 91.754 13.515L91.8324 5.36961C91.8498 2.61969 94.095 0.409425 96.8275 0.435532ZM102.066 53.5281C75.2982 53.3018 53.4119 74.8139 53.1856 101.582C52.9594 128.342 74.4714 150.228 101.231 150.454C127.999 150.681 149.886 129.177 150.112 102.4C150.338 75.6493 128.835 53.7631 102.066 53.5281ZM101.997 61.43C79.5969 61.2298 61.27 79.2434 61.0872 101.652C60.8958 124.052 78.9009 142.37 101.301 142.561C123.709 142.762 142.027 124.748 142.219 102.339C142.401 79.9397 124.396 61.6127 101.997 61.43ZM102.136 44.4083C70.3379 44.1385 44.3266 69.697 44.0568 101.504C43.7871 133.311 69.3457 159.313 101.153 159.592C132.951 159.862 158.962 134.303 159.232 102.496C159.502 70.6805 133.952 44.6781 102.136 44.4083Z" fill="#D4E0EE"/>
</svg>
