<svg width="121" height="124" viewBox="0 0 121 124" fill="none" xmlns="http://www.w3.org/2000/svg">
<path d="M0.969238 21.1935L58.3516 0.768555V123.231L9.89149 96.4641L0.969238 21.1935Z" fill="#DE3641"/>
<path d="M58.3481 0.768555L117.043 20.8436L107.464 96.1142L58.3481 123.231V0.768555Z" fill="#B13138"/>
<path d="M58.3514 14.5L95.6587 94.2317H82.9314L74.9713 76.0373H58.3514V65.1907H70.4664L58.3514 40.1296L48.1608 65.1907H58.3514V76.0373H43.1748L36.0458 94.2317H22.3125L58.3514 14.5Z" fill="white"/>
<path d="M88.0892 58.8945C94.4472 58.8945 100.662 60.7799 105.949 64.3122C111.235 67.8445 115.356 72.865 117.789 78.739C120.222 84.613 120.858 91.0766 119.618 97.3123C118.378 103.548 115.316 109.276 110.82 113.772C106.324 118.268 100.596 121.329 94.3607 122.57C88.1249 123.81 81.6613 123.173 75.7874 120.74C69.9134 118.307 64.8928 114.187 61.3605 108.9C57.8282 103.614 55.9429 97.3988 55.9429 91.0409C55.9429 82.5151 59.3297 74.3386 65.3583 68.31C71.3869 62.2814 79.5635 58.8945 88.0892 58.8945Z" fill="#CC6699"/>
<path d="M108.254 72.6724C106.81 66.9429 97.3195 65.106 88.3535 68.2987C82.7401 70.183 77.5532 73.1554 73.0895 77.046C68.1472 81.6821 67.36 85.7934 67.7099 87.3679C68.847 93.316 76.982 97.1649 80.306 100.051C79.3438 100.533 72.1273 104.206 70.4215 107.924C69.7041 109.092 69.4763 110.495 69.7874 111.83C70.0986 113.165 70.9237 114.323 72.0835 115.053C74.1282 115.549 76.2766 115.394 78.2289 114.61C80.1812 113.826 81.84 112.452 82.9739 110.679C83.9079 109.237 84.4929 107.596 84.6827 105.888C84.8725 104.18 84.6618 102.451 84.0673 100.839C85.6832 100.439 87.3604 100.349 89.0096 100.576C94.6516 101.232 95.745 104.95 95.5263 106.218C95.4281 106.745 95.2169 107.245 94.9074 107.683C94.5979 108.121 94.1973 108.487 93.7331 108.755C93.3395 109.017 93.2083 109.105 93.252 109.28C93.2958 109.455 93.4707 109.542 93.8206 109.28C94.6712 109.014 95.4202 108.494 95.9673 107.791C96.5145 107.087 96.8337 106.233 96.8822 105.344C96.7951 104.302 96.5035 103.287 96.0242 102.358C95.5449 101.429 94.8872 100.603 94.0887 99.9278C93.2902 99.2527 92.3666 98.7416 91.3705 98.4237C90.3744 98.1057 89.3255 97.9871 88.2836 98.0746C88.1319 98.0746 87.9861 98.0921 87.8462 98.1271C86.1424 98.0787 84.4424 98.3152 82.8165 98.8268L82.5541 98.5644C78.9239 94.7156 72.2322 91.9602 72.4947 86.7556C72.4947 84.8749 73.2382 79.8889 85.3532 73.6346C95.2814 68.6924 103.241 70.0482 104.597 73.066C106.565 77.4397 100.224 85.3997 90.033 86.5369C88.8917 86.7678 87.713 86.7383 86.5847 86.4505C85.4564 86.1628 84.4076 85.6242 83.5163 84.8749C82.9914 84.2626 82.904 84.2626 82.6853 84.3501C82.4666 84.4375 82.6853 85.0498 82.6853 85.356C83.0795 86.0667 83.6112 86.6918 84.2495 87.1949C84.8877 87.698 85.6198 88.0691 86.4029 88.2863C90.391 89.2511 94.5809 88.9452 98.3867 87.4116C104.798 85.0061 109.697 78.2707 108.254 72.6724ZM81.6618 101.801C82.1362 103.37 82.1362 105.043 81.6618 106.612V107.574C81.2798 108.374 80.7784 109.112 80.1748 109.761C79.5518 110.625 78.6901 111.287 77.6956 111.668C76.701 112.049 75.617 112.131 74.5765 111.904C73.3519 111.248 73.9642 108.318 76.151 106.043C77.8159 104.391 79.7357 103.018 81.8368 101.976L81.6618 101.801Z" fill="white"/>
</svg>
