<svg width="96" height="76" viewBox="0 0 96 76" fill="none" xmlns="http://www.w3.org/2000/svg">
<path fill-rule="evenodd" clip-rule="evenodd" d="M3.7158 0H92.0235C94.0674 0 95.7393 1.67191 95.7393 3.71446V64.0133C95.7393 66.0558 94.0674 67.7278 92.0235 67.7278H3.7158C1.67325 67.7278 0 66.0558 0 64.0133V3.71446C0 1.67191 1.67325 0 3.7158 0Z" fill="#4D43A3"/>
<path fill-rule="evenodd" clip-rule="evenodd" d="M47.8691 1.71497C48.464 1.71497 48.9475 2.19707 48.9475 2.79197C48.9475 3.38688 48.4654 3.87032 47.8691 3.87032C47.2729 3.87032 46.7908 3.38822 46.7908 2.79197C46.7908 2.19707 47.2742 1.71497 47.8691 1.71497Z" fill="#D9F1FD"/>
<path fill-rule="evenodd" clip-rule="evenodd" d="M8.81504 5.68555H86.9234C88.2555 5.68555 89.3473 6.77598 89.3473 8.10948V59.619C89.3473 60.9525 88.2555 62.043 86.9234 62.043H8.81504C7.48288 62.043 6.39111 60.9525 6.39111 59.619V8.10948C6.39111 6.77598 7.48288 5.68555 8.81504 5.68555Z" fill="#D9F1FD"/>
<path fill-rule="evenodd" clip-rule="evenodd" d="M8.45513 5.68457H87.2819C88.418 5.68457 89.346 6.77635 89.346 8.1085V15.2151H6.39111V8.1085C6.39111 6.77635 7.32173 5.68457 8.45513 5.68457Z" fill="#C3E2F4"/>
<path d="M46.7386 18.5266H9.16162V36.7377H46.7386V18.5266Z" fill="#C3E2F4"/>
<path d="M26.152 39.4772H9.16162V41.8514H26.152V39.4772Z" fill="#C3E2F4"/>
<path d="M26.152 45.0851H9.16162V47.4593H26.152V45.0851Z" fill="#C3E2F4"/>
<path d="M26.152 50.6931H9.16162V53.0674H26.152V50.6931Z" fill="#C3E2F4"/>
<path d="M26.152 56.2997H9.16162V58.6739H26.152V56.2997Z" fill="#C3E2F4"/>
<path d="M46.7395 39.4772H29.5356V41.8514H46.7395V39.4772Z" fill="#C3E2F4"/>
<path d="M46.7395 45.0851H29.5356V47.4593H46.7395V45.0851Z" fill="#C3E2F4"/>
<path d="M46.7395 50.6931H29.5356V53.0674H46.7395V50.6931Z" fill="#C3E2F4"/>
<path d="M46.7395 56.2997H29.5356V58.6739H46.7395V56.2997Z" fill="#C3E2F4"/>
<path d="M66.9449 18.5266H50.5884V34.8348H66.9449V18.5266Z" fill="#FF6B52"/>
<path d="M66.9449 40.7935H50.5884V57.6898H66.9449V40.7935Z" fill="#6E63C4"/>
<path d="M85.5979 40.7935H69.2415V57.6898H85.5979V40.7935Z" fill="#F9BE60"/>
<path d="M85.5979 18.5266H69.2415V34.8348H85.5979V18.5266Z" fill="#14B0BF"/>
<path fill-rule="evenodd" clip-rule="evenodd" d="M12.7763 22.6775H11.2856V32.995H12.7763V28.5084H17.1447V32.995H18.6501V22.6775H17.1447V27.0312H12.7763V22.6775ZM24.2876 33.0393V24.1681H27.4018V22.6627H19.668V24.1681H22.797V33.038L24.2876 33.0393ZM30.2071 25.7178L32.909 29.7317H33.751L36.4516 25.7178V32.9936H37.9274V22.6614H36.747L33.3374 27.6798L29.9291 22.6614H28.7191V32.9936H30.2084V25.7178H30.2071ZM41.1437 22.6775H39.653V32.995H46.0009V31.5044H41.145V22.6775H41.1437Z" fill="#4D43A3"/>
<path fill-rule="evenodd" clip-rule="evenodd" d="M39.6683 27.7321C41.5967 27.7321 43.1599 29.3046 43.1599 31.2451C43.1599 33.1856 41.5967 34.7581 39.6683 34.7581C37.7413 34.7581 36.1768 33.1856 36.1768 31.2451C36.1781 29.3046 37.7413 27.7321 39.6683 27.7321ZM39.6683 26.0199C38.2354 26.0199 36.9382 26.6054 35.9995 27.5495L35.9982 27.5508C35.0595 28.4962 34.478 29.8028 34.478 31.2438C34.478 32.6861 35.0595 33.9913 35.9982 34.9367L35.9995 34.9381C36.9382 35.8835 38.2354 36.4677 39.6683 36.4677C41.1012 36.4677 42.3984 35.8821 43.3385 34.9381L43.3398 34.9367C44.2785 33.9913 44.86 32.6861 44.86 31.2438C44.86 29.8015 44.2785 28.4962 43.3398 27.5508L43.3385 27.5495C42.3998 26.6054 41.1025 26.0199 39.6683 26.0199ZM42.9248 27.9684C42.0922 27.1305 40.9387 26.6108 39.6683 26.6108C38.3979 26.6108 37.2444 27.1305 36.4118 27.9684C35.5805 28.8064 35.0635 29.9667 35.0635 31.2451C35.0635 32.5249 35.5805 33.6838 36.4118 34.5231C37.2444 35.3611 38.3979 35.8795 39.6683 35.8795C40.9387 35.8795 42.0922 35.3598 42.9248 34.5231C43.7561 33.6838 44.2731 32.5249 44.2731 31.2451C44.2731 29.9667 43.7574 28.8064 42.9248 27.9684Z" fill="#14B0BF"/>
<path fill-rule="evenodd" clip-rule="evenodd" d="M42.0961 42.7324L42.2425 42.7337C42.3862 41.744 43.3571 40.9732 44.5241 40.9732H44.7081C45.9073 40.9732 46.897 41.7843 47.0004 42.8089L47.1535 42.8116C47.2328 41.7655 48.2345 40.9342 49.4485 40.9342H49.6325C50.8827 40.9342 51.906 41.8178 51.9342 42.9043L52.1182 42.9271V42.8868C52.1182 42.077 52.8742 41.4163 53.7995 41.4163H53.9338C54.859 41.4163 55.6151 42.0811 55.6151 42.8868V49.9545L55.6124 50.0525L55.7534 58.4026C55.7897 60.5204 54.3367 62.6784 52.6245 64.1086L51.4602 65.0795L49.5452 76H37.7666L39.7219 64.8499C38.089 64.3477 37.0374 62.8705 36.7031 61.173L35.2393 53.7482C34.7411 52.9062 34.9277 51.8251 35.7456 51.1711L37.3624 49.8806L37.3047 46.6174C37.302 46.4884 37.3047 46.3609 37.3114 46.2346V31.2909C37.3114 30.0259 38.3481 28.9905 39.6131 28.9905H39.7971C41.0621 28.9905 42.0975 30.0259 42.0975 31.2909V42.7324H42.0961Z" fill="#F0C07D"/>
<path fill-rule="evenodd" clip-rule="evenodd" d="M52.4659 66.5378L37.5436 66.4788C37.3919 69.7595 37.2106 72.9153 37.0024 75.9999H52.4082C52.4498 72.4949 52.4713 69.2532 52.4659 66.5378Z" fill="#14B0BF"/>
</svg>
