<svg width="98" height="138" viewBox="0 0 98 138" fill="none" xmlns="http://www.w3.org/2000/svg">
<path d="M76.7077 5.16183H68.6006L77.0315 14.3108V18.6662H59.6669V13.5664H68.0967L59.6669 4.41744V0.0576172H76.7077V5.16183ZM56.2238 5.16183H48.1168L56.5477 14.3108V18.6662H39.182V13.5664H47.6129L39.182 4.41744V0.0576172H56.2238V5.16183ZM35.9409 5.37043H27.1927V13.3534H35.9409V18.6662H20.9741V0.0576172H35.9409V5.37043Z" fill="#131313"/>
<path d="M9.05047 126.868L0.160645 27.1631H97.839L88.9414 126.852L48.94 137.943L9.05047 126.868Z" fill="#1572B6"/>
<path d="M49.0005 129.465L81.322 120.504L88.9262 35.3154H49.0005V129.465Z" fill="#33A9DC"/>
<path d="M49.0005 71.4344H65.1816L66.3004 58.9127H49.0005V46.6841H79.6642L79.3711 49.9647L76.3661 83.6619H49.0005V71.4344Z" fill="white"/>
<path d="M49.0741 103.194L49.0203 103.209L35.4017 99.5311L34.53 89.7783H22.2563L23.9702 108.979L49.0181 115.932L49.0752 115.915L49.0741 103.194Z" fill="#EBEBEB"/>
<path d="M64.1425 83.1475L62.6691 99.524L49.0308 103.205V115.928L74.0995 108.98L74.2839 106.914L76.4117 83.1475H64.1425Z" fill="white"/>
<path d="M49.0421 46.6841V58.9116H19.5049L19.259 56.1635L18.7023 49.9647L18.4092 46.6841H49.0421ZM48.9993 71.4355V83.6641H35.5531L35.3083 80.916L34.7506 74.7161L34.4574 71.4355H48.9993Z" fill="#EBEBEB"/>
</svg>
