<svg width="43" height="42" viewBox="0 0 43 42" fill="none" xmlns="http://www.w3.org/2000/svg">
<path d="M41.6446 19.0947L23.3905 0.842435C22.8844 0.338223 22.1991 0.0551147 21.4848 0.0551147C20.7704 0.0551147 20.0851 0.338223 19.579 0.842435L15.7972 4.63121L20.6051 9.43903C21.1723 9.24686 21.782 9.21764 22.3651 9.35469C22.9481 9.49173 23.4809 9.78955 23.9031 10.2143C24.3254 10.639 24.62 11.1737 24.7535 11.7575C24.8871 12.3413 24.8542 12.9509 24.6586 13.517L29.2888 18.1506C29.974 17.9123 30.7199 17.9138 31.4041 18.1549C32.0884 18.396 32.6705 18.8623 33.0551 19.4774C33.4397 20.0926 33.604 20.8201 33.521 21.5408C33.4381 22.2615 33.1128 22.9327 32.5985 23.4444C32.3013 23.7421 31.9483 23.9783 31.5597 24.1394C31.1712 24.3006 30.7546 24.3835 30.334 24.3835C29.9133 24.3835 29.4968 24.3006 29.1082 24.1394C28.7196 23.9783 28.3666 23.7421 28.0694 23.4444C27.6248 22.9973 27.3211 22.4295 27.196 21.8115C27.0709 21.1935 27.1299 20.5523 27.3656 19.9675L23.0299 15.6544V27.0207C23.3365 27.1705 23.6256 27.3743 23.88 27.6269C24.4757 28.23 24.8097 29.0437 24.8097 29.8914C24.8097 30.7392 24.4757 31.5528 23.88 32.156C23.5816 32.4546 23.2274 32.6914 22.8375 32.853C22.4476 33.0147 22.0296 33.0978 21.6076 33.0978C21.1855 33.0978 20.7675 33.0147 20.3776 32.853C19.9877 32.6914 19.6335 32.4546 19.3352 32.156C19.0374 31.8592 18.8011 31.5065 18.6399 31.1182C18.4787 30.7299 18.3957 30.3136 18.3957 29.8932C18.3957 29.4727 18.4787 29.0564 18.6399 28.6681C18.8011 28.2798 19.0374 27.9272 19.3352 27.6304C19.6522 27.3168 20.0093 27.0799 20.3891 26.9231V15.4453C19.998 15.2855 19.6426 15.0496 19.3433 14.7515C19.044 14.4533 18.8068 14.0988 18.6454 13.7083C18.4841 13.3179 18.4017 12.8994 18.4032 12.4769C18.4047 12.0544 18.49 11.6365 18.6541 11.2472L13.9298 6.50033L1.41206 19.0094C0.366879 20.0633 0.366879 21.7686 1.41206 22.8225L19.6679 41.0731C19.9178 41.3233 20.2146 41.5217 20.5413 41.6572C20.868 41.7926 21.2182 41.8623 21.5719 41.8623C21.9255 41.8623 22.2757 41.7926 22.6024 41.6572C22.9291 41.5217 23.2259 41.3233 23.4758 41.0731L41.6446 22.9044C41.8952 22.6545 42.0941 22.3577 42.2298 22.0308C42.3655 21.7039 42.4353 21.3535 42.4353 20.9996C42.4353 20.6457 42.3655 20.2952 42.2298 19.9683C42.0941 19.6415 41.8952 19.3446 41.6446 19.0947Z" fill="#FE5460"/>
</svg>
