<svg width="42" height="41" viewBox="0 0 42 41" fill="none" xmlns="http://www.w3.org/2000/svg">
<path d="M20.9036 0.0551147C18.1585 0.0551147 15.4403 0.595802 12.9041 1.6463C10.368 2.69681 8.06359 4.23655 6.12252 6.17763C2.20233 10.0978 0 15.4147 0 20.9587C0 30.1981 5.99933 38.0369 14.298 40.8171C15.3432 40.9843 15.6777 40.3363 15.6777 39.7719V36.2392C9.88739 37.4934 8.65408 33.4381 8.65408 33.4381C7.69252 31.0133 6.33378 30.3653 6.33378 30.3653C4.43156 29.0693 6.48011 29.1111 6.48011 29.1111C8.57047 29.2574 9.67836 31.2642 9.67836 31.2642C11.497 34.4415 14.5698 33.5008 15.7613 32.9992C15.9494 31.6404 16.4929 30.7207 17.0782 30.1981C12.4376 29.6755 7.56709 27.8778 7.56709 19.9135C7.56709 17.5932 8.36143 15.7328 9.72016 14.2486C9.51113 13.7261 8.7795 11.5521 9.9292 8.7301C9.9292 8.7301 11.6851 8.1657 15.6777 10.8623C17.3291 10.4024 19.1268 10.1724 20.9036 10.1724C22.6804 10.1724 24.4781 10.4024 26.1295 10.8623C30.1221 8.1657 31.878 8.7301 31.878 8.7301C33.0277 11.5521 32.296 13.7261 32.087 14.2486C33.4457 15.7328 34.2401 17.5932 34.2401 19.9135C34.2401 27.8987 29.3486 29.6546 24.6871 30.1772C25.4397 30.8252 26.1295 32.1003 26.1295 34.0443V39.7719C26.1295 40.3363 26.4639 41.0052 27.53 40.8171C35.8287 38.016 41.8072 30.1981 41.8072 20.9587C41.8072 18.2136 41.2665 15.4954 40.216 12.9592C39.1655 10.4231 37.6257 8.11871 35.6846 6.17763C33.7436 4.23655 31.4392 2.69681 28.903 1.6463C26.3669 0.595802 23.6487 0.0551147 20.9036 0.0551147Z" fill="#1A112F"/>
</svg>
