<svg width="139" height="58" viewBox="0 0 139 58" fill="none" xmlns="http://www.w3.org/2000/svg">
<path d="M83.0903 19.8253C80.073 19.8253 77.8261 21.3067 77.8261 24.8722C77.8261 27.5585 79.3069 29.4238 82.9275 29.4238C85.9965 29.4238 88.0811 27.6151 88.0811 24.7607C88.0811 21.5261 86.2159 19.8253 83.0903 19.8253ZM77.0579 45.0013C76.3436 45.8773 75.632 46.8088 75.632 47.907C75.632 50.0994 78.4277 50.7593 82.2682 50.7593C85.4488 50.7593 89.782 50.5361 89.782 47.5787C89.782 45.8207 87.6973 45.7123 85.0633 45.5474L77.0579 45.0013ZM93.2914 19.9908C94.2769 21.2523 95.3206 23.0081 95.3206 25.5305C95.3206 31.6179 90.5491 35.1823 83.6401 35.1823C81.8832 35.1823 80.2929 34.9634 79.3069 34.6896L77.4961 37.5953L82.8703 37.9241C92.3594 38.529 97.9513 38.8039 97.9513 46.0951C97.9513 52.4035 92.4138 55.9663 82.8703 55.9663C72.9441 55.9663 69.1597 53.4434 69.1597 49.1113C69.1597 46.6433 70.2567 45.3296 72.1764 43.5166C70.3661 42.7517 69.7634 41.3813 69.7634 39.8993C69.7634 38.6918 70.3661 37.5958 71.3548 36.5527C72.3414 35.5122 73.4379 34.4691 74.7543 33.2626C72.0675 31.9462 70.0373 29.0944 70.0373 25.035C70.0373 18.7293 74.2061 14.3983 82.5954 14.3983C84.9544 14.3983 86.3809 14.615 87.6423 14.9465H98.3379V19.6064L93.2914 19.9908ZM107.986 10.0247C104.86 10.0247 103.05 8.21333 103.05 5.08607C103.05 1.96313 104.859 0.26123 107.986 0.26123C111.167 0.26123 112.977 1.96313 112.977 5.08607C112.977 8.21333 111.168 10.0247 107.986 10.0247ZM100.91 42.9829V38.6524L103.708 38.2697C104.476 38.1592 104.585 37.9953 104.585 37.171V21.0469C104.585 20.4452 104.421 20.0593 103.871 19.8965L100.91 18.8533L101.513 14.4123H112.867V37.171C112.867 38.0497 112.92 38.1592 113.745 38.2702L116.542 38.653V42.9829H100.91ZM138.23 40.8568C135.871 42.0077 132.416 43.0498 129.289 43.0498C122.762 43.0498 120.295 40.4201 120.295 34.2195V19.8523C120.295 19.5234 120.295 19.304 119.855 19.304H116.017V14.4215C120.844 13.8716 122.762 11.4586 123.366 5.48069H128.576V13.2705C128.576 13.6533 128.576 13.8188 129.016 13.8188H136.748V19.3029H128.576V32.4098C128.576 35.6454 129.345 36.9058 132.305 36.9058C133.843 36.9058 135.431 36.523 136.747 36.0292L138.23 40.8568Z" fill="#2F2707"/>
<path d="M56.9672 26.4639L31.8909 1.38923C31.5475 1.0457 31.1398 0.773199 30.691 0.587278C30.2423 0.401357 29.7613 0.305664 29.2755 0.305664C28.7898 0.305664 28.3088 0.401357 27.8601 0.587278C27.4113 0.773199 27.0036 1.0457 26.6602 1.38923L21.4531 6.59683L28.0586 13.2017C28.835 12.938 29.6698 12.8968 30.4685 13.0829C31.2671 13.269 31.9978 13.6748 32.5777 14.2546C33.1605 14.8384 33.5674 15.5742 33.7519 16.3782C33.9364 17.1821 33.8912 18.0218 33.6214 18.8013L39.9864 25.1674C41.5266 24.6369 43.304 24.9803 44.5336 26.2121C44.9425 26.6206 45.2669 27.1057 45.4882 27.6397C45.7095 28.1737 45.8234 28.746 45.8234 29.324C45.8234 29.902 45.7095 30.4743 45.4882 31.0083C45.2669 31.5422 44.9425 32.0274 44.5336 32.4359C43.8144 33.1558 42.8678 33.6043 41.8551 33.7048C40.8424 33.8054 39.8262 33.552 38.9793 32.9876C38.1325 32.4232 37.5074 31.5828 37.2105 30.6094C36.9136 29.636 36.9632 28.5897 37.3508 27.6488L31.4144 21.7123L31.4138 37.3351C31.8439 37.5483 32.2369 37.8294 32.5777 38.1675C32.9865 38.5762 33.3108 39.0614 33.532 39.5954C33.7533 40.1295 33.8672 40.7019 33.8672 41.2799C33.8672 41.858 33.7533 42.4303 33.532 42.9644C33.3108 43.4984 32.9865 43.9836 32.5777 44.3923C30.858 46.112 28.071 46.112 26.354 44.3923C25.841 43.8798 25.4627 43.2484 25.2525 42.5543C25.0424 41.8602 25.0071 41.125 25.1496 40.414C25.2922 39.703 25.6082 39.0382 26.0696 38.4788C26.531 37.9194 27.1235 37.4826 27.7944 37.2074V21.439C27.2549 21.2182 26.7652 20.8915 26.354 20.4784C25.0515 19.1775 24.7383 17.2665 25.4057 15.667L18.8946 9.1548L1.70089 26.3474C1.35732 26.691 1.08478 27.0988 0.898834 27.5477C0.712891 27.9966 0.617188 28.4777 0.617188 28.9636C0.617188 29.4495 0.712891 29.9306 0.898834 30.3795C1.08478 30.8284 1.35732 31.2363 1.70089 31.5798L26.7771 56.655C27.1206 56.9985 27.5283 57.271 27.977 57.4569C28.4258 57.6429 28.9068 57.7386 29.3925 57.7386C29.8783 57.7386 30.3593 57.6429 30.808 57.4569C31.2568 57.271 31.6645 56.9985 32.0079 56.655L56.9672 31.6968C57.6608 31.0027 58.0505 30.0616 58.0505 29.0803C58.0505 28.0991 57.6608 27.1579 56.9672 26.4639Z" fill="#DE4C36"/>
</svg>
