<svg width="56" height="121" viewBox="0 0 56 121" fill="none" xmlns="http://www.w3.org/2000/svg">
<path d="M42.9683 116.636L44.1429 97.4553L47.3862 92.0298C47.3862 92.0298 40.0045 94.989 27.6463 94.989C15.2878 94.989 8.01802 92.0845 8.01802 92.0845L11.6528 98.003L12.9387 116.636C12.9387 118.633 19.6609 120.252 27.9536 120.252C36.2459 120.252 42.9683 118.633 42.9683 116.636ZM39.2632 27.0664L41.7286 17.5166L55.3815 3.43813L51.7831 0.43457L37.3287 15.4316L34.4661 26.8411C32.3117 26.7704 30.1562 26.7353 28.0006 26.7357C12.7774 26.7357 0.436523 28.4359 0.436523 30.5328C0.436523 32.6296 12.7774 34.3298 28.0006 34.3298C43.2235 34.3298 55.5642 32.6298 55.5642 30.5328C55.5642 28.9887 48.8712 27.6596 39.2632 27.0664Z" fill="#D34A47"/>
<path d="M37.827 32.4157C37.827 32.4157 37.293 32.533 35.7224 32.5396C34.1513 32.5459 33.0358 32.5296 32.5914 32.133C32.4719 32.0265 32.4066 31.815 32.4072 31.6718C32.4085 31.3993 32.6059 31.2387 32.8574 31.1382L33.0953 31.5039C32.9918 31.5389 32.9327 31.5802 32.9325 31.6243C32.9317 31.8313 34.5389 31.973 35.7682 31.9578C36.9978 31.9429 38.4834 31.8436 38.4847 31.6396C38.4847 31.5779 38.3724 31.5198 38.1769 31.474L38.4137 31.1108C38.7323 31.2078 39.0104 31.3951 39.0098 31.7191C39.0068 32.2702 38.2912 32.354 37.827 32.4157Z" fill="white"/>
<path d="M55.354 3.46737C55.6972 3.07881 55.1763 2.0849 54.1904 1.24774C53.2041 0.410998 52.1263 0.0474571 51.7824 0.436026C51.4389 0.824595 51.9601 1.8185 52.9463 2.65524C53.9322 3.49219 55.0105 3.85616 55.354 3.46737ZM42.311 69.7873C41.9874 66.7365 49.1204 62.318 47.2898 62.1765C43.349 62.3973 41.3876 66.7023 39.4049 71.2112C38.6783 72.8637 36.1921 79.9101 34.5615 79.0426C32.9313 78.1755 36.675 72.3811 37.7243 68.94C36.5135 69.81 32.0734 73.1907 30.9291 70.0247C29.0894 71.5558 25.1583 72.3854 25.6018 68.3633C24.623 70.0622 22.4264 72.4342 19.7898 71.4485C16.3273 70.1545 21.7962 59.3456 23.156 59.8909C24.5159 60.4362 22.8816 62.8983 22.4535 63.8545C21.512 65.9587 20.4244 68.604 21.151 69.1455C22.3957 70.0733 25.7829 65.6359 25.8582 65.5383C26.4917 64.7181 28.2966 59.3522 29.7512 59.9683C31.2059 60.5845 26.1229 67.6693 28.0234 69.0753C28.4068 69.3591 29.975 68.9003 30.9291 67.8888C31.5464 67.2345 31.334 65.7852 33.3917 60.9765C35.4493 56.1679 37.2832 50.1794 38.6943 50.6357C40.1055 51.0917 38.9424 54.1653 38.4361 55.311C36.0605 60.6886 31.9526 69.5729 33.8899 68.9003C35.8272 68.228 36.836 68.1885 38.7331 66.013C40.6301 63.8375 40.5427 60.254 41.8071 60.3302C43.0719 60.4065 42.8596 61.5555 42.5529 62.4304C43.7974 61.0348 48.4521 58.0955 49.5758 61.0066C50.9069 64.453 42.9163 69.4312 44.9086 69.1773C46.8511 68.9298 49.9981 66.9766 51.3417 65.2007L55.0401 32.6164C55.0401 32.6164 51.3185 35.6346 27.6419 35.6346C3.9652 35.6346 0.628418 32.6792 0.628418 32.6792L3.77711 62.4209C5.44842 57.7659 9.41719 48.3503 15.673 48.6663C18.5187 48.8101 22.3176 54.1799 19.0635 54.3619C17.6861 54.4386 17.5463 51.6815 15.9152 51.2766C14.7382 50.9844 13.0996 51.9221 12.0406 52.938C9.92862 54.9636 5.38631 62.9554 5.98648 66.9397C6.75114 72.0193 13.1392 65.1746 14.2201 63.1424C14.9813 61.711 15.4955 57.4698 17.1604 57.9148C18.8252 58.3598 17.0151 62.7367 15.8083 66.6065C14.4525 70.9518 13.7398 75.5355 12.0406 75.0082C10.3411 74.4814 13.1093 68.8717 13.0091 67.8888C11.4119 69.333 8.4692 72.9892 4.70454 71.1796L6.66002 89.6489C6.66002 89.6489 11.8573 93.6731 27.5135 93.6731C43.1698 93.6731 48.5594 89.7117 48.5594 89.7117L50.9876 68.3198C49.001 70.2156 42.7135 73.582 42.311 69.7873Z" fill="#D34A47"/>
</svg>
