<svg width="94" height="132" viewBox="0 0 94 132" fill="none" xmlns="http://www.w3.org/2000/svg">
<path d="M9.07427 120.932L0.635254 26.2788H93.3647L84.9173 120.917L46.9433 131.444L9.07427 120.932Z" fill="#E44D26"/>
<path d="M46.998 123.395L77.6819 114.888L84.9017 34.0171H46.998V123.395Z" fill="#F16529"/>
<path d="M46.9991 69.1222H31.6372L30.5775 57.2333H46.9991V45.6245H17.8901L18.1671 48.7397L21.0211 80.7299H46.9991V69.1222ZM46.9991 99.2699L46.9477 99.2836L34.0201 95.7917L33.1933 86.5343H21.5394L23.1657 104.762L46.9456 111.363L46.9991 111.348V99.2699Z" fill="#EBEBEB"/>
<path d="M9.2627 0.556152H15.1615V6.38571H20.5588V0.556152H26.4586V18.2064H20.5588V12.2961H15.1626V18.2064H9.2627V0.556152ZM34.2157 6.40985H29.0219V0.556152H45.3113V6.40985H40.1155V18.2064H34.2157V6.40985ZM47.8967 0.556152H54.0473L57.8319 6.75819L61.6123 0.556152H67.7661V18.2064H61.8893V9.45788L57.8319 15.7334H57.7291L53.6685 9.45788V18.2064H47.8956V0.556152H47.8967ZM70.7029 0.556152H76.6038V12.3727H84.9001V18.2075H70.7029V0.556152Z" fill="black"/>
<path d="M46.957 69.1222V80.7299H61.2518L59.9046 95.7854L46.957 99.2804V111.357L70.7558 104.762L70.93 102.8L73.658 72.2384L73.9413 69.1222H70.8125H46.957ZM46.957 45.6245V57.2333H74.9979L75.2298 54.6238L75.7596 48.7397L76.0377 45.6245H46.957Z" fill="white"/>
</svg>
