<svg width="40" height="40" viewBox="0 0 40 40" fill="none" xmlns="http://www.w3.org/2000/svg">
<path d="M35.4108 0.548279H4.90865C2.61233 0.548279 0.749268 2.41134 0.749268 4.70766V35.2098C0.749268 37.5062 2.61233 39.3692 4.90865 39.3692H35.4108C37.7071 39.3692 39.5702 37.5062 39.5702 35.2098V4.70766C39.5702 2.41134 37.7071 0.548279 35.4108 0.548279ZM21.8755 30.8251C21.8755 34.6032 19.6571 36.3277 16.425 36.3277C13.5047 36.3277 11.815 34.8199 10.9484 32.9915L13.9207 31.1978C14.4926 32.2116 15.0125 33.0695 16.269 33.0695C17.4648 33.0695 18.2274 32.6015 18.2274 30.7731V18.373H21.8755V30.8251ZM30.5062 36.3277C27.118 36.3277 24.9257 34.7159 23.8599 32.6015L26.8321 30.8858C27.612 32.1596 28.6345 33.1041 30.4282 33.1041C31.936 33.1041 32.9065 32.3502 32.9065 31.3017C32.9065 30.0539 31.9187 29.612 30.2462 28.8754L29.3364 28.4855C26.7021 27.3676 24.9604 25.9552 24.9604 22.983C24.9604 20.2447 27.0487 18.165 30.2982 18.165C32.6206 18.165 34.2843 18.9709 35.4801 21.0852L32.6379 22.905C32.014 21.7871 31.3381 21.3452 30.2896 21.3452C29.2237 21.3452 28.5478 22.0211 28.5478 22.905C28.5478 23.9968 29.2237 24.4388 30.7922 25.1233L31.702 25.5133C34.8042 26.8391 36.546 28.1995 36.546 31.2497C36.546 34.5253 33.9637 36.3277 30.5062 36.3277Z" fill="#FFB743"/>
</svg>
