<svg width="96" height="81" viewBox="0 0 96 81" fill="none" xmlns="http://www.w3.org/2000/svg">
<path fill-rule="evenodd" clip-rule="evenodd" d="M36.4216 62.9751H56.6212L58.2725 79.7645H34.7688L36.4216 62.9751Z" fill="#266590"/>
<path fill-rule="evenodd" clip-rule="evenodd" d="M46.522 62.9751H56.621L58.2723 79.7645H46.522V62.9751Z" fill="#4D43A3"/>
<path fill-rule="evenodd" clip-rule="evenodd" d="M33.2304 77.2285H59.808C60.4103 77.2285 60.9034 77.7217 60.9034 78.3239V79.1055C60.9034 79.7077 60.4103 80.2008 59.808 80.2008H33.2304C32.6282 80.2008 32.135 79.7077 32.135 79.1055V78.3239C32.135 77.7202 32.6282 77.2285 33.2304 77.2285Z" fill="#D9F1FD"/>
<path fill-rule="evenodd" clip-rule="evenodd" d="M46.522 77.2285H59.81C60.4123 77.2285 60.9054 77.7217 60.9054 78.3239V79.1055C60.9054 79.7077 60.4123 80.2008 59.81 80.2008H46.522V77.2285Z" fill="#C3E2F4"/>
<path fill-rule="evenodd" clip-rule="evenodd" d="M3.94816 2.07007H89.0922C90.068 2.07007 90.9632 2.42874 91.6536 3.01902C92.5009 3.74529 93.0404 4.82123 93.0404 6.01823V63.5251C93.0404 65.6965 91.265 67.4733 89.0922 67.4733H3.94816C1.77682 67.4733 0 65.6965 0 63.5251V57.5551V6.01823C0 3.84689 1.77682 2.07007 3.94816 2.07007Z" fill="#4D43A3"/>
<path fill-rule="evenodd" clip-rule="evenodd" d="M93.0404 58.5935V63.525C93.0404 65.6963 91.265 67.4731 89.0922 67.4731H3.94816C1.77682 67.4731 0 65.6963 0 63.525V58.5935H93.0404Z" fill="#D9F1FD"/>
<path fill-rule="evenodd" clip-rule="evenodd" d="M93.0407 58.5935V63.525C93.0407 65.6963 91.2653 67.4731 89.0925 67.4731H46.522V58.5935H93.0407Z" fill="#C3E2F4"/>
<path d="M89.8914 5.56848H3.14844V55.7604H89.8914V5.56848Z" fill="#14B0BF"/>
<path d="M89.8935 5.56848H46.522V55.7604H89.8935V5.56848Z" fill="#1695A4"/>
<path fill-rule="evenodd" clip-rule="evenodd" d="M42.3659 61.0939H50.6747C51.528 61.0939 52.2273 61.7918 52.2273 62.6465C52.2273 63.4998 51.5295 64.1992 50.6747 64.1992H42.3659C41.5126 64.1992 40.8132 63.4998 40.8132 62.648C40.8147 61.7947 41.5126 61.0939 42.3659 61.0939Z" fill="#266590"/>
<path fill-rule="evenodd" clip-rule="evenodd" d="M46.522 61.0939H50.6749C51.5281 61.0939 52.2275 61.7918 52.2275 62.6465C52.2275 63.4998 51.5296 64.1992 50.6749 64.1992H46.522V61.0939Z" fill="#4D43A3"/>
<path fill-rule="evenodd" clip-rule="evenodd" d="M58.9309 17.1127H60.8855C61.3533 17.1127 61.7358 17.4952 61.7358 17.963V19.3632C62.5174 19.4574 63.281 19.6083 64.0207 19.816L64.5557 18.5234C64.7351 18.09 65.2357 17.8838 65.6676 18.0616L67.4728 18.8088C67.9061 18.9881 68.1124 19.4872 67.9345 19.9206L67.3995 21.2147C68.084 21.6003 68.7355 22.0367 69.3482 22.5178L70.339 21.5256C70.6707 21.1953 71.2117 21.1953 71.5435 21.5256L72.9258 22.9079C73.256 23.2396 73.256 23.7806 72.9258 24.1124L71.9335 25.1046C72.4117 25.7143 72.8466 26.3599 73.2291 27.0399L74.5218 26.5034C74.9552 26.324 75.4543 26.5318 75.6351 26.9636L76.3838 28.7689C76.5631 29.2007 76.3554 29.7013 75.9235 29.8807L74.6324 30.4157C74.8416 31.1614 74.994 31.9295 75.0882 32.717H76.4869C76.9561 32.717 77.3387 33.0996 77.3387 33.5688V35.5235C77.3387 35.9912 76.9561 36.3738 76.4869 36.3738H75.0866C74.9925 37.1553 74.8416 37.919 74.6353 38.6587L75.928 39.1937C76.3614 39.373 76.5676 39.8736 76.3898 40.3055L75.6426 42.1122C75.4632 42.5441 74.9626 42.7518 74.5307 42.574L73.2366 42.039C72.8511 42.7234 72.4147 43.3735 71.932 43.9877L72.9243 44.9799C73.2545 45.3102 73.2545 45.8527 72.9243 46.1829L71.542 47.5652C71.2102 47.897 70.6693 47.897 70.3375 47.5652L69.3452 46.5729C68.7355 47.0526 68.09 47.486 67.41 47.8701L67.9465 49.1627C68.1258 49.5946 67.9196 50.0952 67.4862 50.2745L65.681 51.0232C65.2491 51.2026 64.7485 50.9948 64.5692 50.563L64.0342 49.2718C63.2885 49.481 62.5204 49.6349 61.7328 49.7291V51.1293C61.7328 51.5971 61.3503 51.9811 60.8825 51.9811H58.9279C58.4586 51.9811 58.0761 51.5986 58.0761 51.1293V49.7291C57.296 49.6349 56.5309 49.484 55.7912 49.2778L55.2562 50.5704C55.0768 51.0023 54.5762 51.21 54.1444 51.0307L52.3391 50.285C51.9058 50.1057 51.6996 49.6051 51.8774 49.1732L52.4124 47.879C51.7279 47.4935 51.0779 47.0571 50.4637 46.5759L49.4714 47.5667C49.1412 47.8985 48.5987 47.8985 48.2684 47.5667L46.8861 46.1844C46.5544 45.8542 46.5544 45.3117 46.8861 44.9814L47.8769 43.9892C47.3972 43.3795 46.9638 42.7339 46.5798 42.0539L45.2871 42.5904C44.8538 42.7697 44.3531 42.562 44.1753 42.1302L43.4266 40.3249C43.2473 39.8916 43.455 39.3909 43.8869 39.2116L45.1781 38.6766C44.9688 37.9309 44.8164 37.1628 44.7223 36.3753H43.322C42.8528 36.3753 42.4702 35.9927 42.4702 35.525V33.5703C42.4702 33.1011 42.8528 32.7185 43.322 32.7185H44.7223C44.8164 31.937 44.9688 31.1733 45.1736 30.4336L43.8809 29.9001C43.4475 29.7208 43.2413 29.2202 43.4192 28.7883L44.1664 26.9816C44.3457 26.5482 44.8463 26.3405 45.2782 26.5198L46.5723 27.0548C46.9579 26.3704 47.3942 25.7203 47.8754 25.1061L46.8846 24.1139C46.5529 23.7821 46.5529 23.2411 46.8846 22.9094L48.267 21.5271C48.5972 21.1968 49.1397 21.1968 49.4699 21.5271L50.4622 22.5193C51.0719 22.0396 51.7175 21.6063 52.3974 21.2237L51.8609 19.9311C51.6816 19.4977 51.8893 18.9986 52.3212 18.8178L54.1264 18.0691C54.5583 17.8897 55.0589 18.096 55.2397 18.5293L55.7747 19.8205C56.5204 19.6113 57.2885 19.4588 58.0761 19.3647V17.9645C58.0791 17.4967 58.4616 17.1127 58.9309 17.1127ZM59.9067 26.2224C55.31 26.2224 51.5845 29.9479 51.5845 34.5447C51.5845 39.1414 55.3115 42.8669 59.9067 42.8669C64.5034 42.8669 68.2304 39.1399 68.2304 34.5447C68.2304 29.9479 64.5049 26.2224 59.9067 26.2224ZM59.9067 27.5793C56.0586 27.5793 52.9399 30.6981 52.9399 34.5462C52.9399 38.3942 56.0586 41.513 59.9067 41.513C63.7547 41.513 66.8735 38.3942 66.8735 34.5462C66.8735 30.6981 63.7547 27.5793 59.9067 27.5793ZM59.9067 24.6563C54.4447 24.6563 50.0184 29.0842 50.0184 34.5462C50.0184 40.0081 54.4447 44.436 59.9067 44.436C65.3687 44.436 69.7965 40.0081 69.7965 34.5462C69.7965 29.0842 65.3687 24.6563 59.9067 24.6563Z" fill="#FDC00F"/>
<path fill-rule="evenodd" clip-rule="evenodd" d="M83.2702 4.36855C84.2505 4.4343 85.198 4.62557 86.0931 4.92743L86.5011 3.94114C86.5773 3.76032 86.7865 3.67215 86.9688 3.74836L87.7265 4.06219C87.9088 4.13691 87.9955 4.34762 87.9192 4.52844L87.5113 5.51622C88.378 5.9466 89.1805 6.48607 89.9023 7.1167L90.6584 6.35907C90.7974 6.22009 91.0246 6.22009 91.1635 6.35907L91.7434 6.93889C91.8823 7.07787 91.8823 7.30501 91.7434 7.44399L90.9872 8.20014C91.6163 8.92193 92.1558 9.72591 92.5877 10.5912L93.574 10.1817C93.7563 10.107 93.9655 10.1937 94.0402 10.3745L94.3541 11.1321C94.4288 11.3144 94.3421 11.5236 94.1613 11.5999L93.175 12.0078C93.4754 12.9045 93.6681 13.8504 93.7339 14.8307H94.8024C94.9996 14.8307 95.1595 14.9906 95.1595 15.1879V16.0083C95.1595 16.2041 94.9996 16.3655 94.8024 16.3655H93.7339C93.6681 17.3473 93.4769 18.2932 93.175 19.1883L94.1613 19.5963C94.3421 19.671 94.4288 19.8817 94.3541 20.064L94.0402 20.8217C93.9655 21.004 93.7563 21.0907 93.574 21.0145L92.5877 20.6065C92.1558 21.4733 91.6178 22.2757 90.9872 22.9975L91.7434 23.7537C91.8823 23.8927 91.8823 24.1198 91.7434 24.2588L91.1635 24.8386C91.0246 24.9776 90.7974 24.9776 90.6584 24.8386L89.9023 24.081C89.1805 24.7116 88.378 25.2511 87.5113 25.6814L87.9192 26.6677C87.994 26.8486 87.9073 27.0593 87.7265 27.1355L86.9688 27.4478C86.7865 27.524 86.5773 27.4359 86.5011 27.255L86.0931 26.2687C85.1965 26.5706 84.2505 26.7604 83.2702 26.8276V27.8976C83.2702 28.0934 83.1103 28.2548 82.9131 28.2548H82.0926C81.8969 28.2548 81.7355 28.0949 81.7355 27.8976V26.8276C80.7537 26.7619 79.8077 26.5706 78.9126 26.2687L78.5046 27.255C78.4299 27.4359 78.2207 27.524 78.0384 27.4478L77.2807 27.134C77.0984 27.0593 77.0117 26.8486 77.0879 26.6662L77.4959 25.68C76.6292 25.2481 75.8267 24.7101 75.1049 24.0795L74.3487 24.8371C74.2098 24.9761 73.9826 24.9761 73.8436 24.8371L73.2638 24.2573C73.1248 24.1183 73.1248 23.8912 73.2638 23.7522L74.02 22.996C73.3908 22.2742 72.8499 21.4718 72.4195 20.605L71.4332 21.013C71.2509 21.0877 71.0417 21.001 70.9669 20.8202L70.6531 20.0626C70.5784 19.8817 70.6651 19.671 70.8459 19.5948L71.8322 19.1869C71.5303 18.2902 71.339 17.3443 71.2733 16.364H70.2048C70.0076 16.364 69.8477 16.2041 69.8477 16.0068V15.1864C69.8477 14.9906 70.0076 14.8292 70.2048 14.8292H71.2733C71.339 13.8489 71.5303 12.9015 71.8322 12.0063L70.8459 11.5984C70.6636 11.5222 70.5784 11.3129 70.6531 11.1306L70.9669 10.373C71.0417 10.1907 71.2509 10.104 71.4332 10.1802L72.4195 10.5897C72.8499 9.72292 73.3893 8.92042 74.02 8.19863L73.2623 7.44248C73.1234 7.3035 73.1234 7.07636 73.2623 6.93738L73.8422 6.35756C73.9811 6.21858 74.2083 6.21858 74.3472 6.35756L75.1034 7.11522C75.8252 6.48459 76.6292 5.94512 77.4944 5.51474L77.0864 4.52844C77.0117 4.34762 77.0984 4.13691 77.2792 4.06219L78.0369 3.74836C78.2192 3.67215 78.4284 3.76032 78.5031 3.94114L78.9111 4.92743C79.8077 4.62557 80.7522 4.43279 81.734 4.36704V3.29706C81.734 3.10129 81.8939 2.94141 82.0911 2.94141H82.9116C83.1073 2.94141 83.2687 3.10129 83.2687 3.29706L83.2702 4.36855ZM82.5156 10.6569C79.7853 10.6494 77.5661 12.8566 77.5602 15.5869C77.5542 18.3171 79.7614 20.5363 82.4901 20.5423C85.2204 20.5497 87.4395 18.341 87.4455 15.6123C87.453 12.8821 85.2458 10.6629 82.5156 10.6569ZM82.5096 12.6549C80.8837 12.6504 79.5611 13.9655 79.5567 15.5929C79.5522 17.2188 80.8687 18.5413 82.4946 18.5458C84.122 18.5502 85.4445 17.2352 85.4475 15.6078C85.452 13.9789 84.1369 12.6579 82.5096 12.6549ZM82.5036 7.92966C78.267 7.92966 74.8329 11.3637 74.8329 15.6003C74.8329 19.8369 78.267 23.271 82.5036 23.271C86.7402 23.271 90.1743 19.8369 90.1743 15.6003C90.1728 11.3637 86.7402 7.92966 82.5036 7.92966Z" fill="#D9F1FD"/>
<path fill-rule="evenodd" clip-rule="evenodd" d="M61.8347 0.0632356L63.3933 0.000483176C63.7355 -0.0129663 64.0285 0.256024 64.0419 0.599733L64.1047 2.15388C64.8802 2.29137 65.6095 2.56484 66.2685 2.9504L67.3221 1.80719C67.5552 1.55464 67.9512 1.53971 68.2037 1.77283L69.3514 2.83084C69.604 3.06397 69.6189 3.45997 69.3858 3.71252L68.3308 4.85573C68.7671 5.48038 69.0989 6.18724 69.2977 6.94788L70.8503 6.8851C71.194 6.87165 71.4854 7.14066 71.4989 7.48287L71.5616 9.04151C71.5751 9.38522 71.3061 9.67661 70.9639 9.69006L69.4097 9.75283C69.2737 10.5284 68.9988 11.2577 68.6132 11.9167L69.7564 12.9717C70.009 13.2048 70.0239 13.6009 69.7908 13.8534L68.7328 15.0011C68.4996 15.2522 68.1036 15.2686 67.8511 15.0355L66.7079 13.9804C66.0832 14.4168 65.3779 14.7501 64.6157 14.9473L64.6785 16.5C64.692 16.8422 64.423 17.1351 64.0808 17.1485L62.5221 17.2113C62.1784 17.2248 61.887 16.9558 61.8735 16.6136L61.8108 15.0594C61.0352 14.9219 60.3059 14.6484 59.6469 14.2629L58.5919 15.4061C58.3588 15.6586 57.9628 15.6736 57.7102 15.4405L56.564 14.3824C56.3129 14.1508 56.295 13.7533 56.5281 13.5007L57.5832 12.3575C57.1453 11.7329 56.8151 11.0275 56.6163 10.2654L55.0621 10.3282C54.7199 10.3416 54.427 10.0726 54.4136 9.73042L54.3508 8.17178C54.3374 7.82956 54.6064 7.53666 54.9486 7.52321L56.5027 7.46194C56.6387 6.68635 56.9137 5.9556 57.2992 5.29807L56.156 4.24305C55.9035 4.00992 55.8885 3.61389 56.1202 3.36134L57.1797 2.21367C57.4128 1.96261 57.8088 1.94616 58.0614 2.17928L59.2046 3.23433C59.8292 2.79797 60.5361 2.46621 61.2967 2.26746L61.2339 0.713312C61.222 0.369604 61.4925 0.0766851 61.8347 0.0632356ZM62.8539 6.00791C61.4177 6.06619 60.3015 7.27515 60.3597 8.70976C60.418 10.1444 61.627 11.2622 63.0616 11.2039C64.4962 11.1471 65.614 9.93664 65.5557 8.50203C65.4989 7.06742 64.29 5.94963 62.8539 6.00791Z" fill="#FC611F"/>
<path fill-rule="evenodd" clip-rule="evenodd" d="M82.517 10.0248C84.0562 10.0278 85.449 10.6554 86.4547 11.6671C87.4604 12.6788 88.0806 14.0731 88.0761 15.6123C88.0731 17.1515 87.4455 18.5458 86.4338 19.5515C85.4236 20.5572 84.0278 21.1774 82.4886 21.1729C80.9494 21.1699 79.5566 20.5423 78.5494 19.5306C77.5452 18.5204 76.9235 17.1246 76.928 15.5854C76.9325 14.0462 77.5586 12.6534 78.5703 11.6477C79.582 10.642 80.9778 10.0218 82.517 10.0248ZM86.1902 11.9301C85.2517 10.9872 83.9516 10.4014 82.517 10.3969C81.0809 10.3924 79.7778 10.9722 78.8348 11.9107C77.8919 12.8492 77.3061 14.1493 77.3016 15.5839C77.2971 17.02 77.8769 18.3231 78.8169 19.2661C79.7569 20.2105 81.0555 20.7948 82.4901 20.7993C83.9262 20.8023 85.2293 20.224 86.1722 19.284C87.1152 18.3455 87.701 17.0469 87.704 15.6108C87.7085 14.1762 87.1287 12.8746 86.1902 11.9301Z" fill="#4D43A3"/>
<path fill-rule="evenodd" clip-rule="evenodd" d="M81.2707 21.046C80.3771 20.7666 77.6528 19.4859 74.5027 17.9407C68.951 15.2209 62.0664 11.6822 61.5478 11.3818C61.0397 11.0889 60.6004 10.6795 60.2955 10.1833C60.0131 9.72308 59.8442 9.1881 59.8442 8.6038C59.8442 7.74453 60.1924 6.96594 60.7558 6.40256L60.7573 6.40108C61.3207 5.83919 62.0993 5.4895 62.96 5.4895C63.5712 5.4895 66.2925 6.06036 69.622 6.81353C75.2558 8.08973 82.6321 9.89195 84.4418 10.3522L84.3506 10.7139C82.535 10.2521 75.1542 8.44838 69.5383 7.17666C66.2357 6.42797 63.5428 5.8631 62.9585 5.8631C62.2009 5.8631 61.5165 6.17094 61.0203 6.66559H61.0188C60.5242 7.16023 60.2163 7.84615 60.2163 8.6038C60.2163 9.11637 60.3628 9.58412 60.6109 9.98611C60.8828 10.4284 61.2773 10.7946 61.7331 11.0576C62.2532 11.3579 69.1274 14.8907 74.6655 17.6045C77.7978 19.1392 80.5026 20.4124 81.3813 20.6874L81.2707 21.046Z" fill="#4D43A3"/>
<path fill-rule="evenodd" clip-rule="evenodd" d="M86.9719 18.9299L65.1734 41.5684L65.1614 41.5803L65.1509 41.5878C64.4038 42.1452 63.5639 42.586 62.6613 42.8834C61.7901 43.1704 60.8561 43.3243 59.8877 43.3228C57.4623 43.3168 55.2701 42.329 53.686 40.7375C52.102 39.1445 51.1247 36.9462 51.1307 34.5239C51.1336 33.0325 51.5132 31.5978 52.2036 30.3351C52.8955 29.0693 53.8997 27.9725 55.149 27.1655L79.0652 11.2159L79.2714 11.5253L55.3523 27.4763L55.3508 27.4778C54.1538 28.2519 53.1914 29.2995 52.5294 30.5114C51.8689 31.7219 51.5042 33.0967 51.5012 34.5223C51.4953 36.8431 52.4322 38.9472 53.949 40.473C55.4658 41.9972 57.5655 42.9447 59.8862 42.9507C60.8113 42.9522 61.7064 42.8042 62.5433 42.5293C63.404 42.2453 64.205 41.8254 64.9163 41.2964L86.7029 18.6699L86.9719 18.9299Z" fill="#4D43A3"/>
</svg>
