<svg width="93" height="78" viewBox="0 0 93 78" fill="none" xmlns="http://www.w3.org/2000/svg">
<path fill-rule="evenodd" clip-rule="evenodd" d="M36.362 60.803H56.5277L58.1763 77.5642H34.7119L36.362 60.803Z" fill="#266590"/>
<path fill-rule="evenodd" clip-rule="evenodd" d="M46.4451 60.803H56.5272L58.1757 77.5642H46.4451V60.803Z" fill="#0F303F"/>
<path fill-rule="evenodd" clip-rule="evenodd" d="M33.176 75.0325H59.7091C60.3104 75.0325 60.8027 75.5248 60.8027 76.1245V76.9062C60.8027 77.506 60.3104 77.9998 59.7091 77.9998H33.176C32.5748 77.9998 32.084 77.5075 32.084 76.9062V76.1245C32.084 75.5248 32.5748 75.0325 33.176 75.0325Z" fill="#D9F1FD"/>
<path fill-rule="evenodd" clip-rule="evenodd" d="M46.4451 75.0325H59.7109C60.3121 75.0325 60.8044 75.5248 60.8044 76.1245V76.9062C60.8044 77.506 60.3121 77.9998 59.7109 77.9998H46.4451V75.0325Z" fill="#C3E2F4"/>
<path fill-rule="evenodd" clip-rule="evenodd" d="M3.94427 0H88.9457C89.9184 0 90.812 0.356539 91.5028 0.948816C92.3472 1.67238 92.8872 2.74805 92.8872 3.94305V61.3536C92.8872 63.5213 91.1149 65.2951 88.9457 65.2951H3.94427C1.77657 65.2951 0.0012207 63.5213 0.0012207 61.3536V55.3935V3.94455C0.0012207 1.77386 1.77657 0 3.94427 0Z" fill="#0F303F"/>
<path fill-rule="evenodd" clip-rule="evenodd" d="M92.886 56.4304V61.3536C92.886 63.5213 91.1137 65.2952 88.9445 65.2952H3.94305C1.77535 65.2952 0 63.5213 0 61.3536V56.4304H92.886Z" fill="#D9F1FD"/>
<path fill-rule="evenodd" clip-rule="evenodd" d="M92.8858 56.4304V61.3536C92.8858 63.5213 91.1135 65.2952 88.9443 65.2952H46.4451V56.4319L92.8858 56.4304Z" fill="#C3E2F4"/>
<path d="M89.7437 3.49255H3.146V53.6004H89.7437V3.49255Z" fill="#2998CD"/>
<path d="M89.7424 3.49255H46.4451V53.6004H89.7424V3.49255Z" fill="#2178A3"/>
<path fill-rule="evenodd" clip-rule="evenodd" d="M42.2973 58.9263H50.5922C51.4441 58.9263 52.1408 59.623 52.1408 60.4749C52.1408 61.3267 51.4441 62.0249 50.5922 62.0249H42.2973C41.4455 62.0249 40.7488 61.3267 40.7488 60.4749C40.7488 59.623 41.444 58.9263 42.2973 58.9263Z" fill="#266590"/>
<path fill-rule="evenodd" clip-rule="evenodd" d="M46.4451 58.9263H50.591C51.4429 58.9263 52.1396 59.623 52.1396 60.4749C52.1396 61.3267 51.4429 62.0249 50.591 62.0249H46.4451V58.9263Z" fill="#0F303F"/>
<path d="M88.0878 5.5885H4.80054V13.0882H88.0878V5.5885Z" fill="#4CBFF5"/>
<path d="M30.8965 15.9364H4.80054V17.8311H30.8965V15.9364Z" fill="#4CBFF5"/>
<path d="M30.8965 21.6249H4.80054V23.5196H30.8965V21.6249Z" fill="#4CBFF5"/>
<path d="M30.8965 27.3118H4.80054V29.2064H30.8965V27.3118Z" fill="#4CBFF5"/>
<path d="M30.8965 33.0005H4.80054V34.8967H30.8965V33.0005Z" fill="#4CBFF5"/>
<path d="M30.8965 38.6875H4.80054V40.5837H30.8965V38.6875Z" fill="#4CBFF5"/>
<path d="M30.8965 44.376H4.80054V46.2706H30.8965V44.376Z" fill="#4CBFF5"/>
<path d="M30.8965 50.0647H4.80054V51.9594H30.8965V50.0647Z" fill="#4CBFF5"/>
<path d="M88.0882 15.9364H33.363V16.9002H88.0882V15.9364Z" fill="#4CBFF5"/>
<path d="M88.0885 36.3674H33.3633V37.3312H88.0885V36.3674Z" fill="#4CBFF5"/>
<path d="M50.3484 18.8306H33.3633V19.7958H50.3484V18.8306Z" fill="#4CBFF5"/>
<path d="M50.3484 39.2634H33.3633V40.2287H50.3484V39.2634Z" fill="#4CBFF5"/>
<path d="M56.4277 21.7277H33.3633V22.6914H56.4277V21.7277Z" fill="#4CBFF5"/>
<path d="M56.4277 42.1592H33.3633V43.1244H56.4277V42.1592Z" fill="#4CBFF5"/>
<path d="M61.0407 24.6221H33.3633V25.5873H61.0407V24.6221Z" fill="#4CBFF5"/>
<path d="M61.0407 45.0562H33.3633V46.0199H61.0407V45.0562Z" fill="#4CBFF5"/>
<path d="M76.137 27.5193H33.3633V28.4845H76.137V27.5193Z" fill="#4CBFF5"/>
<path d="M76.137 47.9504H33.3633V48.9157H76.137V47.9504Z" fill="#4CBFF5"/>
<path d="M88.0885 30.4148H33.3633V31.3785H88.0885V30.4148Z" fill="#4CBFF5"/>
<path d="M88.0885 50.8462H33.3633V51.8099H88.0885V50.8462Z" fill="#4CBFF5"/>
<path d="M65.6536 33.3093H33.3633V34.2746H65.6536V33.3093Z" fill="#4CBFF5"/>
<path fill-rule="evenodd" clip-rule="evenodd" d="M6.19385 10.6446C6.19385 11.4145 6.71453 11.683 7.29637 11.683H8.34812C8.98367 11.683 9.41932 11.407 9.41932 10.6446V8.03385C9.41932 7.48335 9.13136 6.99548 8.34812 6.99548H7.29637C6.68768 6.99548 6.19385 7.34162 6.19385 8.03385V10.6446ZM6.66826 10.6446V8.03385C6.66826 7.72503 6.84731 7.46989 7.29637 7.46989H8.34812C8.82254 7.46989 8.94341 7.73846 8.94341 8.03385V10.6446C8.94341 10.9908 8.75839 11.2086 8.34812 11.2086H7.29637C6.98904 11.2086 6.66826 11.0743 6.66826 10.6446ZM10.1235 7.8802L11.2021 7.53554V11.6845H11.6765V6.99548H11.2021L10.1235 7.54001V7.8802ZM12.6388 10.6446C12.6388 11.4145 13.1579 11.683 13.7413 11.683H14.7931C15.4271 11.683 15.8642 11.407 15.8642 10.6446V8.03385C15.8642 7.48335 15.5763 6.99548 14.7931 6.99548H13.7413C13.1326 6.99548 12.6388 7.34162 12.6388 8.03385V10.6446ZM13.1117 10.6446V8.03385C13.1117 7.72503 13.2922 7.46989 13.7413 7.46989H14.7931C15.266 7.46989 15.3898 7.73846 15.3898 8.03385V10.6446C15.3898 10.9908 15.2033 11.2086 14.7931 11.2086H13.7413C13.4339 11.2086 13.1117 11.0743 13.1117 10.6446ZM16.5699 7.8802L17.647 7.53554V11.6845H18.1214V6.99548H17.647L16.5699 7.54001V7.8802ZM18.8898 7.8802L19.9684 7.53554V11.6845H20.4428V6.99548H19.9684L18.8898 7.54001V7.8802ZM21.4051 10.6446C21.4051 11.4145 21.9242 11.683 22.5076 11.683H23.5594C24.1949 11.683 24.6305 11.407 24.6305 10.6446V8.03385C24.6305 7.48335 24.3426 6.99548 23.5594 6.99548H22.5076C21.8989 6.99548 21.4051 7.34162 21.4051 8.03385V10.6446ZM21.8795 10.6446V8.03385C21.8795 7.72503 22.0585 7.46989 22.5076 7.46989H23.5594C24.0323 7.46989 24.1546 7.73846 24.1546 8.03385V10.6446C24.1546 10.9908 23.9681 11.2086 23.5594 11.2086H22.5076C22.2002 11.2086 21.8795 11.0743 21.8795 10.6446ZM25.5272 10.6446C25.5272 11.4145 26.0478 11.683 26.6296 11.683H27.6814C28.317 11.683 28.7526 11.407 28.7526 10.6446V8.03385C28.7526 7.48335 28.4647 6.99548 27.6814 6.99548H26.6296C26.0209 6.99548 25.5272 7.34162 25.5272 8.03385V10.6446ZM26.0031 10.6446V8.03385C26.0031 7.72503 26.1821 7.46989 26.6311 7.46989H27.6829C28.1573 7.46989 28.2782 7.73846 28.2782 8.03385V10.6446C28.2782 10.9908 28.0932 11.2086 27.6829 11.2086H26.6311C26.3238 11.2086 26.0031 11.0743 26.0031 10.6446ZM29.6522 10.6446C29.6522 11.4145 30.1714 11.683 30.7547 11.683H31.8065C32.4405 11.683 32.8762 11.407 32.8762 10.6446V8.03385C32.8762 7.48335 32.5882 6.99548 31.8065 6.99548H30.7547C30.146 6.99548 29.6522 7.34162 29.6522 8.03385V10.6446ZM30.1266 10.6446V8.03385C30.1266 7.72503 30.3056 7.46989 30.7562 7.46989H31.808C32.2809 7.46989 32.4047 7.73846 32.4047 8.03385V10.6446C32.4047 10.9908 32.2182 11.2086 31.808 11.2086H30.7562C30.4459 11.2086 30.1266 11.0743 30.1266 10.6446ZM33.5833 7.8802L34.6604 7.53554V11.6845H35.1349V6.99548H34.6604L33.5833 7.54001V7.8802ZM36.0956 10.6446C36.0956 11.4145 36.6163 11.683 37.1981 11.683H38.2499C38.8854 11.683 39.3211 11.407 39.3211 10.6446V8.03385C39.3211 7.48335 39.0331 6.99548 38.2499 6.99548H37.1981C36.5895 6.99548 36.0956 7.34162 36.0956 8.03385V10.6446ZM36.5715 10.6446V8.03385C36.5715 7.72503 36.7505 7.46989 37.1996 7.46989H38.2514C38.7258 7.46989 38.8466 7.73846 38.8466 8.03385V10.6446C38.8466 10.9908 38.6617 11.2086 38.2514 11.2086H37.1996C36.8923 11.2086 36.5715 11.0743 36.5715 10.6446ZM40.0267 7.8802L41.1054 7.53554V11.6845H41.5798V6.99548H41.1054L40.0267 7.54001V7.8802ZM42.5421 10.6446C42.5421 11.4145 43.0612 11.683 43.6445 11.683H44.6963C45.3319 11.683 45.7675 11.407 45.7675 10.6446V8.03385C45.7675 7.48335 45.4796 6.99548 44.6963 6.99548H43.6445C43.0358 6.99548 42.5421 7.34162 42.5421 8.03385V10.6446ZM43.0165 10.6446V8.03385C43.0165 7.72503 43.1955 7.46989 43.6445 7.46989H44.6963C45.1693 7.46989 45.2916 7.73846 45.2916 8.03385V10.6446C45.2916 10.9908 45.1051 11.2086 44.6963 11.2086H43.6445C43.3372 11.2086 43.0165 11.0743 43.0165 10.6446ZM46.6641 10.6446C46.6641 11.4145 47.1848 11.683 47.7666 11.683H48.8184C49.4539 11.683 49.8896 11.407 49.8896 10.6446V8.03385C49.8896 7.48335 49.6016 6.99548 48.8184 6.99548H47.7666C47.1579 6.99548 46.6641 7.34162 46.6641 8.03385V10.6446ZM47.14 10.6446V8.03385C47.14 7.72503 47.319 7.46989 47.7681 7.46989H48.8199C49.2943 7.46989 49.4151 7.73846 49.4151 8.03385V10.6446C49.4151 10.9908 49.2301 11.2086 48.8199 11.2086H47.7681C47.4608 11.2086 47.14 11.0743 47.14 10.6446ZM50.5952 7.8802L51.6739 7.53554V11.6845H52.1483V6.99548H51.6739L50.5952 7.54001V7.8802ZM53.1105 10.6446C53.1105 11.4145 53.6297 11.683 54.213 11.683H55.2648C55.9003 11.683 56.336 11.407 56.336 10.6446V8.03385C56.336 7.48335 56.048 6.99548 55.2648 6.99548H54.213C53.6044 6.99548 53.1105 7.34162 53.1105 8.03385V10.6446ZM53.5849 10.6446V8.03385C53.5849 7.72503 53.764 7.46989 54.213 7.46989H55.2648C55.7377 7.46989 55.8601 7.73846 55.8601 8.03385V10.6446C55.8601 10.9908 55.6736 11.2086 55.2648 11.2086H54.213C53.9057 11.2086 53.5849 11.0743 53.5849 10.6446ZM57.0401 7.8802L58.1173 7.53554V11.6845H58.5917V6.99548H58.1173L57.0401 7.54001V7.8802ZM59.363 7.8802L60.4401 7.53554V11.6845H60.9146V6.99548H60.4401L59.363 7.54001V7.8802ZM61.8768 10.6446C61.8768 11.4145 62.396 11.683 62.9793 11.683H64.0311C64.6666 11.683 65.1023 11.407 65.1023 10.6446V8.03385C65.1023 7.48335 64.8143 6.99548 64.0311 6.99548H62.9793C62.3707 6.99548 61.8768 7.34162 61.8768 8.03385V10.6446ZM62.3512 10.6446V8.03385C62.3512 7.72503 62.5303 7.46989 62.9793 7.46989H64.0311C64.504 7.46989 64.6263 7.73846 64.6263 8.03385V10.6446C64.6263 10.9908 64.4399 11.2086 64.0311 11.2086H62.9793C62.672 11.2086 62.3512 11.0743 62.3512 10.6446ZM65.8064 7.8802L66.8851 7.53554V11.6845H67.358V6.99548H66.8851L65.8064 7.54001V7.8802ZM68.3218 10.6446C68.3218 11.4145 68.8409 11.683 69.4242 11.683H70.476C71.1101 11.683 71.5472 11.407 71.5472 10.6446V8.03385C71.5472 7.48335 71.2578 6.99548 70.476 6.99548H69.4242C68.8156 6.99548 68.3218 7.34162 68.3218 8.03385V10.6446ZM68.7947 10.6446V8.03385C68.7947 7.72503 68.9737 7.46989 69.4242 7.46989H70.476C70.949 7.46989 71.0713 7.73846 71.0713 8.03385V10.6446C71.0713 10.9908 70.8848 11.2086 70.476 11.2086H69.4242C69.1154 11.2086 68.7947 11.0743 68.7947 10.6446ZM72.4453 10.6446C72.4453 11.4145 72.9645 11.683 73.5478 11.683H74.5996C75.2351 11.683 75.6708 11.407 75.6708 10.6446V8.03385C75.6708 7.48335 75.3828 6.99548 74.5996 6.99548H73.5478C72.9391 6.99548 72.4453 7.34162 72.4453 8.03385V10.6446ZM72.9197 10.6446V8.03385C72.9197 7.72503 73.0988 7.46989 73.5478 7.46989H74.5996C75.0725 7.46989 75.1964 7.73846 75.1964 8.03385V10.6446C75.1964 10.9908 75.0098 11.2086 74.5996 11.2086H73.5478C73.2405 11.2086 72.9197 11.0743 72.9197 10.6446ZM76.3764 7.8802L77.4536 7.53554V11.6845H77.928V6.99548H77.4536L76.3764 7.54001V7.8802ZM78.6978 7.8802L79.7749 7.53554V11.6845H80.2493V6.99548H79.7749L78.6978 7.54001V7.8802ZM81.2116 10.6446C81.2116 11.4145 81.7308 11.683 82.3141 11.683H83.3659C84.0014 11.683 84.4371 11.407 84.4371 10.6446V8.03385C84.4371 7.48335 84.1491 6.99548 83.3659 6.99548H82.3141C81.7054 6.99548 81.2116 7.34162 81.2116 8.03385V10.6446ZM81.686 10.6446V8.03385C81.686 7.72503 81.8651 7.46989 82.3141 7.46989H83.3659C83.8388 7.46989 83.9612 7.73846 83.9612 8.03385V10.6446C83.9612 10.9908 83.7746 11.2086 83.3659 11.2086H82.3141C82.0068 11.2086 81.686 11.0743 81.686 10.6446ZM85.1412 7.8802L86.2198 7.53554V11.6845H86.6928V6.99548H86.2198L85.1412 7.54001V7.8802Z" fill="#D9F1FD"/>
</svg>
