<svg width="41" height="41" viewBox="0 0 41 41" fill="none" xmlns="http://www.w3.org/2000/svg">
<path d="M20.5923 0.548279C23.2394 0.548279 25.8605 1.06966 28.3061 2.08264C30.7516 3.09563 32.9737 4.58038 34.8455 6.45213C36.7172 8.32389 38.202 10.546 39.215 12.9915C40.228 15.4371 40.7493 18.0582 40.7493 20.7053C40.7493 26.0513 38.6257 31.1783 34.8455 34.9585C31.0653 38.7386 25.9383 40.8623 20.5923 40.8623C17.9453 40.8623 15.3241 40.3409 12.8786 39.328C10.433 38.315 8.21091 36.8302 6.33916 34.9585C2.55898 31.1783 0.435303 26.0513 0.435303 20.7053C0.435303 15.3593 2.55898 10.2323 6.33916 6.45213C10.1193 2.67196 15.2463 0.548279 20.5923 0.548279ZM16.5609 27.4176C16.8834 28.5061 16.8431 29.5139 16.5609 30.4411C16.5609 30.5419 16.4803 30.6427 16.44 30.7838C16.3997 30.7838 16.3593 30.9249 16.2989 31.0257C16.0772 31.5095 15.7546 31.9731 15.3717 32.3762C14.2025 33.6663 12.5295 34.15 11.8643 33.7469C11.0984 33.3034 11.5217 31.4893 12.852 30.0582C14.3033 28.5262 16.3997 27.5184 16.3997 27.5184L16.5609 27.4176ZM33.2308 9.17548C32.3237 5.58753 26.3774 4.41843 20.7737 6.41397C17.4277 7.60324 13.7994 9.45768 11.1992 11.8967C8.11513 14.7993 7.6112 17.3189 7.81277 18.3671C8.49811 22.076 13.618 24.515 15.7143 26.309V26.3291C15.1096 26.6315 10.5944 28.9092 9.50596 31.2474C8.41748 33.7066 9.70753 35.4804 10.5138 35.7223C13.2149 36.4479 15.9361 35.1377 17.3874 32.9406C18.7983 30.8443 18.6976 28.1231 18.0727 26.7524C18.9193 26.5508 19.907 26.4501 21.1567 26.5911C24.7044 27.0144 25.3897 29.2116 25.2486 30.1388C25.1277 31.066 24.3818 31.5699 24.14 31.7312C23.8981 31.8723 23.8174 31.9328 23.8376 32.0537C23.8578 32.215 23.9787 32.215 24.1803 32.1746C24.4826 32.1142 26.0549 31.4288 26.1153 29.7155C26.196 27.5385 24.1198 25.1197 20.4512 25.1802C18.9394 25.2205 17.9921 25.3616 17.3067 25.6236L17.1455 25.4422C14.8677 23.0234 10.6751 21.31 10.8565 18.0446C10.917 16.8553 11.3201 13.7511 18.9193 9.96161C25.1277 6.85743 30.1064 7.70402 30.9732 9.61894C32.2028 12.2998 28.3125 17.3189 21.8622 18.0446C19.4031 18.3268 18.0929 17.3592 17.7703 17.0166C17.4277 16.6739 17.3874 16.6134 17.2664 16.6739C17.0447 16.815 17.1858 17.1375 17.2664 17.3391C17.4478 17.843 18.2541 18.6896 19.5845 19.1734C20.7737 19.5563 23.6763 19.7781 27.1635 18.4276C31.074 16.9158 34.1378 12.703 33.2308 9.17548Z" fill="#9F62A7"/>
</svg>
