<svg width="96" height="81" viewBox="0 0 96 81" fill="none" xmlns="http://www.w3.org/2000/svg">
<path fill-rule="evenodd" clip-rule="evenodd" d="M37.3243 62.4125H58.0239L59.716 79.6174H35.6306L37.3243 62.4125Z" fill="#266590"/>
<path fill-rule="evenodd" clip-rule="evenodd" d="M47.6748 62.4125H58.0238L59.716 79.6174H47.6748V62.4125Z" fill="#4D43A3"/>
<path fill-rule="evenodd" clip-rule="evenodd" d="M34.0548 77.0186H61.2902C61.9074 77.0186 62.4127 77.5239 62.4127 78.1395V78.9419C62.4127 79.5575 61.9074 80.0644 61.2902 80.0644H34.0548C33.4377 80.0644 32.9338 79.5591 32.9338 78.9419V78.1395C32.9338 77.5239 33.4377 77.0186 34.0548 77.0186Z" fill="#D9F1FD"/>
<path fill-rule="evenodd" clip-rule="evenodd" d="M47.6748 77.0186H61.2917C61.9089 77.0186 62.4142 77.5239 62.4142 78.1395V78.9419C62.4142 79.5575 61.9089 80.0644 61.2917 80.0644H47.6748V77.0186Z" fill="#C3E2F4"/>
<path fill-rule="evenodd" clip-rule="evenodd" d="M4.04888 0H91.3002C92.2987 0 93.216 0.365976 93.925 0.97393C94.7917 1.71664 95.3461 2.82078 95.3461 4.04588V62.9761C95.3461 65.2011 93.5268 67.0219 91.3002 67.0219H4.04888C1.8238 67.0219 0.00146484 65.2011 0.00146484 62.9761V56.8582V4.04588C0.00146484 1.8208 1.8238 0 4.04888 0Z" fill="#4D43A3"/>
<path fill-rule="evenodd" clip-rule="evenodd" d="M95.3446 57.924V62.9775C95.3446 65.2025 93.5254 67.0233 91.2988 67.0233H4.04742C1.82234 67.0233 0 65.2025 0 62.9775V57.924H95.3446Z" fill="#D9F1FD"/>
<path fill-rule="evenodd" clip-rule="evenodd" d="M95.3448 57.924V62.9775C95.3448 65.2025 93.5256 67.0233 91.2989 67.0233H47.6748V57.9254L95.3448 57.924Z" fill="#C3E2F4"/>
<path d="M92.1196 3.58508H3.22974V55.0192H92.1196V3.58508Z" fill="#14B0BF"/>
<path d="M92.1182 3.58508H47.6748V55.0192H92.1182V3.58508Z" fill="#1695A4"/>
<path fill-rule="evenodd" clip-rule="evenodd" d="M43.4175 60.4862H51.9319C52.8063 60.4862 53.5215 61.2014 53.5215 62.0758C53.5215 62.9502 52.8063 63.6669 51.9319 63.6669H43.4175C42.5431 63.6669 41.8264 62.9502 41.8264 62.0758C41.8264 61.2014 42.5416 60.4862 43.4175 60.4862Z" fill="#266590"/>
<path fill-rule="evenodd" clip-rule="evenodd" d="M47.6748 60.4862H51.9305C52.8049 60.4862 53.52 61.2014 53.52 62.0758C53.52 62.9502 52.8049 63.6669 51.9305 63.6669H47.6748V60.4862Z" fill="#4D43A3"/>
<path fill-rule="evenodd" clip-rule="evenodd" d="M32.2997 8.90494L35.462 10.0412C36.1572 10.2908 36.5217 11.0641 36.272 11.7594L35.1404 14.911C36.5768 15.8114 37.8126 16.9477 38.8141 18.2509L41.8447 16.8206C42.5139 16.5051 43.3179 16.7945 43.6333 17.4638L45.0652 20.502C45.3806 21.1712 45.0927 21.9752 44.4235 22.2906L41.3929 23.7194C41.7605 25.3212 41.8524 26.9981 41.6318 28.678L44.7834 29.8081C45.4802 30.0593 45.8431 30.8311 45.5935 31.5279L44.4588 34.6901C44.2091 35.3854 43.4358 35.7499 42.7405 35.5002L39.5875 34.3685C38.6886 35.8065 37.5523 37.0408 36.2491 38.0423L37.6794 41.0714C37.9948 41.7406 37.7054 42.5446 37.0362 42.86L33.998 44.2934C33.3303 44.6088 32.5248 44.3194 32.2093 43.6517L30.779 40.6227C29.1787 40.9902 27.5019 41.0821 25.822 40.8615L24.6903 44.0131C24.4407 44.7084 23.6673 45.0728 22.9721 44.8232L19.8098 43.6885C19.1146 43.4388 18.7501 42.6655 18.9997 41.9703L20.1314 38.8187C18.6935 37.9183 17.4592 36.7805 16.4576 35.4788L13.4271 36.9091C12.7594 37.223 11.9539 36.9351 11.6384 36.2659L10.2051 33.2277C9.89112 32.5585 10.179 31.7545 10.8483 31.439L13.8788 30.0088C13.5113 28.4085 13.4194 26.7316 13.6399 25.0517L10.4884 23.92C9.79311 23.6704 9.42866 22.897 9.67827 22.2018L10.813 19.0395C11.0626 18.3443 11.836 17.9798 12.5312 18.2294L15.6828 19.3596C16.5832 17.9232 17.7195 16.6873 19.0227 15.6874L17.5924 12.6568C17.2785 11.9891 17.5664 11.1836 18.2356 10.8681L21.2738 9.43481C21.943 9.12088 22.747 9.40875 23.0624 10.078L24.4912 13.1085C26.093 12.741 27.7699 12.6491 29.4498 12.8696L30.5815 9.71656C30.8311 9.01979 31.6044 8.65533 32.2997 8.90494ZM29.5279 21.5954C26.6183 20.5495 23.4116 22.0625 22.3657 24.9721C21.3198 27.8832 22.8327 31.0899 25.7439 32.1358C28.6535 33.1817 31.8602 31.6687 32.9061 28.7576C33.952 25.8465 32.4406 22.6398 29.5279 21.5954Z" fill="#D9F1FD"/>
<path fill-rule="evenodd" clip-rule="evenodd" d="M61.8366 9.83598L63.8396 9.8528C64.3189 9.8574 64.7079 10.2525 64.7033 10.7318L64.691 12.1682C65.4904 12.2693 66.2714 12.4332 67.0279 12.6506L67.5869 11.3321C67.7737 10.8895 68.2882 10.6813 68.7293 10.8681L70.5745 11.6506C71.0156 11.8375 71.2238 12.352 71.037 12.7931L70.4781 14.1146C71.1764 14.5143 71.8395 14.9676 72.4643 15.4668L73.4888 14.4607C73.8303 14.1238 74.3861 14.1284 74.7215 14.4714L76.1258 15.9002C76.4627 16.2432 76.4581 16.7976 76.1151 17.1345L75.0906 18.1406C75.576 18.77 76.014 19.4361 76.4014 20.1359L77.7306 19.5969C78.1747 19.4162 78.6862 19.6321 78.8654 20.0778L79.6173 21.9353C79.7964 22.3794 79.5821 22.8909 79.1364 23.0701L77.8103 23.6091C78.017 24.3748 78.1671 25.1634 78.2559 25.9705L79.6923 25.9828C80.1717 25.9873 80.5606 26.3824 80.556 26.8617L80.5377 28.8648C80.5346 29.3456 80.138 29.7331 79.6586 29.7315L78.2253 29.7193C78.1227 30.5171 77.9588 31.2981 77.7414 32.0561L79.0614 32.6136C79.5025 32.8019 79.7107 33.3165 79.5239 33.7575L78.7429 35.6012C78.5561 36.0438 78.0415 36.2521 77.5989 36.0653L76.2789 35.5048C75.8777 36.2031 75.4244 36.8662 74.9252 37.491L75.9328 38.5155C76.2697 38.8585 76.2636 39.4129 75.9221 39.7498L74.4918 41.154C74.1503 41.4909 73.596 41.4848 73.2591 41.1433L72.2514 40.1173C71.6235 40.6027 70.9558 41.0407 70.2575 41.4281L70.7966 42.7573C70.9758 43.203 70.7599 43.7129 70.3142 43.8936L68.4567 44.644C68.0126 44.8247 67.5011 44.6088 67.3219 44.1631L66.7844 42.8354C66.0188 43.0422 65.2285 43.1923 64.423 43.2826L64.4092 44.7175C64.4062 45.1968 64.0096 45.5858 63.5303 45.5812L61.5272 45.5644C61.0464 45.5598 60.6589 45.1631 60.6635 44.6838L60.6758 43.2505C59.8764 43.1494 59.0954 42.9855 58.3389 42.7666L57.78 44.0851C57.5931 44.5276 57.0786 44.7359 56.6376 44.5491L54.7922 43.7665C54.3512 43.5797 54.1429 43.0651 54.3298 42.6241L54.8887 41.3026C54.192 40.9014 53.5273 40.4496 52.9041 39.9504L51.8796 40.9565C51.5366 41.2934 50.9822 41.2888 50.6453 40.9458L49.241 39.517C48.9041 39.1739 48.9087 38.6196 49.2518 38.2827L50.2763 37.2766C49.7908 36.6472 49.3513 35.9811 48.9638 35.2812L47.6346 35.8202C47.1905 36.0009 46.6791 35.785 46.4999 35.3394L45.748 33.4834C45.5688 33.0393 45.7848 32.5278 46.2288 32.3471L47.5566 31.8096C47.3483 31.0439 47.1982 30.2553 47.1094 29.4482L45.676 29.436C45.1952 29.4314 44.8077 29.0348 44.8108 28.557L44.8292 26.5524C44.8338 26.0731 45.2289 25.6841 45.7082 25.6887L47.1446 25.7009C47.2457 24.9031 47.4095 24.1221 47.627 23.3641L46.3069 22.8051C45.8659 22.6183 45.6576 22.1053 45.8445 21.6627L46.6255 19.819C46.8123 19.3764 47.3283 19.1682 47.7694 19.355L49.0894 19.9155C49.4906 19.2172 49.9439 18.5541 50.4432 17.9293L49.4371 16.9048C49.1002 16.5618 49.1047 16.0074 49.4462 15.6705L50.8766 14.2662C51.2181 13.9293 51.7724 13.9354 52.1093 14.2769L53.1169 15.3014C53.7448 14.8175 54.4125 14.3765 55.1108 13.9921L54.5718 12.6614C54.3926 12.2173 54.6085 11.7058 55.0526 11.5266L56.9102 10.7762C57.3543 10.5955 57.8657 10.8115 58.0449 11.2571L58.5824 12.5848C59.3481 12.3765 60.1383 12.228 60.9438 12.1376L60.9575 10.7042C60.9606 10.2203 61.3557 9.83138 61.8366 9.83598ZM62.7585 19.1788C58.048 19.139 54.1966 22.9246 54.1568 27.6351C54.1169 32.344 57.9025 36.1954 62.6114 36.2352C67.3219 36.2751 71.1733 32.491 71.2132 27.779C71.253 23.0716 67.469 19.2202 62.7585 19.1788ZM62.7462 20.5694C58.8044 20.5341 55.5794 23.704 55.5472 27.6473C55.5135 31.5891 58.6819 34.8126 62.6237 34.8463C66.567 34.8815 69.7905 31.7116 69.8242 27.7683C69.8563 23.8266 66.6879 20.6015 62.7462 20.5694ZM62.7707 17.574C57.1751 17.5265 52.5978 22.0241 52.5503 27.6213C52.5029 33.2184 57.0005 37.7942 62.5977 37.8432C68.1933 37.8907 72.7706 33.393 72.818 27.7959C72.8655 22.1972 68.3694 17.6215 62.7707 17.574Z" fill="#B1DAF2"/>
<path d="M28.3917 37.0729H19.9814V80.0646H28.3917V37.0729Z" fill="#4D43A3"/>
<path d="M28.3919 37.0729H24.1868V80.0646H28.3919V37.0729Z" fill="#4D43A3"/>
<path fill-rule="evenodd" clip-rule="evenodd" d="M33.8572 23.8724C36.217 26.8004 36.9108 30.9075 35.3043 34.5951C33.0042 39.8798 26.8558 42.2994 21.5695 39.9977C16.2847 37.6976 13.8667 31.5491 16.1668 26.2629C17.9662 22.1297 22.1208 19.75 26.3734 20.0088L24.0426 21.7331L21.0994 23.9092L21.5128 27.5462L21.9263 31.1832L25.2831 32.6441L28.6383 34.105L31.5816 31.9289L34.5249 29.7513L34.1114 26.1143L33.8572 23.8724Z" fill="#4D43A3"/>
</svg>
