<svg width="122" height="122" viewBox="0 0 122 122" fill="none" xmlns="http://www.w3.org/2000/svg">
<path d="M120.757 18.5991L64.241 119.659C63.0741 121.745 60.0762 121.758 58.8919 119.681L1.25579 18.6085C-0.0347236 16.3461 1.90011 13.6053 4.46422 14.0639L61.0406 24.1761C61.4015 24.241 61.7711 24.2404 62.1318 24.1742L117.525 14.078C120.08 13.6123 122.024 16.332 120.757 18.5991Z" fill="url(#paint0_linear_81_2739)"/>
<path d="M87.992 0.798213L46.1691 8.99341C45.835 9.05903 45.5322 9.23374 45.3081 9.49011C45.0841 9.74648 44.9515 10.07 44.9312 10.4099L42.3587 53.8607C42.3445 54.099 42.3861 54.3373 42.4802 54.5567C42.5742 54.7761 42.7181 54.9706 42.9004 55.1247C43.0828 55.2788 43.2985 55.3883 43.5305 55.4444C43.7626 55.5006 44.0045 55.5019 44.2371 55.4482L55.8813 52.761C56.9707 52.5095 57.9553 53.4692 57.7311 54.5647L54.2717 71.5054C54.0391 72.6455 55.1092 73.6202 56.2225 73.2818L63.4148 71.097C64.5296 70.7586 65.6011 71.7361 65.3652 72.8772L59.8676 99.4869C59.5235 101.152 61.7375 102.059 62.6605 100.632L63.2776 99.6791L97.3573 31.6662C97.9284 30.5275 96.9438 29.229 95.6937 29.4706L83.7073 31.7837C82.5813 32.0009 81.623 30.9519 81.9407 29.8503L89.7637 2.73117C90.0819 1.62676 89.1194 0.577331 87.992 0.798213Z" fill="url(#paint1_linear_81_2739)"/>
<defs>
<linearGradient id="paint0_linear_81_2739" x1="-98.7721" y1="834.445" x2="5996.4" y2="9112.22" gradientUnits="userSpaceOnUse">
<stop stop-color="#41D1FF"/>
<stop offset="1" stop-color="#BD34FE"/>
</linearGradient>
<linearGradient id="paint1_linear_81_2739" x1="2435.31" y1="226.25" x2="3689.2" y2="8827.69" gradientUnits="userSpaceOnUse">
<stop stop-color="#FFEA83"/>
<stop offset="0.08333" stop-color="#FFDD35"/>
<stop offset="1" stop-color="#FFA800"/>
</linearGradient>
</defs>
</svg>
