<svg width="40" height="40" viewBox="0 0 40 40" fill="none" xmlns="http://www.w3.org/2000/svg">
<path d="M29.9325 28.8111V11.1036L18.2978 19.9574M1.27235 14.6139C0.991713 14.3109 0.832482 13.9141 0.825322 13.5001C0.818161 13.086 0.963579 12.6839 1.23357 12.3712L3.56051 10.2066C3.94833 9.85552 4.8985 9.69951 5.59658 10.2066L12.2284 15.2965L27.6055 1.15778C28.2261 0.533726 29.2926 0.280205 30.5142 0.923759L38.2707 4.64858C38.9688 5.05811 39.6281 5.70167 39.6281 6.89127V33.2185C39.6281 33.9986 39.0657 34.8371 38.4646 35.1687L29.9325 39.264C29.312 39.5175 28.1485 39.2835 27.7413 38.874L12.1896 24.6378L5.59658 29.7082C4.85972 30.2153 3.94833 30.0787 3.56051 29.7082L1.23357 27.563C0.613053 26.9195 0.690618 25.8664 1.33053 25.2228L7.14787 19.9574" fill="#6E63C4"/>
</svg>
