<svg width="52" height="11" viewBox="0 0 52 11" fill="none" xmlns="http://www.w3.org/2000/svg">
<g clip-path="url(#clip0_29_2632)">
<path fill-rule="evenodd" clip-rule="evenodd" d="M9.38706 10.4148L5.39328 5.46173L9.13882 1.08227H6.65785L1.31909 7.73888V10.4143H3.32837V7.54768L4.06467 6.67954L6.91403 10.4143L9.38706 10.4148ZM20.0959 10.4148L22.7774 1.07432H20.5204L18.8795 7.81882L17.103 1.07432H15.5341L13.7413 7.81835L12.0845 1.07432H9.83539L12.5328 10.4069H14.6613L16.3022 3.99661L17.951 10.4069H20.0959V10.4148ZM28.0199 10.5817C30.8692 10.5817 32.95 8.56681 32.95 5.75625C32.95 2.94522 30.8772 0.922852 28.0199 0.922852C25.1785 0.922852 23.1056 2.93774 23.1056 5.7483C23.1056 8.55933 25.1785 10.5817 28.0199 10.5817ZM28.0199 8.81411C26.2831 8.81411 25.1705 7.4841 25.1705 5.7483C25.1705 3.99661 26.2831 2.68249 28.0199 2.68249C29.7566 2.68249 30.8851 3.99614 30.8851 5.7483C30.8851 7.4841 29.7571 8.81411 28.0199 8.81411ZM42.1063 10.4148L39.9853 6.86327C41.0016 6.62438 42.0502 5.74035 42.0502 4.09198C42.0502 2.35618 40.8497 1.08227 38.889 1.08227H34.4783V10.4148H36.4871V7.09374H37.9597L39.8091 10.4143L42.1063 10.4148ZM38.5847 5.34252H36.4796V2.82554H38.5847C39.3935 2.82554 39.9933 3.30332 39.9933 4.08356C40.0012 4.87222 39.393 5.34158 38.5847 5.34158V5.34252ZM51.8549 10.4143L47.8532 5.46126L51.5987 1.0818H49.1257L45.7962 5.25416V1.07432H43.787V10.4069H45.7962V7.54019L46.5325 6.67206L49.3819 10.4069H51.8549V10.4143Z" fill="#F4F5F5"/>
<path fill-rule="evenodd" clip-rule="evenodd" d="M3.32842 3.01728L1.31914 5.4459V2.24452H0.430908V1.03418H3.32842V3.01728Z" fill="#F4F5F5"/>
</g>
<defs>
<clipPath id="clip0_29_2632">
<rect width="51.4241" height="10.7523" fill="white" transform="translate(0.430908 0.169922)"/>
</clipPath>
</defs>
</svg>
