<svg width="170" height="27" viewBox="0 0 170 27" fill="none" xmlns="http://www.w3.org/2000/svg">
<path d="M44.1745 10L47.6837 2.20173H49.1097L52.63 10H51.1149L48.0959 2.97041H48.6752L45.6673 10H44.1745ZM45.7898 8.19526L46.1798 7.05894H50.3908L50.7807 8.19526H45.7898ZM53.6699 10V4.05103H55.0625V6.4685H58.0592V4.05103H59.4518V10H58.0592V7.64938H55.0625V10H53.6699ZM65.3954 9.35386V5.23191H63.1117L63.0782 6.18999C63.0634 6.53163 63.0411 6.86212 63.0114 7.18148C62.9817 7.49341 62.9334 7.78306 62.8666 8.05043C62.7997 8.31037 62.7032 8.52575 62.5769 8.69657C62.4507 8.86739 62.2836 8.9788 62.0756 9.03079L60.6942 8.81912C60.917 8.81912 61.0953 8.74856 61.2289 8.60745C61.3701 8.45891 61.4777 8.25839 61.552 8.00587C61.6337 7.74593 61.6931 7.45256 61.7303 7.12578C61.7674 6.79157 61.7934 6.44622 61.8082 6.08972L61.8862 4.05103H66.788V9.35386H65.3954ZM60.4825 11.3257V8.81912H67.6681V11.3257H66.3647V10H61.7748V11.3257H60.4825ZM72.2094 10.078C71.7266 10.078 71.2847 9.96658 70.8837 9.74377C70.49 9.52096 70.1744 9.18675 69.9367 8.74114C69.7065 8.28809 69.5914 7.71622 69.5914 7.02552C69.5914 6.32738 69.7028 5.75551 69.9256 5.3099C70.1558 4.86428 70.4677 4.53378 70.8614 4.3184C71.255 4.09559 71.7043 3.98419 72.2094 3.98419C72.7961 3.98419 73.3123 4.11045 73.7579 4.36296C74.2109 4.61548 74.5674 4.96826 74.8274 5.4213C75.0947 5.87434 75.2284 6.40908 75.2284 7.02552C75.2284 7.64195 75.0947 8.1804 74.8274 8.64087C74.5674 9.09391 74.2109 9.44669 73.7579 9.69921C73.3123 9.95172 72.7961 10.078 72.2094 10.078ZM68.9118 12.1612V4.05103H70.2375V5.45472L70.193 7.03666L70.3044 8.61859V12.1612H68.9118ZM72.0534 8.88596C72.3876 8.88596 72.6847 8.81169 72.9446 8.66315C73.212 8.51461 73.4237 8.29923 73.5796 8.01701C73.7356 7.73479 73.8136 7.40429 73.8136 7.02552C73.8136 6.63932 73.7356 6.30882 73.5796 6.03402C73.4237 5.7518 73.212 5.53642 72.9446 5.38788C72.6847 5.23934 72.3876 5.16507 72.0534 5.16507C71.7192 5.16507 71.4184 5.23934 71.151 5.38788C70.8837 5.53642 70.672 5.7518 70.516 6.03402C70.3601 6.30882 70.2821 6.63932 70.2821 7.02552C70.2821 7.40429 70.3601 7.73479 70.516 8.01701C70.672 8.29923 70.8837 8.51461 71.151 8.66315C71.4184 8.81169 71.7192 8.88596 72.0534 8.88596ZM79.3883 10.078C78.7273 10.078 78.148 9.94801 77.6504 9.68807C77.1602 9.4207 76.7777 9.05678 76.5029 8.59631C76.2356 8.13584 76.1019 7.61224 76.1019 7.02552C76.1019 6.43136 76.2319 5.90776 76.4918 5.45472C76.7592 4.99425 77.1231 4.63405 77.5836 4.3741C78.0515 4.11416 78.5825 3.98419 79.1766 3.98419C79.7559 3.98419 80.2721 4.11045 80.7251 4.36296C81.1782 4.61548 81.5347 4.97197 81.7946 5.43244C82.0546 5.89291 82.1845 6.43507 82.1845 7.05894C82.1845 7.11835 82.1808 7.18519 82.1734 7.25946C82.1734 7.33373 82.1697 7.40429 82.1623 7.47113H77.2048V6.54648H81.427L80.8811 6.83613C80.8885 6.49449 80.818 6.1937 80.6694 5.93376C80.5209 5.67381 80.3167 5.46957 80.0567 5.32104C79.8042 5.1725 79.5108 5.09823 79.1766 5.09823C78.835 5.09823 78.5342 5.1725 78.2743 5.32104C78.0217 5.46957 77.8212 5.67753 77.6727 5.9449C77.5316 6.20484 77.461 6.51306 77.461 6.86955V7.09236C77.461 7.44885 77.5427 7.76449 77.7061 8.03929C77.8695 8.31409 78.0997 8.52575 78.3968 8.67429C78.6939 8.82283 79.0355 8.8971 79.4217 8.8971C79.7559 8.8971 80.0567 8.84511 80.3241 8.74114C80.5915 8.63716 80.8291 8.47377 81.0371 8.25096L81.7835 9.10877C81.5161 9.4207 81.1782 9.66207 80.7697 9.83289C80.3687 9.99629 79.9082 10.078 79.3883 10.078ZM83.7076 10V4.05103H85.1002V7.97245L88.3866 4.05103H89.6566V10H88.2641V6.07858L84.9888 10H83.7076ZM86.593 3.34919C85.9988 3.34919 85.5421 3.21179 85.2227 2.93699C84.9034 2.65477 84.74 2.24629 84.7326 1.71155H85.6572C85.6646 1.97892 85.7463 2.19059 85.9023 2.34655C86.0657 2.50252 86.2922 2.5805 86.5819 2.5805C86.8641 2.5805 87.0869 2.50252 87.2503 2.34655C87.4211 2.19059 87.5102 1.97892 87.5176 1.71155H88.4646C88.4572 2.24629 88.2901 2.65477 87.9633 2.93699C87.6439 3.21179 87.1872 3.34919 86.593 3.34919ZM98.3296 10.1114C97.7354 10.1114 97.1821 10.0149 96.6697 9.82175C96.1646 9.62123 95.7227 9.34272 95.3439 8.98622C94.9726 8.62231 94.683 8.19526 94.475 7.70508C94.267 7.2149 94.1631 6.68016 94.1631 6.10086C94.1631 5.52156 94.267 4.98682 94.475 4.49665C94.683 4.00647 94.9763 3.58313 95.3551 3.22664C95.7339 2.86272 96.1758 2.58421 96.6808 2.39111C97.1858 2.19059 97.7391 2.09032 98.3407 2.09032C98.9794 2.09032 99.5624 2.20173 100.09 2.42453C100.617 2.63992 101.063 2.96299 101.427 3.39375L100.491 4.27384C100.209 3.96934 99.8929 3.74281 99.5439 3.59427C99.1948 3.43831 98.816 3.36033 98.4076 3.36033C97.9991 3.36033 97.624 3.42717 97.2824 3.56085C96.9482 3.69454 96.6548 3.88393 96.4023 4.12901C96.1572 4.3741 95.9641 4.66375 95.823 4.99796C95.6893 5.33218 95.6225 5.69981 95.6225 6.10086C95.6225 6.50192 95.6893 6.86955 95.823 7.20376C95.9641 7.53797 96.1572 7.82762 96.4023 8.07271C96.6548 8.3178 96.9482 8.50719 97.2824 8.64087C97.624 8.77456 97.9991 8.8414 98.4076 8.8414C98.816 8.8414 99.1948 8.76713 99.5439 8.61859C99.8929 8.46263 100.209 8.22868 100.491 7.91675L101.427 8.80798C101.063 9.23131 100.617 9.55438 100.09 9.77719C99.5624 10 98.9757 10.1114 98.3296 10.1114ZM106.312 10V8.79684L106.234 8.54061V6.43507C106.234 6.02659 106.112 5.71095 105.867 5.48814C105.622 5.25791 105.25 5.14279 104.753 5.14279C104.418 5.14279 104.088 5.19478 103.761 5.29876C103.442 5.40273 103.171 5.54756 102.948 5.73323L102.402 4.71945C102.721 4.47437 103.1 4.29241 103.538 4.17358C103.984 4.04732 104.444 3.98419 104.92 3.98419C105.781 3.98419 106.446 4.19214 106.914 4.60805C107.389 5.01653 107.627 5.65153 107.627 6.51306V10H106.312ZM104.441 10.078C103.995 10.078 103.605 10.0037 103.271 9.85517C102.937 9.69921 102.677 9.48754 102.491 9.22017C102.313 8.94538 102.224 8.63716 102.224 8.29552C102.224 7.96131 102.302 7.66052 102.458 7.39315C102.621 7.12578 102.885 6.91411 103.249 6.75815C103.613 6.60218 104.095 6.5242 104.697 6.5242H106.424V7.44885H104.797C104.322 7.44885 104.003 7.52683 103.839 7.6828C103.676 7.83134 103.594 8.01701 103.594 8.23982C103.594 8.49233 103.694 8.69286 103.895 8.8414C104.095 8.98994 104.374 9.06421 104.73 9.06421C105.072 9.06421 105.377 8.98622 105.644 8.83026C105.919 8.67429 106.116 8.44406 106.234 8.13955L106.468 8.97508C106.335 9.32415 106.093 9.59523 105.744 9.78833C105.403 9.98143 104.968 10.078 104.441 10.078ZM109.35 10V4.05103H110.81L113.205 8.27324H112.625L115.143 4.05103H116.447L116.458 10H115.199V5.54384L115.422 5.68867L113.194 9.37614H112.592L110.353 5.58841L110.62 5.52156V10H109.35ZM120.977 10.078C120.368 10.078 119.826 9.94801 119.35 9.68807C118.875 9.4207 118.5 9.05678 118.225 8.59631C117.95 8.13584 117.813 7.61224 117.813 7.02552C117.813 6.43136 117.95 5.90776 118.225 5.45472C118.5 4.99425 118.875 4.63405 119.35 4.3741C119.826 4.11416 120.368 3.98419 120.977 3.98419C121.593 3.98419 122.139 4.11416 122.615 4.3741C123.097 4.63405 123.472 4.99054 123.74 5.44358C124.015 5.89662 124.152 6.42393 124.152 7.02552C124.152 7.61224 124.015 8.13584 123.74 8.59631C123.472 9.05678 123.097 9.4207 122.615 9.68807C122.139 9.94801 121.593 10.078 120.977 10.078ZM120.977 8.88596C121.319 8.88596 121.623 8.81169 121.89 8.66315C122.158 8.51461 122.366 8.29923 122.514 8.01701C122.67 7.73479 122.748 7.40429 122.748 7.02552C122.748 6.63932 122.67 6.30882 122.514 6.03402C122.366 5.7518 122.158 5.53642 121.89 5.38788C121.623 5.23934 121.322 5.16507 120.988 5.16507C120.646 5.16507 120.342 5.23934 120.075 5.38788C119.815 5.53642 119.607 5.7518 119.451 6.03402C119.295 6.30882 119.217 6.63932 119.217 7.02552C119.217 7.40429 119.295 7.73479 119.451 8.01701C119.607 8.29923 119.815 8.51461 120.075 8.66315C120.342 8.81169 120.643 8.88596 120.977 8.88596ZM125.528 10V4.05103H126.92V7.97245L130.207 4.05103H131.477V10H130.084V6.07858L126.809 10H125.528ZM128.413 3.34919C127.819 3.34919 127.362 3.21179 127.043 2.93699C126.723 2.65477 126.56 2.24629 126.553 1.71155H127.477C127.485 1.97892 127.566 2.19059 127.722 2.34655C127.886 2.50252 128.112 2.5805 128.402 2.5805C128.684 2.5805 128.907 2.50252 129.07 2.34655C129.241 2.19059 129.33 1.97892 129.338 1.71155H130.285C130.277 2.24629 130.11 2.65477 129.783 2.93699C129.464 3.21179 129.007 3.34919 128.413 3.34919ZM132.481 9.98886L132.548 8.81912C132.6 8.82655 132.648 8.83397 132.693 8.8414C132.737 8.84883 132.778 8.85254 132.815 8.85254C133.045 8.85254 133.224 8.78198 133.35 8.64087C133.476 8.49976 133.569 8.31037 133.628 8.07271C133.695 7.82762 133.74 7.55654 133.762 7.25946C133.792 6.95496 133.814 6.65046 133.829 6.34595L133.929 4.05103H138.742V10H137.349V4.85314L137.672 5.23191H134.843L135.143 4.842L135.065 6.41279C135.043 6.94011 134.999 7.43028 134.932 7.88333C134.872 8.32894 134.776 8.71886 134.642 9.05307C134.516 9.38728 134.338 9.64722 134.107 9.83289C133.885 10.0186 133.599 10.1114 133.25 10.1114C133.138 10.1114 133.016 10.1003 132.882 10.078C132.756 10.0557 132.622 10.026 132.481 9.98886ZM143.391 10.078C142.73 10.078 142.151 9.94801 141.653 9.68807C141.163 9.4207 140.781 9.05678 140.506 8.59631C140.238 8.13584 140.105 7.61224 140.105 7.02552C140.105 6.43136 140.235 5.90776 140.495 5.45472C140.762 4.99425 141.126 4.63405 141.586 4.3741C142.054 4.11416 142.585 3.98419 143.179 3.98419C143.759 3.98419 144.275 4.11045 144.728 4.36296C145.181 4.61548 145.538 4.97197 145.797 5.43244C146.057 5.89291 146.187 6.43507 146.187 7.05894C146.187 7.11835 146.184 7.18519 146.176 7.25946C146.176 7.33373 146.173 7.40429 146.165 7.47113H141.208V6.54648H145.43L144.884 6.83613C144.891 6.49449 144.821 6.1937 144.672 5.93376C144.524 5.67381 144.32 5.46957 144.06 5.32104C143.807 5.1725 143.514 5.09823 143.179 5.09823C142.838 5.09823 142.537 5.1725 142.277 5.32104C142.025 5.46957 141.824 5.67753 141.676 5.9449C141.534 6.20484 141.464 6.51306 141.464 6.86955V7.09236C141.464 7.44885 141.546 7.76449 141.709 8.03929C141.872 8.31409 142.103 8.52575 142.4 8.67429C142.697 8.82283 143.038 8.8971 143.425 8.8971C143.759 8.8971 144.06 8.84511 144.327 8.74114C144.594 8.63716 144.832 8.47377 145.04 8.25096L145.786 9.10877C145.519 9.4207 145.181 9.66207 144.773 9.83289C144.372 9.99629 143.911 10.078 143.391 10.078ZM147.71 10V4.05103H149.103V6.4685H152.1V4.05103H153.492V10H152.1V7.64938H149.103V10H147.71ZM159.625 10L157.475 7.14806L158.612 6.44622L161.263 10H159.625ZM155.359 10V4.05103H156.751V10H155.359ZM156.339 7.61596V6.45736H158.355V7.61596H156.339ZM158.745 7.19262L157.442 7.03666L159.625 4.05103H161.118L158.745 7.19262ZM164.701 10.078C164.092 10.078 163.55 9.94801 163.074 9.68807C162.599 9.4207 162.224 9.05678 161.949 8.59631C161.674 8.13584 161.537 7.61224 161.537 7.02552C161.537 6.43136 161.674 5.90776 161.949 5.45472C162.224 4.99425 162.599 4.63405 163.074 4.3741C163.55 4.11416 164.092 3.98419 164.701 3.98419C165.317 3.98419 165.863 4.11416 166.338 4.3741C166.821 4.63405 167.196 4.99054 167.464 5.44358C167.738 5.89662 167.876 6.42393 167.876 7.02552C167.876 7.61224 167.738 8.13584 167.464 8.59631C167.196 9.05678 166.821 9.4207 166.338 9.68807C165.863 9.94801 165.317 10.078 164.701 10.078ZM164.701 8.88596C165.042 8.88596 165.347 8.81169 165.614 8.66315C165.882 8.51461 166.09 8.29923 166.238 8.01701C166.394 7.73479 166.472 7.40429 166.472 7.02552C166.472 6.63932 166.394 6.30882 166.238 6.03402C166.09 5.7518 165.882 5.53642 165.614 5.38788C165.347 5.23934 165.046 5.16507 164.712 5.16507C164.37 5.16507 164.066 5.23934 163.798 5.38788C163.538 5.53642 163.331 5.7518 163.175 6.03402C163.019 6.30882 162.941 6.63932 162.941 7.02552C162.941 7.40429 163.019 7.73479 163.175 8.01701C163.331 8.29923 163.538 8.51461 163.798 8.66315C164.066 8.81169 164.367 8.88596 164.701 8.88596Z" fill="#1A112F"/>
<path d="M45.1325 19.7991H48.7392V20.4229H45.1325V19.7991ZM45.2105 23.3181H44.4892V16.4946H49.1681V17.1184H45.2105V23.3181ZM50.4163 23.3181V18.2004H51.0792V19.5944L51.0109 19.3507C51.1539 18.9608 51.3944 18.6651 51.7323 18.4636C52.0702 18.2557 52.4894 18.1517 52.9898 18.1517V18.8243C52.9638 18.8243 52.9378 18.8243 52.9118 18.8243C52.8858 18.8178 52.8598 18.8146 52.8338 18.8146C52.2944 18.8146 51.872 18.9803 51.5666 19.3117C51.2611 19.6366 51.1084 20.1013 51.1084 20.7056V23.3181H50.4163ZM56.2911 23.3668C55.7972 23.3668 55.352 23.2563 54.9556 23.0354C54.5657 22.8079 54.257 22.4992 54.0296 22.1093C53.8021 21.7129 53.6884 21.2613 53.6884 20.7544C53.6884 20.241 53.8021 19.7893 54.0296 19.3994C54.257 19.0095 54.5657 18.7041 54.9556 18.4831C55.3455 18.2622 55.7907 18.1517 56.2911 18.1517C56.798 18.1517 57.2464 18.2622 57.6363 18.4831C58.0327 18.7041 58.3414 19.0095 58.5623 19.3994C58.7898 19.7893 58.9035 20.241 58.9035 20.7544C58.9035 21.2613 58.7898 21.7129 58.5623 22.1093C58.3414 22.4992 58.0327 22.8079 57.6363 23.0354C57.2399 23.2563 56.7915 23.3668 56.2911 23.3668ZM56.2911 22.7527C56.6615 22.7527 56.9897 22.6714 57.2756 22.509C57.5615 22.34 57.7857 22.1061 57.9482 21.8071C58.1172 21.5017 58.2017 21.1508 58.2017 20.7544C58.2017 20.3515 58.1172 20.0005 57.9482 19.7016C57.7857 19.4027 57.5615 19.172 57.2756 19.0095C56.9897 18.8405 56.6647 18.7561 56.3008 18.7561C55.9369 18.7561 55.612 18.8405 55.326 19.0095C55.0401 19.172 54.8127 19.4027 54.6437 19.7016C54.4747 20.0005 54.3902 20.3515 54.3902 20.7544C54.3902 21.1508 54.4747 21.5017 54.6437 21.8071C54.8127 22.1061 55.0401 22.34 55.326 22.509C55.612 22.6714 55.9337 22.7527 56.2911 22.7527ZM62.9289 18.1517C63.3448 18.1517 63.7087 18.2329 64.0207 18.3954C64.3391 18.5514 64.586 18.7918 64.7615 19.1167C64.9435 19.4417 65.0344 19.8511 65.0344 20.345V23.3181H64.3423V20.4132C64.3423 19.8738 64.2059 19.4677 63.9329 19.1947C63.6665 18.9153 63.2896 18.7756 62.8022 18.7756C62.4383 18.7756 62.1198 18.8503 61.8469 18.9998C61.5804 19.1427 61.3725 19.3539 61.223 19.6334C61.0801 19.9063 61.0086 20.2377 61.0086 20.6276V23.3181H60.3165V18.2004H60.9793V19.6041L60.8721 19.3409C61.0346 18.9705 61.2945 18.6813 61.6519 18.4734C62.0094 18.2589 62.435 18.1517 62.9289 18.1517ZM68.522 23.3668C68.0411 23.3668 67.6707 23.2368 67.4108 22.9769C67.1508 22.7169 67.0209 22.3498 67.0209 21.8754V17.0697H67.713V21.8364C67.713 22.1353 67.7877 22.366 67.9372 22.5285C68.0931 22.6909 68.3141 22.7722 68.6 22.7722C68.9054 22.7722 69.1589 22.6844 69.3603 22.509L69.604 23.0061C69.4676 23.1296 69.3019 23.2206 69.1069 23.2791C68.9184 23.3375 68.7235 23.3668 68.522 23.3668ZM66.1046 18.7756V18.2004H69.2726V18.7756H66.1046ZM72.8568 23.3668C72.324 23.3668 71.8561 23.2563 71.4532 23.0354C71.0502 22.8079 70.7351 22.4992 70.5076 22.1093C70.2802 21.7129 70.1664 21.2613 70.1664 20.7544C70.1664 20.2475 70.2737 19.7991 70.4881 19.4092C70.7091 19.0193 71.008 18.7138 71.3849 18.4929C71.7683 18.2654 72.1972 18.1517 72.6716 18.1517C73.1525 18.1517 73.5782 18.2622 73.9486 18.4831C74.3255 18.6976 74.6212 19.003 74.8357 19.3994C75.0501 19.7893 75.1573 20.241 75.1573 20.7544C75.1573 20.7869 75.1541 20.8226 75.1476 20.8616C75.1476 20.8941 75.1476 20.9298 75.1476 20.9688H70.6928V20.4522H74.7772L74.5042 20.6569C74.5042 20.2865 74.423 19.9583 74.2605 19.6724C74.1046 19.3799 73.8901 19.1525 73.6172 18.99C73.3442 18.8275 73.0291 18.7463 72.6716 18.7463C72.3207 18.7463 72.0055 18.8275 71.7261 18.99C71.4467 19.1525 71.229 19.3799 71.073 19.6724C70.917 19.9648 70.839 20.2995 70.839 20.6764V20.7836C70.839 21.1735 70.9235 21.518 71.0925 21.8169C71.2679 22.1093 71.5084 22.34 71.8138 22.509C72.1258 22.6714 72.4799 22.7527 72.8763 22.7527C73.1883 22.7527 73.4775 22.6974 73.7439 22.587C74.0168 22.4765 74.2508 22.3075 74.4457 22.0801L74.8357 22.5285C74.6082 22.8014 74.3223 23.0094 73.9778 23.1523C73.6399 23.2953 73.2663 23.3668 72.8568 23.3668ZM79.1785 18.1517C79.5944 18.1517 79.9583 18.2329 80.2702 18.3954C80.5887 18.5514 80.8356 18.7918 81.0111 19.1167C81.193 19.4417 81.284 19.8511 81.284 20.345V23.3181H80.5919V20.4132C80.5919 19.8738 80.4554 19.4677 80.1825 19.1947C79.9161 18.9153 79.5391 18.7756 79.0518 18.7756C78.6878 18.7756 78.3694 18.8503 78.0965 18.9998C77.83 19.1427 77.6221 19.3539 77.4726 19.6334C77.3296 19.9063 77.2581 20.2377 77.2581 20.6276V23.3181H76.5661V18.2004H77.2289V19.6041L77.1217 19.3409C77.2841 18.9705 77.5441 18.6813 77.9015 18.4734C78.2589 18.2589 78.6846 18.1517 79.1785 18.1517ZM85.1908 23.3668C84.7034 23.3668 84.2647 23.2563 83.8748 23.0354C83.4914 22.8144 83.1892 22.509 82.9683 22.1191C82.7473 21.7227 82.6368 21.2678 82.6368 20.7544C82.6368 20.2345 82.7473 19.7796 82.9683 19.3897C83.1892 18.9998 83.4914 18.6976 83.8748 18.4831C84.2647 18.2622 84.7034 18.1517 85.1908 18.1517C85.6392 18.1517 86.0388 18.2524 86.3897 18.4539C86.7472 18.6553 87.0299 18.951 87.2378 19.3409C87.4523 19.7244 87.5595 20.1955 87.5595 20.7544C87.5595 21.3067 87.4555 21.7779 87.2476 22.1678C87.0396 22.5577 86.7569 22.8567 86.3995 23.0646C86.0486 23.2661 85.6457 23.3668 85.1908 23.3668ZM85.2395 22.7527C85.6034 22.7527 85.9283 22.6714 86.2143 22.509C86.5067 22.34 86.7342 22.1061 86.8966 21.8071C87.0656 21.5017 87.1501 21.1508 87.1501 20.7544C87.1501 20.3515 87.0656 20.0005 86.8966 19.7016C86.7342 19.4027 86.5067 19.172 86.2143 19.0095C85.9283 18.8405 85.6034 18.7561 85.2395 18.7561C84.8821 18.7561 84.5604 18.8405 84.2745 19.0095C83.9885 19.172 83.7611 19.4027 83.5921 19.7016C83.4231 20.0005 83.3387 20.3515 83.3387 20.7544C83.3387 21.1508 83.4231 21.5017 83.5921 21.8071C83.7611 22.1061 83.9885 22.34 84.2745 22.509C84.5604 22.6714 84.8821 22.7527 85.2395 22.7527ZM87.1696 23.3181V21.7779L87.2378 20.7446L87.1403 19.7114V16.0852H87.8324V23.3181H87.1696ZM89.3797 20.9786V20.3742H91.9337V20.9786H89.3797ZM96.1431 23.3668C95.7012 23.3668 95.3016 23.2661 94.9442 23.0646C94.5867 22.8567 94.3008 22.561 94.0864 22.1776C93.8784 21.7876 93.7744 21.3132 93.7744 20.7544C93.7744 20.1955 93.8784 19.7244 94.0864 19.3409C94.2943 18.951 94.577 18.6553 94.9344 18.4539C95.2918 18.2524 95.6947 18.1517 96.1431 18.1517C96.6305 18.1517 97.0659 18.2622 97.4494 18.4831C97.8393 18.6976 98.1447 19.003 98.3657 19.3994C98.5866 19.7893 98.6971 20.241 98.6971 20.7544C98.6971 21.2743 98.5866 21.7292 98.3657 22.1191C98.1447 22.509 97.8393 22.8144 97.4494 23.0354C97.0659 23.2563 96.6305 23.3668 96.1431 23.3668ZM93.5015 25.2091V18.2004H94.1643V19.7406L94.0961 20.7641L94.1936 21.7974V25.2091H93.5015ZM96.0944 22.7527C96.4583 22.7527 96.7833 22.6714 97.0692 22.509C97.3551 22.34 97.5826 22.1061 97.7515 21.8071C97.9205 21.5017 98.005 21.1508 98.005 20.7544C98.005 20.358 97.9205 20.0103 97.7515 19.7114C97.5826 19.4124 97.3551 19.1785 97.0692 19.0095C96.7833 18.8405 96.4583 18.7561 96.0944 18.7561C95.7305 18.7561 95.4023 18.8405 95.1099 19.0095C94.8239 19.1785 94.5965 19.4124 94.4275 19.7114C94.2651 20.0103 94.1838 20.358 94.1838 20.7544C94.1838 21.1508 94.2651 21.5017 94.4275 21.8071C94.5965 22.1061 94.8239 22.34 95.1099 22.509C95.4023 22.6714 95.7305 22.7527 96.0944 22.7527ZM103.333 23.3181V22.1873L103.304 22.0021V20.111C103.304 19.6756 103.181 19.3409 102.934 19.107C102.693 18.873 102.333 18.7561 101.852 18.7561C101.52 18.7561 101.205 18.8113 100.906 18.9218C100.607 19.0323 100.354 19.1785 100.146 19.3604L99.8338 18.8438C100.094 18.6228 100.406 18.4539 100.77 18.3369C101.134 18.2134 101.517 18.1517 101.92 18.1517C102.583 18.1517 103.093 18.3174 103.45 18.6488C103.814 18.9738 103.996 19.4709 103.996 20.1403V23.3181H103.333ZM101.569 23.3668C101.186 23.3668 100.851 23.3051 100.565 23.1816C100.285 23.0516 100.071 22.8762 99.9216 22.6552C99.7721 22.4278 99.6974 22.1678 99.6974 21.8754C99.6974 21.6089 99.7591 21.3685 99.8826 21.154C100.013 20.9331 100.221 20.7576 100.506 20.6276C100.799 20.4912 101.189 20.4229 101.676 20.4229H103.441V20.9396H101.696C101.202 20.9396 100.857 21.0273 100.662 21.2028C100.474 21.3782 100.38 21.5959 100.38 21.8559C100.38 22.1483 100.493 22.3823 100.721 22.5577C100.948 22.7332 101.267 22.8209 101.676 22.8209C102.066 22.8209 102.401 22.7332 102.68 22.5577C102.966 22.3758 103.174 22.1158 103.304 21.7779L103.46 22.2555C103.33 22.5935 103.103 22.8632 102.778 23.0646C102.459 23.2661 102.056 23.3668 101.569 23.3668ZM107.108 23.3765C106.738 23.3765 106.371 23.3246 106.007 23.2206C105.643 23.1166 105.321 22.9574 105.042 22.7429L105.266 22.2263C105.513 22.4083 105.799 22.548 106.124 22.6455C106.449 22.7364 106.77 22.7819 107.089 22.7819C107.407 22.7754 107.683 22.7299 107.917 22.6455C108.151 22.561 108.333 22.444 108.463 22.2945C108.593 22.1451 108.658 21.9761 108.658 21.7876C108.658 21.5147 108.535 21.3035 108.288 21.154C108.041 20.9981 107.703 20.9201 107.274 20.9201H106.397V20.4132H107.225C107.479 20.4132 107.703 20.3807 107.898 20.3157C108.093 20.2507 108.242 20.1565 108.346 20.033C108.457 19.9096 108.512 19.7633 108.512 19.5944C108.512 19.4124 108.447 19.2565 108.317 19.1265C108.194 18.9965 108.021 18.899 107.8 18.834C107.579 18.7691 107.329 18.7366 107.05 18.7366C106.796 18.7431 106.533 18.7821 106.26 18.8535C105.987 18.9185 105.718 19.0193 105.451 19.1557L105.256 18.6196C105.555 18.4636 105.851 18.3467 106.143 18.2687C106.442 18.1842 106.741 18.142 107.04 18.142C107.449 18.129 107.817 18.1777 108.142 18.2882C108.473 18.3986 108.736 18.5579 108.931 18.7658C109.126 18.9673 109.224 19.211 109.224 19.4969C109.224 19.7503 109.146 19.9713 108.99 20.1598C108.834 20.3482 108.626 20.4944 108.366 20.5984C108.106 20.7024 107.81 20.7544 107.479 20.7544L107.508 20.5692C108.093 20.5692 108.548 20.6829 108.873 20.9103C109.204 21.1378 109.37 21.4465 109.37 21.8364C109.37 22.1418 109.269 22.4115 109.068 22.6455C108.866 22.8729 108.593 23.0516 108.249 23.1816C107.911 23.3116 107.531 23.3765 107.108 23.3765ZM113.583 23.3668C113.141 23.3668 112.741 23.2661 112.384 23.0646C112.026 22.8567 111.74 22.561 111.526 22.1776C111.318 21.7876 111.214 21.3132 111.214 20.7544C111.214 20.1955 111.318 19.7244 111.526 19.3409C111.734 18.951 112.016 18.6553 112.374 18.4539C112.731 18.2524 113.134 18.1517 113.583 18.1517C114.07 18.1517 114.505 18.2622 114.889 18.4831C115.279 18.6976 115.584 19.003 115.805 19.3994C116.026 19.7893 116.137 20.241 116.137 20.7544C116.137 21.2743 116.026 21.7292 115.805 22.1191C115.584 22.509 115.279 22.8144 114.889 23.0354C114.505 23.2563 114.07 23.3668 113.583 23.3668ZM110.941 25.2091V18.2004H111.604V19.7406L111.536 20.7641L111.633 21.7974V25.2091H110.941ZM113.534 22.7527C113.898 22.7527 114.223 22.6714 114.509 22.509C114.795 22.34 115.022 22.1061 115.191 21.8071C115.36 21.5017 115.444 21.1508 115.444 20.7544C115.444 20.358 115.36 20.0103 115.191 19.7114C115.022 19.4124 114.795 19.1785 114.509 19.0095C114.223 18.8405 113.898 18.7561 113.534 18.7561C113.17 18.7561 112.842 18.8405 112.549 19.0095C112.263 19.1785 112.036 19.4124 111.867 19.7114C111.705 20.0103 111.623 20.358 111.623 20.7544C111.623 21.1508 111.705 21.5017 111.867 21.8071C112.036 22.1061 112.263 22.34 112.549 22.509C112.842 22.6714 113.17 22.7527 113.534 22.7527ZM120.773 23.3181V22.1873L120.744 22.0021V20.111C120.744 19.6756 120.62 19.3409 120.373 19.107C120.133 18.873 119.772 18.7561 119.291 18.7561C118.96 18.7561 118.645 18.8113 118.346 18.9218C118.047 19.0323 117.793 19.1785 117.585 19.3604L117.273 18.8438C117.533 18.6228 117.845 18.4539 118.209 18.3369C118.573 18.2134 118.956 18.1517 119.359 18.1517C120.022 18.1517 120.532 18.3174 120.89 18.6488C121.254 18.9738 121.436 19.4709 121.436 20.1403V23.3181H120.773ZM119.008 23.3668C118.625 23.3668 118.29 23.3051 118.004 23.1816C117.725 23.0516 117.511 22.8762 117.361 22.6552C117.212 22.4278 117.137 22.1678 117.137 21.8754C117.137 21.6089 117.199 21.3685 117.322 21.154C117.452 20.9331 117.66 20.7576 117.946 20.6276C118.238 20.4912 118.628 20.4229 119.116 20.4229H120.88V20.9396H119.135C118.641 20.9396 118.297 21.0273 118.102 21.2028C117.913 21.3782 117.819 21.5959 117.819 21.8559C117.819 22.1483 117.933 22.3823 118.16 22.5577C118.388 22.7332 118.706 22.8209 119.116 22.8209C119.506 22.8209 119.84 22.7332 120.12 22.5577C120.406 22.3758 120.614 22.1158 120.744 21.7779L120.9 22.2555C120.77 22.5935 120.542 22.8632 120.217 23.0646C119.899 23.2661 119.496 23.3668 119.008 23.3668ZM125.579 23.3765C125.163 23.3765 124.792 23.3083 124.467 23.1718C124.149 23.0354 123.876 22.8274 123.649 22.548C123.421 22.2685 123.249 21.9241 123.132 21.5147C123.015 21.0988 122.956 20.6179 122.956 20.072C122.956 19.5846 123.002 19.159 123.093 18.7951C123.184 18.4246 123.311 18.1062 123.473 17.8398C123.636 17.5733 123.824 17.3491 124.038 17.1672C124.259 16.9787 124.497 16.8292 124.75 16.7188C125.01 16.6018 125.276 16.5141 125.549 16.4556L127.85 15.9194L127.967 16.5628L125.803 17.0502C125.666 17.0827 125.501 17.1282 125.306 17.1867C125.117 17.2451 124.922 17.3329 124.721 17.4499C124.526 17.5668 124.344 17.7293 124.175 17.9372C124.006 18.1452 123.869 18.4149 123.765 18.7463C123.668 19.0712 123.619 19.4774 123.619 19.9648C123.619 20.0688 123.623 20.1533 123.629 20.2182C123.636 20.2767 123.642 20.3417 123.649 20.4132C123.662 20.4782 123.671 20.5757 123.678 20.7056L123.376 20.4522C123.447 20.0558 123.593 19.7114 123.814 19.4189C124.035 19.12 124.311 18.8893 124.643 18.7268C124.981 18.5579 125.354 18.4734 125.764 18.4734C126.238 18.4734 126.661 18.5774 127.031 18.7853C127.401 18.9868 127.691 19.2695 127.899 19.6334C128.113 19.9973 128.22 20.4197 128.22 20.9006C128.22 21.375 128.11 21.8006 127.889 22.1776C127.674 22.5545 127.369 22.8502 126.973 23.0646C126.576 23.2726 126.111 23.3765 125.579 23.3765ZM125.657 22.8014C126.02 22.8014 126.342 22.7202 126.622 22.5577C126.901 22.3888 127.119 22.1613 127.275 21.8754C127.437 21.5894 127.518 21.2678 127.518 20.9103C127.518 20.5594 127.437 20.2475 127.275 19.9745C127.119 19.7016 126.901 19.4872 126.622 19.3312C126.342 19.1687 126.017 19.0875 125.647 19.0875C125.283 19.0875 124.961 19.1655 124.682 19.3214C124.402 19.4709 124.181 19.6821 124.019 19.955C123.863 20.228 123.785 20.5432 123.785 20.9006C123.785 21.258 123.863 21.5797 124.019 21.8656C124.181 22.1516 124.402 22.379 124.682 22.548C124.968 22.7169 125.293 22.8014 125.657 22.8014ZM131.809 23.3668C131.315 23.3668 130.87 23.2563 130.474 23.0354C130.084 22.8079 129.775 22.4992 129.548 22.1093C129.32 21.7129 129.207 21.2613 129.207 20.7544C129.207 20.241 129.32 19.7893 129.548 19.3994C129.775 19.0095 130.084 18.7041 130.474 18.4831C130.864 18.2622 131.309 18.1517 131.809 18.1517C132.316 18.1517 132.764 18.2622 133.154 18.4831C133.551 18.7041 133.859 19.0095 134.08 19.3994C134.308 19.7893 134.422 20.241 134.422 20.7544C134.422 21.2613 134.308 21.7129 134.08 22.1093C133.859 22.4992 133.551 22.8079 133.154 23.0354C132.758 23.2563 132.31 23.3668 131.809 23.3668ZM131.809 22.7527C132.18 22.7527 132.508 22.6714 132.794 22.509C133.08 22.34 133.304 22.1061 133.466 21.8071C133.635 21.5017 133.72 21.1508 133.72 20.7544C133.72 20.3515 133.635 20.0005 133.466 19.7016C133.304 19.4027 133.08 19.172 132.794 19.0095C132.508 18.8405 132.183 18.7561 131.819 18.7561C131.455 18.7561 131.13 18.8405 130.844 19.0095C130.558 19.172 130.331 19.4027 130.162 19.7016C129.993 20.0005 129.908 20.3515 129.908 20.7544C129.908 21.1508 129.993 21.5017 130.162 21.8071C130.331 22.1061 130.558 22.34 130.844 22.509C131.13 22.6714 131.452 22.7527 131.809 22.7527ZM136.685 23.3181V18.6196L136.861 18.8048H134.745V18.2004H139.317V18.8048H137.202L137.377 18.6196V23.3181H136.685ZM143.554 21.154C143.255 21.284 142.953 21.388 142.648 21.466C142.349 21.5374 142.05 21.5732 141.751 21.5732C141.146 21.5732 140.669 21.4367 140.318 21.1638C139.967 20.8843 139.791 20.4554 139.791 19.8771V18.2004H140.474V19.8381C140.474 20.228 140.6 20.5204 140.854 20.7154C141.107 20.9103 141.449 21.0078 141.877 21.0078C142.137 21.0078 142.41 20.9753 142.696 20.9103C142.982 20.8389 143.271 20.7381 143.564 20.6082L143.554 21.154ZM143.496 23.3181V18.2004H144.188V23.3181H143.496ZM146.153 23.3181V18.2004H146.845V22.2653L150.267 18.2004H150.881V23.3181H150.189V19.2435L146.777 23.3181H146.153ZM156.617 23.3181L154.512 20.7836L155.087 20.4424L157.436 23.3181H156.617ZM152.864 23.3181V18.2004H153.556V23.3181H152.864ZM153.342 21.0371V20.4424H154.989V21.0371H153.342ZM155.145 20.8324L154.502 20.7349L156.539 18.2004H157.29L155.145 20.8324Z" fill="#9990AE"/>
<path d="M27.9622 0.431593C29.3482 -0.542645 31.3065 0.440077 31.3069 2.17964V10.4804H33.4993C34.5366 10.4805 35.3782 11.322 35.3782 12.3593C35.3779 13.3963 34.5363 14.237 33.4993 14.2373H31.3069V23.9423C31.3068 25.118 30.3537 26.0712 29.178 26.0712H13.8792C11.8525 26.0709 10.9719 23.5061 12.5716 22.2617L20.4485 16.1357C21.2672 15.4989 22.4472 15.6464 23.0843 16.4648C23.7211 17.2836 23.5739 18.4636 22.7552 19.1005L18.6233 22.3144H27.5501V14.2373H17.011L3.06765 25.6464C2.26473 26.3033 1.08103 26.1847 0.4241 25.3818C-0.232128 24.5789 -0.113746 23.396 0.688748 22.7392L11.0803 14.2373H5.01004C3.97262 14.2373 3.13115 13.3958 3.13113 12.3584C3.13137 11.3213 3.97196 10.4806 5.00906 10.4804H15.6712L27.8303 0.532179L27.9622 0.431593ZM21.6028 10.4804H27.5501V5.61421L21.6028 10.4804Z" fill="#FF6B52"/>
</svg>
