<svg width="170" height="27" viewBox="0 0 170 27" fill="none" xmlns="http://www.w3.org/2000/svg">
<path d="M44.174 10L47.6832 2.20173H49.1092L52.6296 10H51.1145L48.0954 2.97041H48.6747L45.6668 10H44.174ZM45.7894 8.19526L46.1793 7.05894H50.3903L50.7802 8.19526H45.7894ZM53.6694 10V4.05103H55.062V6.4685H58.0588V4.05103H59.4513V10H58.0588V7.64938H55.062V10H53.6694ZM65.395 9.35386V5.23191H63.1112L63.0778 6.18999C63.0629 6.53163 63.0406 6.86212 63.0109 7.18148C62.9812 7.49341 62.9329 7.78306 62.8661 8.05043C62.7992 8.31037 62.7027 8.52575 62.5764 8.69657C62.4502 8.86739 62.2831 8.9788 62.0751 9.03079L60.6937 8.81912C60.9165 8.81912 61.0948 8.74856 61.2285 8.60745C61.3696 8.45891 61.4773 8.25839 61.5515 8.00587C61.6332 7.74593 61.6926 7.45256 61.7298 7.12578C61.7669 6.79157 61.7929 6.44622 61.8078 6.08972L61.8857 4.05103H66.7875V9.35386H65.395ZM60.482 11.3257V8.81912H67.6676V11.3257H66.3642V10H61.7743V11.3257H60.482ZM72.2089 10.078C71.7261 10.078 71.2842 9.96658 70.8832 9.74377C70.4895 9.52096 70.1739 9.18675 69.9362 8.74114C69.706 8.28809 69.5909 7.71622 69.5909 7.02552C69.5909 6.32738 69.7023 5.75551 69.9251 5.3099C70.1553 4.86428 70.4673 4.53378 70.8609 4.3184C71.2545 4.09559 71.7038 3.98419 72.2089 3.98419C72.7956 3.98419 73.3118 4.11045 73.7574 4.36296C74.2104 4.61548 74.5669 4.96826 74.8269 5.4213C75.0942 5.87434 75.2279 6.40908 75.2279 7.02552C75.2279 7.64195 75.0942 8.1804 74.8269 8.64087C74.5669 9.09391 74.2104 9.44669 73.7574 9.69921C73.3118 9.95172 72.7956 10.078 72.2089 10.078ZM68.9113 12.1612V4.05103H70.237V5.45472L70.1925 7.03666L70.3039 8.61859V12.1612H68.9113ZM72.0529 8.88596C72.3871 8.88596 72.6842 8.81169 72.9441 8.66315C73.2115 8.51461 73.4232 8.29923 73.5791 8.01701C73.7351 7.73479 73.8131 7.40429 73.8131 7.02552C73.8131 6.63932 73.7351 6.30882 73.5791 6.03402C73.4232 5.7518 73.2115 5.53642 72.9441 5.38788C72.6842 5.23934 72.3871 5.16507 72.0529 5.16507C71.7187 5.16507 71.4179 5.23934 71.1505 5.38788C70.8832 5.53642 70.6715 5.7518 70.5155 6.03402C70.3596 6.30882 70.2816 6.63932 70.2816 7.02552C70.2816 7.40429 70.3596 7.73479 70.5155 8.01701C70.6715 8.29923 70.8832 8.51461 71.1505 8.66315C71.4179 8.81169 71.7187 8.88596 72.0529 8.88596ZM79.3878 10.078C78.7268 10.078 78.1475 9.94801 77.6499 9.68807C77.1597 9.4207 76.7772 9.05678 76.5024 8.59631C76.2351 8.13584 76.1014 7.61224 76.1014 7.02552C76.1014 6.43136 76.2314 5.90776 76.4913 5.45472C76.7587 4.99425 77.1226 4.63405 77.5831 4.3741C78.051 4.11416 78.582 3.98419 79.1761 3.98419C79.7554 3.98419 80.2716 4.11045 80.7247 4.36296C81.1777 4.61548 81.5342 4.97197 81.7941 5.43244C82.0541 5.89291 82.184 6.43507 82.184 7.05894C82.184 7.11835 82.1803 7.18519 82.1729 7.25946C82.1729 7.33373 82.1692 7.40429 82.1618 7.47113H77.2043V6.54648H81.4265L80.8806 6.83613C80.888 6.49449 80.8175 6.1937 80.669 5.93376C80.5204 5.67381 80.3162 5.46957 80.0562 5.32104C79.8037 5.1725 79.5104 5.09823 79.1761 5.09823C78.8345 5.09823 78.5337 5.1725 78.2738 5.32104C78.0213 5.46957 77.8207 5.67753 77.6722 5.9449C77.5311 6.20484 77.4605 6.51306 77.4605 6.86955V7.09236C77.4605 7.44885 77.5422 7.76449 77.7056 8.03929C77.869 8.31409 78.0992 8.52575 78.3963 8.67429C78.6934 8.82283 79.035 8.8971 79.4212 8.8971C79.7554 8.8971 80.0562 8.84511 80.3236 8.74114C80.591 8.63716 80.8286 8.47377 81.0366 8.25096L81.783 9.10877C81.5156 9.4207 81.1777 9.66207 80.7692 9.83289C80.3682 9.99629 79.9077 10.078 79.3878 10.078ZM83.7071 10V4.05103H85.0997V7.97245L88.3861 4.05103H89.6561V10H88.2636V6.07858L84.9883 10H83.7071ZM86.5925 3.34919C85.9984 3.34919 85.5416 3.21179 85.2222 2.93699C84.9029 2.65477 84.7395 2.24629 84.7321 1.71155H85.6567C85.6641 1.97892 85.7458 2.19059 85.9018 2.34655C86.0652 2.50252 86.2917 2.5805 86.5814 2.5805C86.8636 2.5805 87.0864 2.50252 87.2498 2.34655C87.4206 2.19059 87.5097 1.97892 87.5172 1.71155H88.4641C88.4567 2.24629 88.2896 2.65477 87.9628 2.93699C87.6434 3.21179 87.1867 3.34919 86.5925 3.34919ZM98.3291 10.1114C97.7349 10.1114 97.1816 10.0149 96.6692 9.82175C96.1641 9.62123 95.7222 9.34272 95.3435 8.98622C94.9721 8.62231 94.6825 8.19526 94.4745 7.70508C94.2666 7.2149 94.1626 6.68016 94.1626 6.10086C94.1626 5.52156 94.2666 4.98682 94.4745 4.49665C94.6825 4.00647 94.9758 3.58313 95.3546 3.22664C95.7334 2.86272 96.1753 2.58421 96.6803 2.39111C97.1853 2.19059 97.7386 2.09032 98.3402 2.09032C98.9789 2.09032 99.562 2.20173 100.089 2.42453C100.617 2.63992 101.062 2.96299 101.426 3.39375L100.49 4.27384C100.208 3.96934 99.8925 3.74281 99.5434 3.59427C99.1943 3.43831 98.8155 3.36033 98.4071 3.36033C97.9986 3.36033 97.6235 3.42717 97.2819 3.56085C96.9477 3.69454 96.6543 3.88393 96.4018 4.12901C96.1567 4.3741 95.9636 4.66375 95.8225 4.99796C95.6888 5.33218 95.622 5.69981 95.622 6.10086C95.622 6.50192 95.6888 6.86955 95.8225 7.20376C95.9636 7.53797 96.1567 7.82762 96.4018 8.07271C96.6543 8.3178 96.9477 8.50719 97.2819 8.64087C97.6235 8.77456 97.9986 8.8414 98.4071 8.8414C98.8155 8.8414 99.1943 8.76713 99.5434 8.61859C99.8925 8.46263 100.208 8.22868 100.49 7.91675L101.426 8.80798C101.062 9.23131 100.617 9.55438 100.089 9.77719C99.562 10 98.9752 10.1114 98.3291 10.1114ZM106.312 10V8.79684L106.234 8.54061V6.43507C106.234 6.02659 106.111 5.71095 105.866 5.48814C105.621 5.25791 105.25 5.14279 104.752 5.14279C104.418 5.14279 104.088 5.19478 103.761 5.29876C103.441 5.40273 103.17 5.54756 102.947 5.73323L102.402 4.71945C102.721 4.47437 103.1 4.29241 103.538 4.17358C103.984 4.04732 104.444 3.98419 104.919 3.98419C105.781 3.98419 106.446 4.19214 106.913 4.60805C107.389 5.01653 107.626 5.65153 107.626 6.51306V10H106.312ZM104.44 10.078C103.995 10.078 103.605 10.0037 103.271 9.85517C102.936 9.69921 102.676 9.48754 102.491 9.22017C102.312 8.94538 102.223 8.63716 102.223 8.29552C102.223 7.96131 102.301 7.66052 102.457 7.39315C102.621 7.12578 102.884 6.91411 103.248 6.75815C103.612 6.60218 104.095 6.5242 104.697 6.5242H106.423V7.44885H104.797C104.321 7.44885 104.002 7.52683 103.839 7.6828C103.675 7.83134 103.594 8.01701 103.594 8.23982C103.594 8.49233 103.694 8.69286 103.894 8.8414C104.095 8.98994 104.373 9.06421 104.73 9.06421C105.072 9.06421 105.376 8.98622 105.643 8.83026C105.918 8.67429 106.115 8.44406 106.234 8.13955L106.468 8.97508C106.334 9.32415 106.093 9.59523 105.744 9.78833C105.402 9.98143 104.968 10.078 104.44 10.078ZM109.35 10V4.05103H110.809L113.204 8.27324H112.625L115.143 4.05103H116.446L116.457 10H115.198V5.54384L115.421 5.68867L113.193 9.37614H112.591L110.352 5.58841L110.62 5.52156V10H109.35ZM120.976 10.078C120.367 10.078 119.825 9.94801 119.35 9.68807C118.875 9.4207 118.5 9.05678 118.225 8.59631C117.95 8.13584 117.813 7.61224 117.813 7.02552C117.813 6.43136 117.95 5.90776 118.225 5.45472C118.5 4.99425 118.875 4.63405 119.35 4.3741C119.825 4.11416 120.367 3.98419 120.976 3.98419C121.593 3.98419 122.139 4.11416 122.614 4.3741C123.097 4.63405 123.472 4.99054 123.739 5.44358C124.014 5.89662 124.151 6.42393 124.151 7.02552C124.151 7.61224 124.014 8.13584 123.739 8.59631C123.472 9.05678 123.097 9.4207 122.614 9.68807C122.139 9.94801 121.593 10.078 120.976 10.078ZM120.976 8.88596C121.318 8.88596 121.623 8.81169 121.89 8.66315C122.157 8.51461 122.365 8.29923 122.514 8.01701C122.67 7.73479 122.748 7.40429 122.748 7.02552C122.748 6.63932 122.67 6.30882 122.514 6.03402C122.365 5.7518 122.157 5.53642 121.89 5.38788C121.623 5.23934 121.322 5.16507 120.988 5.16507C120.646 5.16507 120.341 5.23934 120.074 5.38788C119.814 5.53642 119.606 5.7518 119.45 6.03402C119.294 6.30882 119.216 6.63932 119.216 7.02552C119.216 7.40429 119.294 7.73479 119.45 8.01701C119.606 8.29923 119.814 8.51461 120.074 8.66315C120.341 8.81169 120.642 8.88596 120.976 8.88596ZM125.527 10V4.05103H126.92V7.97245L130.206 4.05103H131.476V10H130.084V6.07858L126.808 10H125.527ZM128.412 3.34919C127.818 3.34919 127.362 3.21179 127.042 2.93699C126.723 2.65477 126.559 2.24629 126.552 1.71155H127.477C127.484 1.97892 127.566 2.19059 127.722 2.34655C127.885 2.50252 128.112 2.5805 128.401 2.5805C128.684 2.5805 128.906 2.50252 129.07 2.34655C129.241 2.19059 129.33 1.97892 129.337 1.71155H130.284C130.277 2.24629 130.11 2.65477 129.783 2.93699C129.463 3.21179 129.007 3.34919 128.412 3.34919ZM132.48 9.98886L132.547 8.81912C132.599 8.82655 132.647 8.83397 132.692 8.8414C132.737 8.84883 132.777 8.85254 132.815 8.85254C133.045 8.85254 133.223 8.78198 133.349 8.64087C133.476 8.49976 133.568 8.31037 133.628 8.07271C133.695 7.82762 133.739 7.55654 133.762 7.25946C133.791 6.95496 133.814 6.65046 133.828 6.34595L133.929 4.05103H138.741V10H137.349V4.85314L137.672 5.23191H134.842L135.143 4.842L135.065 6.41279C135.043 6.94011 134.998 7.43028 134.931 7.88333C134.872 8.32894 134.775 8.71886 134.642 9.05307C134.515 9.38728 134.337 9.64722 134.107 9.83289C133.884 10.0186 133.598 10.1114 133.249 10.1114C133.138 10.1114 133.015 10.1003 132.881 10.078C132.755 10.0557 132.621 10.026 132.48 9.98886ZM143.391 10.078C142.73 10.078 142.15 9.94801 141.653 9.68807C141.163 9.4207 140.78 9.05678 140.505 8.59631C140.238 8.13584 140.104 7.61224 140.104 7.02552C140.104 6.43136 140.234 5.90776 140.494 5.45472C140.762 4.99425 141.125 4.63405 141.586 4.3741C142.054 4.11416 142.585 3.98419 143.179 3.98419C143.758 3.98419 144.274 4.11045 144.728 4.36296C145.181 4.61548 145.537 4.97197 145.797 5.43244C146.057 5.89291 146.187 6.43507 146.187 7.05894C146.187 7.11835 146.183 7.18519 146.176 7.25946C146.176 7.33373 146.172 7.40429 146.165 7.47113H141.207V6.54648H145.429L144.883 6.83613C144.891 6.49449 144.82 6.1937 144.672 5.93376C144.523 5.67381 144.319 5.46957 144.059 5.32104C143.807 5.1725 143.513 5.09823 143.179 5.09823C142.837 5.09823 142.537 5.1725 142.277 5.32104C142.024 5.46957 141.824 5.67753 141.675 5.9449C141.534 6.20484 141.463 6.51306 141.463 6.86955V7.09236C141.463 7.44885 141.545 7.76449 141.708 8.03929C141.872 8.31409 142.102 8.52575 142.399 8.67429C142.696 8.82283 143.038 8.8971 143.424 8.8971C143.758 8.8971 144.059 8.84511 144.326 8.74114C144.594 8.63716 144.831 8.47377 145.039 8.25096L145.786 9.10877C145.518 9.4207 145.181 9.66207 144.772 9.83289C144.371 9.99629 143.911 10.078 143.391 10.078ZM147.71 10V4.05103H149.103V6.4685H152.099V4.05103H153.492V10H152.099V7.64938H149.103V10H147.71ZM159.625 10L157.475 7.14806L158.611 6.44622L161.263 10H159.625ZM155.358 10V4.05103H156.751V10H155.358ZM156.338 7.61596V6.45736H158.355V7.61596H156.338ZM158.745 7.19262L157.441 7.03666L159.625 4.05103H161.118L158.745 7.19262ZM164.7 10.078C164.091 10.078 163.549 9.94801 163.074 9.68807C162.598 9.4207 162.223 9.05678 161.949 8.59631C161.674 8.13584 161.536 7.61224 161.536 7.02552C161.536 6.43136 161.674 5.90776 161.949 5.45472C162.223 4.99425 162.598 4.63405 163.074 4.3741C163.549 4.11416 164.091 3.98419 164.7 3.98419C165.317 3.98419 165.863 4.11416 166.338 4.3741C166.821 4.63405 167.196 4.99054 167.463 5.44358C167.738 5.89662 167.875 6.42393 167.875 7.02552C167.875 7.61224 167.738 8.13584 167.463 8.59631C167.196 9.05678 166.821 9.4207 166.338 9.68807C165.863 9.94801 165.317 10.078 164.7 10.078ZM164.7 8.88596C165.042 8.88596 165.346 8.81169 165.614 8.66315C165.881 8.51461 166.089 8.29923 166.238 8.01701C166.394 7.73479 166.472 7.40429 166.472 7.02552C166.472 6.63932 166.394 6.30882 166.238 6.03402C166.089 5.7518 165.881 5.53642 165.614 5.38788C165.346 5.23934 165.046 5.16507 164.711 5.16507C164.37 5.16507 164.065 5.23934 163.798 5.38788C163.538 5.53642 163.33 5.7518 163.174 6.03402C163.018 6.30882 162.94 6.63932 162.94 7.02552C162.94 7.40429 163.018 7.73479 163.174 8.01701C163.33 8.29923 163.538 8.51461 163.798 8.66315C164.065 8.81169 164.366 8.88596 164.7 8.88596Z" fill="#CECFD0"/>
<path d="M45.1321 19.7991H48.7388V20.423H45.1321V19.7991ZM45.21 23.3181H44.4887V16.4946H49.1677V17.1185H45.21V23.3181ZM50.4158 23.3181V18.2005H51.0787V19.5944L51.0105 19.3507C51.1534 18.9608 51.3939 18.6651 51.7318 18.4637C52.0697 18.2557 52.4889 18.1518 52.9893 18.1518V18.8244C52.9633 18.8244 52.9373 18.8244 52.9113 18.8244C52.8853 18.8179 52.8593 18.8146 52.8333 18.8146C52.2939 18.8146 51.8715 18.9803 51.5661 19.3118C51.2607 19.6367 51.1079 20.1013 51.1079 20.7057V23.3181H50.4158ZM56.2906 23.3669C55.7967 23.3669 55.3515 23.2564 54.9551 23.0354C54.5652 22.808 54.2565 22.4993 54.0291 22.1094C53.8016 21.713 53.6879 21.2613 53.6879 20.7544C53.6879 20.241 53.8016 19.7894 54.0291 19.3995C54.2565 19.0096 54.5652 18.7041 54.9551 18.4832C55.345 18.2622 55.7902 18.1518 56.2906 18.1518C56.7975 18.1518 57.2459 18.2622 57.6358 18.4832C58.0322 18.7041 58.3409 19.0096 58.5618 19.3995C58.7893 19.7894 58.903 20.241 58.903 20.7544C58.903 21.2613 58.7893 21.713 58.5618 22.1094C58.3409 22.4993 58.0322 22.808 57.6358 23.0354C57.2394 23.2564 56.791 23.3669 56.2906 23.3669ZM56.2906 22.7527C56.661 22.7527 56.9892 22.6715 57.2751 22.509C57.5611 22.3401 57.7853 22.1061 57.9477 21.8072C58.1167 21.5018 58.2012 21.1508 58.2012 20.7544C58.2012 20.3515 58.1167 20.0006 57.9477 19.7017C57.7853 19.4027 57.5611 19.172 57.2751 19.0096C56.9892 18.8406 56.6643 18.7561 56.3003 18.7561C55.9364 18.7561 55.6115 18.8406 55.3256 19.0096C55.0396 19.172 54.8122 19.4027 54.6432 19.7017C54.4742 20.0006 54.3898 20.3515 54.3898 20.7544C54.3898 21.1508 54.4742 21.5018 54.6432 21.8072C54.8122 22.1061 55.0396 22.3401 55.3256 22.509C55.6115 22.6715 55.9332 22.7527 56.2906 22.7527ZM62.9284 18.1518C63.3443 18.1518 63.7082 18.233 64.0202 18.3955C64.3386 18.5514 64.5855 18.7919 64.761 19.1168C64.943 19.4417 65.0339 19.8511 65.0339 20.345V23.3181H64.3418V20.4133C64.3418 19.8739 64.2054 19.4677 63.9324 19.1948C63.666 18.9153 63.2891 18.7756 62.8017 18.7756C62.4378 18.7756 62.1193 18.8504 61.8464 18.9998C61.58 19.1428 61.372 19.354 61.2225 19.6334C61.0796 19.9064 61.0081 20.2378 61.0081 20.6277V23.3181H60.316V18.2005H60.9788V19.6042L60.8716 19.341C61.0341 18.9706 61.294 18.6814 61.6514 18.4734C62.0089 18.259 62.4345 18.1518 62.9284 18.1518ZM68.5215 23.3669C68.0406 23.3669 67.6702 23.2369 67.4103 22.9769C67.1503 22.717 67.0204 22.3498 67.0204 21.8754V17.0697H67.7125V21.8364C67.7125 22.1354 67.7872 22.3661 67.9367 22.5285C68.0926 22.691 68.3136 22.7722 68.5995 22.7722C68.905 22.7722 69.1584 22.6845 69.3599 22.509L69.6036 23.0062C69.4671 23.1297 69.3014 23.2206 69.1064 23.2791C68.918 23.3376 68.723 23.3669 68.5215 23.3669ZM66.1041 18.7756V18.2005H69.2721V18.7756H66.1041ZM72.8564 23.3669C72.3235 23.3669 71.8556 23.2564 71.4527 23.0354C71.0498 22.808 70.7346 22.4993 70.5071 22.1094C70.2797 21.713 70.166 21.2613 70.166 20.7544C70.166 20.2475 70.2732 19.7991 70.4876 19.4092C70.7086 19.0193 71.0075 18.7139 71.3844 18.4929C71.7678 18.2655 72.1968 18.1518 72.6711 18.1518C73.152 18.1518 73.5777 18.2622 73.9481 18.4832C74.325 18.6976 74.6207 19.0031 74.8352 19.3995C75.0496 19.7894 75.1568 20.241 75.1568 20.7544C75.1568 20.7869 75.1536 20.8227 75.1471 20.8617C75.1471 20.8942 75.1471 20.9299 75.1471 20.9689H70.6923V20.4523H74.7767L74.5037 20.657C74.5037 20.2865 74.4225 19.9584 74.26 19.6724C74.1041 19.38 73.8896 19.1525 73.6167 18.9901C73.3438 18.8276 73.0286 18.7464 72.6711 18.7464C72.3202 18.7464 72.005 18.8276 71.7256 18.9901C71.4462 19.1525 71.2285 19.38 71.0725 19.6724C70.9165 19.9649 70.8386 20.2995 70.8386 20.6765V20.7837C70.8386 21.1736 70.923 21.518 71.092 21.8169C71.2675 22.1094 71.5079 22.3401 71.8133 22.509C72.1253 22.6715 72.4794 22.7527 72.8759 22.7527C73.1878 22.7527 73.477 22.6975 73.7434 22.587C74.0164 22.4766 74.2503 22.3076 74.4453 22.0801L74.8352 22.5285C74.6077 22.8015 74.3218 23.0094 73.9774 23.1524C73.6394 23.2954 73.2658 23.3669 72.8564 23.3669ZM79.178 18.1518C79.5939 18.1518 79.9578 18.233 80.2697 18.3955C80.5882 18.5514 80.8351 18.7919 81.0106 19.1168C81.1925 19.4417 81.2835 19.8511 81.2835 20.345V23.3181H80.5914V20.4133C80.5914 19.8739 80.455 19.4677 80.182 19.1948C79.9156 18.9153 79.5387 18.7756 79.0513 18.7756C78.6873 18.7756 78.3689 18.8504 78.096 18.9998C77.8295 19.1428 77.6216 19.354 77.4721 19.6334C77.3291 19.9064 77.2577 20.2378 77.2577 20.6277V23.3181H76.5656V18.2005H77.2284V19.6042L77.1212 19.341C77.2837 18.9706 77.5436 18.6814 77.901 18.4734C78.2584 18.259 78.6841 18.1518 79.178 18.1518ZM85.1903 23.3669C84.7029 23.3669 84.2642 23.2564 83.8743 23.0354C83.4909 22.8145 83.1887 22.509 82.9678 22.1191C82.7468 21.7227 82.6363 21.2678 82.6363 20.7544C82.6363 20.2345 82.7468 19.7796 82.9678 19.3897C83.1887 18.9998 83.4909 18.6976 83.8743 18.4832C84.2642 18.2622 84.7029 18.1518 85.1903 18.1518C85.6387 18.1518 86.0383 18.2525 86.3893 18.4539C86.7467 18.6554 87.0294 18.9511 87.2373 19.341C87.4518 19.7244 87.559 20.1956 87.559 20.7544C87.559 21.3068 87.455 21.778 87.2471 22.1679C87.0391 22.5578 86.7564 22.8567 86.399 23.0647C86.0481 23.2661 85.6452 23.3669 85.1903 23.3669ZM85.239 22.7527C85.6029 22.7527 85.9279 22.6715 86.2138 22.509C86.5062 22.3401 86.7337 22.1061 86.8961 21.8072C87.0651 21.5018 87.1496 21.1508 87.1496 20.7544C87.1496 20.3515 87.0651 20.0006 86.8961 19.7017C86.7337 19.4027 86.5062 19.172 86.2138 19.0096C85.9279 18.8406 85.6029 18.7561 85.239 18.7561C84.8816 18.7561 84.5599 18.8406 84.274 19.0096C83.988 19.172 83.7606 19.4027 83.5916 19.7017C83.4227 20.0006 83.3382 20.3515 83.3382 20.7544C83.3382 21.1508 83.4227 21.5018 83.5916 21.8072C83.7606 22.1061 83.988 22.3401 84.274 22.509C84.5599 22.6715 84.8816 22.7527 85.239 22.7527ZM87.1691 23.3181V21.778L87.2373 20.7447L87.1398 19.7114V16.0852H87.8319V23.3181H87.1691ZM89.3793 20.9786V20.3743H91.9332V20.9786H89.3793ZM96.1427 23.3669C95.7008 23.3669 95.3011 23.2661 94.9437 23.0647C94.5863 22.8567 94.3003 22.561 94.0859 22.1776C93.8779 21.7877 93.7739 21.3133 93.7739 20.7544C93.7739 20.1956 93.8779 19.7244 94.0859 19.341C94.2938 18.9511 94.5765 18.6554 94.9339 18.4539C95.2913 18.2525 95.6943 18.1518 96.1427 18.1518C96.63 18.1518 97.0655 18.2622 97.4489 18.4832C97.8388 18.6976 98.1442 19.0031 98.3652 19.3995C98.5861 19.7894 98.6966 20.241 98.6966 20.7544C98.6966 21.2743 98.5861 21.7292 98.3652 22.1191C98.1442 22.509 97.8388 22.8145 97.4489 23.0354C97.0655 23.2564 96.63 23.3669 96.1427 23.3669ZM93.501 25.2092V18.2005H94.1638V19.7407L94.0956 20.7642L94.1931 21.7975V25.2092H93.501ZM96.0939 22.7527C96.4578 22.7527 96.7828 22.6715 97.0687 22.509C97.3546 22.3401 97.5821 22.1061 97.7511 21.8072C97.92 21.5018 98.0045 21.1508 98.0045 20.7544C98.0045 20.358 97.92 20.0103 97.7511 19.7114C97.5821 19.4125 97.3546 19.1785 97.0687 19.0096C96.7828 18.8406 96.4578 18.7561 96.0939 18.7561C95.73 18.7561 95.4018 18.8406 95.1094 19.0096C94.8234 19.1785 94.596 19.4125 94.427 19.7114C94.2646 20.0103 94.1833 20.358 94.1833 20.7544C94.1833 21.1508 94.2646 21.5018 94.427 21.8072C94.596 22.1061 94.8234 22.3401 95.1094 22.509C95.4018 22.6715 95.73 22.7527 96.0939 22.7527ZM103.333 23.3181V22.1874L103.304 22.0022V20.1111C103.304 19.6757 103.18 19.341 102.933 19.107C102.693 18.8731 102.332 18.7561 101.851 18.7561C101.52 18.7561 101.205 18.8114 100.906 18.9218C100.607 19.0323 100.353 19.1785 100.145 19.3605L99.8334 18.8439C100.093 18.6229 100.405 18.4539 100.769 18.337C101.133 18.2135 101.516 18.1518 101.919 18.1518C102.582 18.1518 103.092 18.3175 103.45 18.6489C103.814 18.9738 103.996 19.471 103.996 20.1403V23.3181H103.333ZM101.568 23.3669C101.185 23.3669 100.85 23.3051 100.564 23.1816C100.285 23.0517 100.071 22.8762 99.9211 22.6553C99.7716 22.4278 99.6969 22.1679 99.6969 21.8754C99.6969 21.609 99.7586 21.3685 99.8821 21.1541C100.012 20.9331 100.22 20.7577 100.506 20.6277C100.798 20.4912 101.188 20.423 101.676 20.423H103.44V20.9396H101.695C101.201 20.9396 100.857 21.0274 100.662 21.2028C100.473 21.3783 100.379 21.596 100.379 21.8559C100.379 22.1484 100.493 22.3823 100.72 22.5578C100.948 22.7332 101.266 22.821 101.676 22.821C102.066 22.821 102.4 22.7332 102.68 22.5578C102.966 22.3758 103.174 22.1159 103.304 21.778L103.46 22.2556C103.33 22.5935 103.102 22.8632 102.777 23.0647C102.459 23.2661 102.056 23.3669 101.568 23.3669ZM107.108 23.3766C106.737 23.3766 106.37 23.3246 106.006 23.2206C105.642 23.1167 105.321 22.9574 105.041 22.743L105.265 22.2264C105.512 22.4083 105.798 22.548 106.123 22.6455C106.448 22.7365 106.77 22.782 107.088 22.782C107.407 22.7755 107.683 22.73 107.917 22.6455C108.151 22.561 108.333 22.4441 108.463 22.2946C108.593 22.1451 108.658 21.9762 108.658 21.7877C108.658 21.5148 108.534 21.3036 108.287 21.1541C108.04 20.9981 107.702 20.9201 107.274 20.9201H106.396V20.4133H107.225C107.478 20.4133 107.702 20.3808 107.897 20.3158C108.092 20.2508 108.242 20.1566 108.346 20.0331C108.456 19.9096 108.512 19.7634 108.512 19.5944C108.512 19.4125 108.447 19.2565 108.317 19.1265C108.193 18.9966 108.021 18.8991 107.8 18.8341C107.579 18.7691 107.329 18.7366 107.049 18.7366C106.796 18.7431 106.533 18.7821 106.26 18.8536C105.987 18.9186 105.717 19.0193 105.451 19.1558L105.256 18.6197C105.555 18.4637 105.85 18.3467 106.143 18.2687C106.442 18.1843 106.741 18.142 107.04 18.142C107.449 18.129 107.816 18.1778 108.141 18.2882C108.473 18.3987 108.736 18.5579 108.931 18.7659C109.126 18.9673 109.223 19.211 109.223 19.497C109.223 19.7504 109.145 19.9714 108.989 20.1598C108.833 20.3483 108.625 20.4945 108.365 20.5985C108.105 20.7024 107.81 20.7544 107.478 20.7544L107.507 20.5692C108.092 20.5692 108.547 20.6829 108.872 20.9104C109.204 21.1378 109.369 21.4465 109.369 21.8364C109.369 22.1419 109.269 22.4116 109.067 22.6455C108.866 22.873 108.593 23.0517 108.248 23.1816C107.91 23.3116 107.53 23.3766 107.108 23.3766ZM113.582 23.3669C113.14 23.3669 112.741 23.2661 112.383 23.0647C112.026 22.8567 111.74 22.561 111.525 22.1776C111.317 21.7877 111.213 21.3133 111.213 20.7544C111.213 20.1956 111.317 19.7244 111.525 19.341C111.733 18.9511 112.016 18.6554 112.373 18.4539C112.731 18.2525 113.134 18.1518 113.582 18.1518C114.07 18.1518 114.505 18.2622 114.888 18.4832C115.278 18.6976 115.584 19.0031 115.805 19.3995C116.026 19.7894 116.136 20.241 116.136 20.7544C116.136 21.2743 116.026 21.7292 115.805 22.1191C115.584 22.509 115.278 22.8145 114.888 23.0354C114.505 23.2564 114.07 23.3669 113.582 23.3669ZM110.94 25.2092V18.2005H111.603V19.7407L111.535 20.7642L111.633 21.7975V25.2092H110.94ZM113.533 22.7527C113.897 22.7527 114.222 22.6715 114.508 22.509C114.794 22.3401 115.022 22.1061 115.191 21.8072C115.36 21.5018 115.444 21.1508 115.444 20.7544C115.444 20.358 115.36 20.0103 115.191 19.7114C115.022 19.4125 114.794 19.1785 114.508 19.0096C114.222 18.8406 113.897 18.7561 113.533 18.7561C113.169 18.7561 112.841 18.8406 112.549 19.0096C112.263 19.1785 112.035 19.4125 111.867 19.7114C111.704 20.0103 111.623 20.358 111.623 20.7544C111.623 21.1508 111.704 21.5018 111.867 21.8072C112.035 22.1061 112.263 22.3401 112.549 22.509C112.841 22.6715 113.169 22.7527 113.533 22.7527ZM120.772 23.3181V22.1874L120.743 22.0022V20.1111C120.743 19.6757 120.62 19.341 120.373 19.107C120.132 18.8731 119.772 18.7561 119.291 18.7561C118.959 18.7561 118.644 18.8114 118.345 18.9218C118.046 19.0323 117.793 19.1785 117.585 19.3605L117.273 18.8439C117.533 18.6229 117.845 18.4539 118.209 18.337C118.573 18.2135 118.956 18.1518 119.359 18.1518C120.022 18.1518 120.532 18.3175 120.889 18.6489C121.253 18.9738 121.435 19.471 121.435 20.1403V23.3181H120.772ZM119.008 23.3669C118.625 23.3669 118.29 23.3051 118.004 23.1816C117.725 23.0517 117.51 22.8762 117.361 22.6553C117.211 22.4278 117.136 22.1679 117.136 21.8754C117.136 21.609 117.198 21.3685 117.322 21.1541C117.452 20.9331 117.66 20.7577 117.945 20.6277C118.238 20.4912 118.628 20.423 119.115 20.423H120.88V20.9396H119.135C118.641 20.9396 118.296 21.0274 118.101 21.2028C117.913 21.3783 117.819 21.596 117.819 21.8559C117.819 22.1484 117.932 22.3823 118.16 22.5578C118.387 22.7332 118.706 22.821 119.115 22.821C119.505 22.821 119.84 22.7332 120.119 22.5578C120.405 22.3758 120.613 22.1159 120.743 21.778L120.899 22.2556C120.769 22.5935 120.542 22.8632 120.217 23.0647C119.898 23.2661 119.495 23.3669 119.008 23.3669ZM125.578 23.3766C125.162 23.3766 124.792 23.3084 124.467 23.1719C124.148 23.0354 123.875 22.8275 123.648 22.548C123.421 22.2686 123.248 21.9242 123.131 21.5148C123.014 21.0989 122.956 20.618 122.956 20.0721C122.956 19.5847 123.001 19.159 123.092 18.7951C123.183 18.4247 123.31 18.1063 123.473 17.8398C123.635 17.5734 123.823 17.3492 124.038 17.1672C124.259 16.9788 124.496 16.8293 124.75 16.7188C125.009 16.6019 125.276 16.5141 125.549 16.4556L127.849 15.9195L127.966 16.5629L125.802 17.0503C125.666 17.0827 125.5 17.1282 125.305 17.1867C125.117 17.2452 124.922 17.3329 124.72 17.4499C124.525 17.5669 124.343 17.7294 124.174 17.9373C124.005 18.1453 123.869 18.415 123.765 18.7464C123.668 19.0713 123.619 19.4775 123.619 19.9649C123.619 20.0688 123.622 20.1533 123.629 20.2183C123.635 20.2768 123.642 20.3418 123.648 20.4133C123.661 20.4782 123.671 20.5757 123.677 20.7057L123.375 20.4523C123.447 20.0558 123.593 19.7114 123.814 19.419C124.035 19.12 124.311 18.8893 124.642 18.7269C124.98 18.5579 125.354 18.4734 125.763 18.4734C126.238 18.4734 126.66 18.5774 127.031 18.7854C127.401 18.9868 127.69 19.2695 127.898 19.6334C128.113 19.9974 128.22 20.4198 128.22 20.9007C128.22 21.375 128.109 21.8007 127.888 22.1776C127.674 22.5545 127.368 22.8502 126.972 23.0647C126.576 23.2726 126.111 23.3766 125.578 23.3766ZM125.656 22.8015C126.02 22.8015 126.342 22.7202 126.621 22.5578C126.901 22.3888 127.118 22.1614 127.274 21.8754C127.437 21.5895 127.518 21.2678 127.518 20.9104C127.518 20.5595 127.437 20.2475 127.274 19.9746C127.118 19.7017 126.901 19.4872 126.621 19.3312C126.342 19.1688 126.017 19.0876 125.646 19.0876C125.282 19.0876 124.961 19.1655 124.681 19.3215C124.402 19.471 124.181 19.6822 124.018 19.9551C123.862 20.228 123.784 20.5432 123.784 20.9007C123.784 21.2581 123.862 21.5798 124.018 21.8657C124.181 22.1516 124.402 22.3791 124.681 22.548C124.967 22.717 125.292 22.8015 125.656 22.8015ZM131.809 23.3669C131.315 23.3669 130.87 23.2564 130.473 23.0354C130.083 22.808 129.775 22.4993 129.547 22.1094C129.32 21.713 129.206 21.2613 129.206 20.7544C129.206 20.241 129.32 19.7894 129.547 19.3995C129.775 19.0096 130.083 18.7041 130.473 18.4832C130.863 18.2622 131.308 18.1518 131.809 18.1518C132.316 18.1518 132.764 18.2622 133.154 18.4832C133.55 18.7041 133.859 19.0096 134.08 19.3995C134.307 19.7894 134.421 20.241 134.421 20.7544C134.421 21.2613 134.307 21.713 134.08 22.1094C133.859 22.4993 133.55 22.808 133.154 23.0354C132.757 23.2564 132.309 23.3669 131.809 23.3669ZM131.809 22.7527C132.179 22.7527 132.507 22.6715 132.793 22.509C133.079 22.3401 133.303 22.1061 133.466 21.8072C133.635 21.5018 133.719 21.1508 133.719 20.7544C133.719 20.3515 133.635 20.0006 133.466 19.7017C133.303 19.4027 133.079 19.172 132.793 19.0096C132.507 18.8406 132.182 18.7561 131.818 18.7561C131.455 18.7561 131.13 18.8406 130.844 19.0096C130.558 19.172 130.33 19.4027 130.161 19.7017C129.992 20.0006 129.908 20.3515 129.908 20.7544C129.908 21.1508 129.992 21.5018 130.161 21.8072C130.33 22.1061 130.558 22.3401 130.844 22.509C131.13 22.6715 131.451 22.7527 131.809 22.7527ZM136.685 23.3181V18.6197L136.86 18.8049H134.745V18.2005H139.317V18.8049H137.201L137.377 18.6197V23.3181H136.685ZM143.554 21.1541C143.255 21.2841 142.952 21.388 142.647 21.466C142.348 21.5375 142.049 21.5733 141.75 21.5733C141.146 21.5733 140.668 21.4368 140.317 21.1638C139.966 20.8844 139.791 20.4555 139.791 19.8771V18.2005H140.473V19.8381C140.473 20.228 140.6 20.5205 140.853 20.7154C141.107 20.9104 141.448 21.0079 141.877 21.0079C142.137 21.0079 142.41 20.9754 142.696 20.9104C142.982 20.8389 143.271 20.7382 143.563 20.6082L143.554 21.1541ZM143.495 23.3181V18.2005H144.187V23.3181H143.495ZM146.153 23.3181V18.2005H146.845V22.2653L150.266 18.2005H150.88V23.3181H150.188V19.2435L146.777 23.3181H146.153ZM156.617 23.3181L154.511 20.7837L155.086 20.4425L157.436 23.3181H156.617ZM152.864 23.3181V18.2005H153.556V23.3181H152.864ZM153.341 21.0371V20.4425H154.989V21.0371H153.341ZM155.145 20.8324L154.501 20.7349L156.539 18.2005H157.289L155.145 20.8324Z" fill="#9990AE"/>
<path d="M27.9618 0.431692C29.3479 -0.542585 31.3063 0.440045 31.3066 2.17974V10.4795L33.4989 10.4805C34.5361 10.4807 35.3777 11.3213 35.3779 12.3584C35.3778 13.3958 34.5353 14.2374 33.498 14.2374H31.3066V23.9424C31.3065 25.1181 30.3534 26.0713 29.1777 26.0713H13.8788C11.8519 26.0713 10.9714 23.5063 12.5712 22.2618L20.4482 16.1358C21.267 15.499 22.4469 15.6463 23.0839 16.4649C23.7208 17.2837 23.5735 18.4637 22.7548 19.1006L18.623 22.3145H27.5497V14.2374H17.0107L3.0673 25.6465C2.26437 26.3035 1.08069 26.1848 0.423749 25.3819C-0.232717 24.579 -0.114216 23.3962 0.688398 22.7393L11.08 14.2374H5.00871C3.97145 14.2372 3.1308 13.3957 3.13078 12.3584C3.1309 11.3212 3.97143 10.4796 5.00871 10.4795H15.6718L27.83 0.532278L27.9618 0.431692ZM21.6025 10.4795H27.5497V5.61431L21.6025 10.4795Z" fill="#CECFD0"/>
</svg>
