<svg width="298" height="51" viewBox="0 0 298 51" fill="none" xmlns="http://www.w3.org/2000/svg">
<path d="M67.3395 11.3813L71.4617 2.22082H73.1368L77.2721 11.3813H75.4923L71.9459 3.12379H72.6264L69.093 11.3813H67.3395ZM69.237 9.26134L69.695 7.92652H74.6417L75.0997 9.26134H69.237ZM78.4936 11.3813V4.39317H80.1294V7.23294H83.6497V4.39317H85.2855V11.3813H83.6497V8.6201H80.1294V11.3813H78.4936ZM92.2674 10.6223V5.78034H89.5847L89.5455 6.90578C89.528 7.30709 89.5018 7.69533 89.4669 8.07047C89.432 8.43689 89.3753 8.77714 89.2968 9.09122C89.2183 9.39657 89.1049 9.64957 88.9566 9.85023C88.8082 10.0509 88.612 10.1818 88.3677 10.2428L86.7449 9.99418C87.0067 9.99418 87.2161 9.9113 87.3731 9.74554C87.5389 9.57105 87.6654 9.3355 87.7526 9.03887C87.8486 8.73352 87.9184 8.38891 87.962 8.00504C88.0056 7.61245 88.0361 7.20676 88.0536 6.788L88.1452 4.39317H93.9032V10.6223H92.2674ZM86.4963 12.9386V9.99418H94.9371V12.9386H93.406V11.3813H88.0143V12.9386H86.4963ZM100.272 11.473C99.7046 11.473 99.1855 11.3421 98.7144 11.0804C98.252 10.8186 97.8812 10.426 97.602 9.90258C97.3316 9.37039 97.1963 8.69862 97.1963 7.88726C97.1963 7.06718 97.3272 6.3954 97.5889 5.87195C97.8594 5.34849 98.2258 4.96025 98.6882 4.70725C99.1506 4.44552 99.6784 4.31466 100.272 4.31466C100.961 4.31466 101.567 4.46297 102.091 4.7596C102.623 5.05622 103.042 5.47063 103.347 6.00281C103.661 6.53499 103.818 7.16314 103.818 7.88726C103.818 8.61138 103.661 9.24389 103.347 9.7848C103.042 10.317 102.623 10.7314 102.091 11.028C101.567 11.3246 100.961 11.473 100.272 11.473ZM96.3981 13.9201V4.39317H97.9553V6.04207L97.903 7.90035L98.0339 9.75863V13.9201H96.3981ZM100.088 10.0727C100.481 10.0727 100.83 9.98546 101.135 9.81097C101.449 9.63649 101.698 9.38348 101.881 9.05196C102.064 8.72043 102.156 8.3322 102.156 7.88726C102.156 7.4336 102.064 7.04537 101.881 6.72257C101.698 6.39104 101.449 6.13804 101.135 5.96355C100.83 5.78906 100.481 5.70182 100.088 5.70182C99.6958 5.70182 99.3425 5.78906 99.0284 5.96355C98.7144 6.13804 98.4657 6.39104 98.2825 6.72257C98.0993 7.04537 98.0077 7.4336 98.0077 7.88726C98.0077 8.3322 98.0993 8.72043 98.2825 9.05196C98.4657 9.38348 98.7144 9.63649 99.0284 9.81097C99.3425 9.98546 99.6958 10.0727 100.088 10.0727ZM108.705 11.473C107.928 11.473 107.248 11.3203 106.663 11.0149C106.087 10.7009 105.638 10.2734 105.315 9.73245C105.001 9.19155 104.844 8.57648 104.844 7.88726C104.844 7.18932 104.997 6.57425 105.302 6.04207C105.616 5.50116 106.044 5.07803 106.585 4.77268C107.134 4.46733 107.758 4.31466 108.456 4.31466C109.137 4.31466 109.743 4.46297 110.275 4.7596C110.807 5.05622 111.226 5.47499 111.531 6.0159C111.837 6.5568 111.989 7.19368 111.989 7.92652C111.989 7.99632 111.985 8.07483 111.976 8.16208C111.976 8.24932 111.972 8.3322 111.963 8.41072H106.14V7.32454H111.099L110.458 7.66479C110.467 7.26347 110.384 6.91014 110.21 6.60479C110.035 6.29944 109.795 6.05952 109.49 5.88503C109.193 5.71055 108.849 5.6233 108.456 5.6233C108.055 5.6233 107.701 5.71055 107.396 5.88503C107.099 6.05952 106.864 6.3038 106.689 6.61787C106.524 6.92322 106.441 7.28528 106.441 7.70405V7.96578C106.441 8.38455 106.537 8.75533 106.729 9.07813C106.921 9.40093 107.191 9.64957 107.54 9.82406C107.889 9.99854 108.29 10.0858 108.744 10.0858C109.137 10.0858 109.49 10.0247 109.804 9.90258C110.118 9.78044 110.397 9.5885 110.641 9.32677L111.518 10.3344C111.204 10.7009 110.807 10.9844 110.327 11.1851C109.856 11.377 109.315 11.473 108.705 11.473ZM113.779 11.3813V4.39317H115.414V8.99961L119.275 4.39317H120.767V11.3813H119.131V6.77491L115.283 11.3813H113.779ZM117.168 3.56873C116.47 3.56873 115.933 3.40733 115.558 3.08453C115.183 2.753 114.991 2.27317 114.982 1.64502H116.069C116.077 1.95909 116.173 2.20773 116.357 2.39095C116.548 2.57416 116.815 2.66576 117.155 2.66576C117.486 2.66576 117.748 2.57416 117.94 2.39095C118.141 2.20773 118.245 1.95909 118.254 1.64502H119.366C119.358 2.27317 119.161 2.753 118.778 3.08453C118.402 3.40733 117.866 3.56873 117.168 3.56873ZM130.955 11.5122C130.257 11.5122 129.607 11.3988 129.005 11.172C128.412 10.9364 127.892 10.6092 127.448 10.1905C127.011 9.76299 126.671 9.26134 126.427 8.68554C126.183 8.10973 126.06 7.48158 126.06 6.80108C126.06 6.12059 126.183 5.49244 126.427 4.91663C126.671 4.34083 127.016 3.84354 127.461 3.42478C127.906 2.99728 128.425 2.67012 129.018 2.44329C129.611 2.20773 130.261 2.08996 130.968 2.08996C131.718 2.08996 132.403 2.22082 133.022 2.48255C133.642 2.73556 134.165 3.11506 134.593 3.62107L133.493 4.6549C133.162 4.29721 132.791 4.03112 132.381 3.85663C131.971 3.67342 131.526 3.58181 131.046 3.58181C130.566 3.58181 130.126 3.66033 129.725 3.81737C129.332 3.97441 128.987 4.19688 128.691 4.48478C128.403 4.77268 128.176 5.11293 128.01 5.50552C127.853 5.89812 127.775 6.32997 127.775 6.80108C127.775 7.2722 127.853 7.70405 128.01 8.09664C128.176 8.48924 128.403 8.82949 128.691 9.11739C128.987 9.40529 129.332 9.62776 129.725 9.7848C130.126 9.94184 130.566 10.0204 131.046 10.0204C131.526 10.0204 131.971 9.93311 132.381 9.75863C132.791 9.57542 133.162 9.3006 133.493 8.93418L134.593 9.9811C134.165 10.4784 133.642 10.8579 133.022 11.1196C132.403 11.3813 131.714 11.5122 130.955 11.5122ZM140.332 11.3813V9.96801L140.24 9.66702V7.19368C140.24 6.71384 140.096 6.34306 139.809 6.08133C139.521 5.81088 139.084 5.67565 138.5 5.67565C138.107 5.67565 137.719 5.73672 137.335 5.85886C136.96 5.981 136.642 6.15112 136.38 6.36923L135.739 5.17836C136.114 4.89046 136.559 4.67671 137.073 4.53713C137.597 4.38881 138.138 4.31466 138.696 4.31466C139.708 4.31466 140.489 4.55894 141.039 5.0475C141.597 5.52733 141.876 6.27326 141.876 7.28528V11.3813H140.332ZM138.133 11.473C137.61 11.473 137.152 11.3857 136.759 11.2112C136.367 11.028 136.061 10.7794 135.843 10.4653C135.634 10.1425 135.529 9.78044 135.529 9.37912C135.529 8.98652 135.621 8.63319 135.804 8.31911C135.996 8.00504 136.306 7.7564 136.733 7.57319C137.161 7.38998 137.728 7.29837 138.434 7.29837H140.463V8.38455H138.552C137.994 8.38455 137.619 8.47615 137.427 8.65936C137.235 8.83385 137.139 9.05196 137.139 9.31369C137.139 9.61031 137.257 9.84587 137.492 10.0204C137.728 10.1948 138.055 10.2821 138.474 10.2821C138.875 10.2821 139.233 10.1905 139.547 10.0073C139.87 9.82406 140.101 9.5536 140.24 9.19591L140.515 10.1774C140.358 10.5874 140.075 10.9059 139.665 11.1327C139.263 11.3595 138.753 11.473 138.133 11.473ZM143.9 11.3813V4.39317H145.615L148.428 9.35295H147.748L150.705 4.39317H152.236L152.25 11.3813H150.771V6.14676L151.033 6.31689L148.415 10.6485H147.709L145.078 6.19911L145.392 6.12059V11.3813H143.9ZM157.558 11.473C156.843 11.473 156.206 11.3203 155.648 11.0149C155.089 10.7009 154.649 10.2734 154.326 9.73245C154.003 9.19155 153.842 8.57648 153.842 7.88726C153.842 7.18932 154.003 6.57425 154.326 6.04207C154.649 5.50116 155.089 5.07803 155.648 4.77268C156.206 4.46733 156.843 4.31466 157.558 4.31466C158.282 4.31466 158.924 4.46733 159.482 4.77268C160.049 5.07803 160.49 5.4968 160.804 6.02898C161.127 6.56117 161.288 7.18059 161.288 7.88726C161.288 8.57648 161.127 9.19155 160.804 9.73245C160.49 10.2734 160.049 10.7009 159.482 11.0149C158.924 11.3203 158.282 11.473 157.558 11.473ZM157.558 10.0727C157.96 10.0727 158.317 9.98546 158.631 9.81097C158.945 9.63649 159.19 9.38348 159.364 9.05196C159.547 8.72043 159.639 8.3322 159.639 7.88726C159.639 7.4336 159.547 7.04537 159.364 6.72257C159.19 6.39104 158.945 6.13804 158.631 5.96355C158.317 5.78906 157.964 5.70182 157.571 5.70182C157.17 5.70182 156.812 5.78906 156.498 5.96355C156.193 6.13804 155.949 6.39104 155.765 6.72257C155.582 7.04537 155.491 7.4336 155.491 7.88726C155.491 8.3322 155.582 8.72043 155.765 9.05196C155.949 9.38348 156.193 9.63649 156.498 9.81097C156.812 9.98546 157.166 10.0727 157.558 10.0727ZM162.904 11.3813V4.39317H164.54V8.99961L168.4 4.39317H169.892V11.3813H168.256V6.77491L164.409 11.3813H162.904ZM166.293 3.56873C165.595 3.56873 165.059 3.40733 164.684 3.08453C164.309 2.753 164.117 2.27317 164.108 1.64502H165.194C165.203 1.95909 165.299 2.20773 165.482 2.39095C165.674 2.57416 165.94 2.66576 166.28 2.66576C166.612 2.66576 166.873 2.57416 167.065 2.39095C167.266 2.20773 167.371 1.95909 167.379 1.64502H168.492C168.483 2.27317 168.287 2.753 167.903 3.08453C167.528 3.40733 166.991 3.56873 166.293 3.56873ZM171.072 11.3683L171.15 9.99418C171.211 10.0029 171.268 10.0116 171.32 10.0204C171.373 10.0291 171.421 10.0334 171.464 10.0334C171.735 10.0334 171.944 9.95056 172.093 9.7848C172.241 9.61904 172.35 9.39657 172.42 9.11739C172.498 8.82949 172.551 8.51105 172.577 8.16208C172.612 7.80438 172.638 7.44668 172.655 7.08899L172.773 4.39317H178.426V11.3813H176.791V5.3354L177.17 5.78034H173.846L174.199 5.32231L174.108 7.16751C174.082 7.78693 174.029 8.36274 173.951 8.89492C173.881 9.41838 173.768 9.8764 173.611 10.269C173.462 10.6616 173.253 10.9669 172.982 11.1851C172.721 11.4032 172.385 11.5122 171.975 11.5122C171.844 11.5122 171.7 11.4991 171.543 11.473C171.395 11.4468 171.238 11.4119 171.072 11.3683ZM183.888 11.473C183.111 11.473 182.431 11.3203 181.846 11.0149C181.271 10.7009 180.821 10.2734 180.499 9.73245C180.184 9.19155 180.027 8.57648 180.027 7.88726C180.027 7.18932 180.18 6.57425 180.485 6.04207C180.8 5.50116 181.227 5.07803 181.768 4.77268C182.318 4.46733 182.941 4.31466 183.639 4.31466C184.32 4.31466 184.926 4.46297 185.458 4.7596C185.99 5.05622 186.409 5.47499 186.715 6.0159C187.02 6.5568 187.173 7.19368 187.173 7.92652C187.173 7.99632 187.168 8.07483 187.16 8.16208C187.16 8.24932 187.155 8.3322 187.146 8.41072H181.323V7.32454H186.283L185.642 7.66479C185.65 7.26347 185.567 6.91014 185.393 6.60479C185.218 6.29944 184.978 6.05952 184.673 5.88503C184.376 5.71055 184.032 5.6233 183.639 5.6233C183.238 5.6233 182.885 5.71055 182.579 5.88503C182.283 6.05952 182.047 6.3038 181.873 6.61787C181.707 6.92322 181.624 7.28528 181.624 7.70405V7.96578C181.624 8.38455 181.72 8.75533 181.912 9.07813C182.104 9.40093 182.374 9.64957 182.723 9.82406C183.072 9.99854 183.474 10.0858 183.927 10.0858C184.32 10.0858 184.673 10.0247 184.987 9.90258C185.301 9.78044 185.58 9.5885 185.825 9.32677L186.702 10.3344C186.387 10.7009 185.99 10.9844 185.511 11.1851C185.04 11.377 184.499 11.473 183.888 11.473ZM188.962 11.3813V4.39317H190.598V7.23294H194.118V4.39317H195.754V11.3813H194.118V8.6201H190.598V11.3813H188.962ZM202.958 11.3813L200.432 8.03121L201.767 7.20676L204.882 11.3813H202.958ZM197.946 11.3813V4.39317H199.582V11.3813H197.946ZM199.098 8.58084V7.21985H201.466V8.58084H199.098ZM201.924 8.08356L200.393 7.90035L202.958 4.39317H204.712L201.924 8.08356ZM208.92 11.473C208.205 11.473 207.568 11.3203 207.009 11.0149C206.451 10.7009 206.011 10.2734 205.688 9.73245C205.365 9.19155 205.204 8.57648 205.204 7.88726C205.204 7.18932 205.365 6.57425 205.688 6.04207C206.011 5.50116 206.451 5.07803 207.009 4.77268C207.568 4.46733 208.205 4.31466 208.92 4.31466C209.644 4.31466 210.285 4.46733 210.844 4.77268C211.411 5.07803 211.851 5.4968 212.166 6.02898C212.488 6.56117 212.65 7.18059 212.65 7.88726C212.65 8.57648 212.488 9.19155 212.166 9.73245C211.851 10.2734 211.411 10.7009 210.844 11.0149C210.285 11.3203 209.644 11.473 208.92 11.473ZM208.92 10.0727C209.321 10.0727 209.679 9.98546 209.993 9.81097C210.307 9.63649 210.552 9.38348 210.726 9.05196C210.909 8.72043 211.001 8.3322 211.001 7.88726C211.001 7.4336 210.909 7.04537 210.726 6.72257C210.552 6.39104 210.307 6.13804 209.993 5.96355C209.679 5.78906 209.326 5.70182 208.933 5.70182C208.532 5.70182 208.174 5.78906 207.86 5.96355C207.555 6.13804 207.31 6.39104 207.127 6.72257C206.944 7.04537 206.852 7.4336 206.852 7.88726C206.852 8.3322 206.944 8.72043 207.127 9.05196C207.31 9.38348 207.555 9.63649 207.86 9.81097C208.174 9.98546 208.528 10.0727 208.92 10.0727Z" fill="#CECFD0"/>
<path d="M68.3177 25.7187H72.2518V26.3992H68.3177V25.7187ZM68.4028 29.5571H67.6159V22.1142H72.7197V22.7947H68.4028V29.5571ZM74.0812 29.5571V23.9749H74.8042V25.4954L74.7298 25.2296C74.8857 24.8043 75.148 24.4818 75.5166 24.262C75.8852 24.0352 76.3424 23.9218 76.8882 23.9218V24.6554C76.8598 24.6554 76.8315 24.6554 76.8031 24.6554C76.7748 24.6483 76.7464 24.6448 76.7181 24.6448C76.1297 24.6448 75.669 24.8256 75.3358 25.1871C75.0027 25.5415 74.8361 26.0483 74.8361 26.7076V29.5571H74.0812ZM80.4892 29.6103C79.9505 29.6103 79.4649 29.4898 79.0325 29.2488C78.6072 29.0007 78.2705 28.664 78.0224 28.2387C77.7743 27.8063 77.6503 27.3136 77.6503 26.7607C77.6503 26.2007 77.7743 25.7081 78.0224 25.2828C78.2705 24.8575 78.6072 24.5243 79.0325 24.2833C79.4578 24.0423 79.9434 23.9218 80.4892 23.9218C81.0421 23.9218 81.5312 24.0423 81.9565 24.2833C82.3889 24.5243 82.7256 24.8575 82.9666 25.2828C83.2147 25.7081 83.3388 26.2007 83.3388 26.7607C83.3388 27.3136 83.2147 27.8063 82.9666 28.2387C82.7256 28.664 82.3889 29.0007 81.9565 29.2488C81.5241 29.4898 81.035 29.6103 80.4892 29.6103ZM80.4892 28.9404C80.8933 28.9404 81.2512 28.8518 81.5631 28.6746C81.875 28.4903 82.1196 28.2351 82.2968 27.9091C82.4811 27.5759 82.5732 27.1931 82.5732 26.7607C82.5732 26.3212 82.4811 25.9384 82.2968 25.6124C82.1196 25.2863 81.875 25.0347 81.5631 24.8575C81.2512 24.6732 80.8968 24.581 80.4998 24.581C80.1029 24.581 79.7485 24.6732 79.4366 24.8575C79.1247 25.0347 78.8766 25.2863 78.6923 25.6124C78.508 25.9384 78.4158 26.3212 78.4158 26.7607C78.4158 27.1931 78.508 27.5759 78.6923 27.9091C78.8766 28.2351 79.1247 28.4903 79.4366 28.6746C79.7485 28.8518 80.0993 28.9404 80.4892 28.9404ZM87.7296 23.9218C88.1833 23.9218 88.5802 24.0104 88.9205 24.1876C89.2678 24.3577 89.5372 24.62 89.7286 24.9744C89.9271 25.3288 90.0263 25.7754 90.0263 26.3141V29.5571H89.2714V26.3886C89.2714 25.8002 89.1225 25.3572 88.8248 25.0595C88.5342 24.7547 88.123 24.6023 87.5914 24.6023C87.1944 24.6023 86.8471 24.6838 86.5494 24.8468C86.2588 25.0028 86.0319 25.2331 85.8689 25.5379C85.7129 25.8357 85.635 26.1972 85.635 26.6225V29.5571H84.88V23.9749H85.6031V25.506L85.4861 25.219C85.6633 24.8149 85.9469 24.4995 86.3367 24.2727C86.7266 24.0387 87.1909 23.9218 87.7296 23.9218ZM93.8305 29.6103C93.3059 29.6103 92.9019 29.4685 92.6184 29.185C92.3348 28.9014 92.1931 28.5009 92.1931 27.9835V22.7415H92.948V27.941C92.948 28.267 93.0295 28.5187 93.1925 28.6959C93.3627 28.8731 93.6037 28.9617 93.9156 28.9617C94.2487 28.9617 94.5252 28.866 94.7449 28.6746L95.0107 29.2169C94.8619 29.3516 94.6811 29.4508 94.4685 29.5146C94.2629 29.5784 94.0502 29.6103 93.8305 29.6103ZM91.1936 24.6023V23.9749H94.6492V24.6023H91.1936ZM98.5588 29.6103C97.9776 29.6103 97.4672 29.4898 97.0277 29.2488C96.5882 29.0007 96.2444 28.664 95.9963 28.2387C95.7482 27.8063 95.6242 27.3136 95.6242 26.7607C95.6242 26.2078 95.7412 25.7187 95.9751 25.2934C96.2161 24.8681 96.5422 24.5349 96.9533 24.2939C97.3715 24.0458 97.8393 23.9218 98.3568 23.9218C98.8814 23.9218 99.3457 24.0423 99.7497 24.2833C100.161 24.5172 100.483 24.8504 100.717 25.2828C100.951 25.7081 101.068 26.2007 101.068 26.7607C101.068 26.7962 101.065 26.8351 101.058 26.8777C101.058 26.9131 101.058 26.9521 101.058 26.9946H96.1984V26.4311H100.653L100.356 26.6544C100.356 26.2503 100.267 25.8924 100.09 25.5805C99.9198 25.2615 99.6859 25.0134 99.3882 24.8362C99.0905 24.659 98.7467 24.5704 98.3568 24.5704C97.974 24.5704 97.6302 24.659 97.3254 24.8362C97.0206 25.0134 96.7832 25.2615 96.613 25.5805C96.4429 25.8995 96.3579 26.2645 96.3579 26.6757V26.7926C96.3579 27.2179 96.45 27.5936 96.6343 27.9197C96.8257 28.2387 97.088 28.4903 97.4211 28.6746C97.7614 28.8518 98.1477 28.9404 98.5801 28.9404C98.9203 28.9404 99.2358 28.8802 99.5264 28.7597C99.8241 28.6392 100.079 28.4549 100.292 28.2068L100.717 28.6959C100.469 28.9936 100.157 29.2204 99.7816 29.3764C99.413 29.5323 99.0054 29.6103 98.5588 29.6103ZM105.454 23.9218C105.908 23.9218 106.305 24.0104 106.645 24.1876C106.993 24.3577 107.262 24.62 107.453 24.9744C107.652 25.3288 107.751 25.7754 107.751 26.3141V29.5571H106.996V26.3886C106.996 25.8002 106.847 25.3572 106.55 25.0595C106.259 24.7547 105.848 24.6023 105.316 24.6023C104.919 24.6023 104.572 24.6838 104.274 24.8468C103.983 25.0028 103.757 25.2331 103.594 25.5379C103.438 25.8357 103.36 26.1972 103.36 26.6225V29.5571H102.605V23.9749H103.328V25.506L103.211 25.219C103.388 24.8149 103.672 24.4995 104.061 24.2727C104.451 24.0387 104.916 23.9218 105.454 23.9218ZM112.012 29.6103C111.481 29.6103 111.002 29.4898 110.577 29.2488C110.159 29.0078 109.829 28.6746 109.588 28.2493C109.347 27.8169 109.227 27.3207 109.227 26.7607C109.227 26.1936 109.347 25.6974 109.588 25.2721C109.829 24.8468 110.159 24.5172 110.577 24.2833C111.002 24.0423 111.481 23.9218 112.012 23.9218C112.502 23.9218 112.937 24.0316 113.32 24.2514C113.71 24.4711 114.018 24.7937 114.245 25.219C114.479 25.6372 114.596 26.1511 114.596 26.7607C114.596 27.3632 114.483 27.8772 114.256 28.3025C114.029 28.7278 113.721 29.0538 113.331 29.2807C112.948 29.5004 112.509 29.6103 112.012 29.6103ZM112.066 28.9404C112.463 28.9404 112.817 28.8518 113.129 28.6746C113.448 28.4903 113.696 28.2351 113.873 27.9091C114.057 27.5759 114.15 27.1931 114.15 26.7607C114.15 26.3212 114.057 25.9384 113.873 25.6124C113.696 25.2863 113.448 25.0347 113.129 24.8575C112.817 24.6732 112.463 24.581 112.066 24.581C111.676 24.581 111.325 24.6732 111.013 24.8575C110.701 25.0347 110.453 25.2863 110.269 25.6124C110.084 25.9384 109.992 26.3212 109.992 26.7607C109.992 27.1931 110.084 27.5759 110.269 27.9091C110.453 28.2351 110.701 28.4903 111.013 28.6746C111.325 28.8518 111.676 28.9404 112.066 28.9404ZM114.171 29.5571V27.8772L114.245 26.7501L114.139 25.623V21.6676H114.894V29.5571H114.171ZM116.582 27.0053V26.346H119.367V27.0053H116.582ZM123.959 29.6103C123.477 29.6103 123.041 29.5004 122.651 29.2807C122.261 29.0538 121.949 28.7313 121.716 28.3131C121.489 27.8878 121.375 27.3703 121.375 26.7607C121.375 26.1511 121.489 25.6372 121.716 25.219C121.942 24.7937 122.251 24.4711 122.641 24.2514C123.03 24.0316 123.47 23.9218 123.959 23.9218C124.491 23.9218 124.966 24.0423 125.384 24.2833C125.809 24.5172 126.142 24.8504 126.383 25.2828C126.624 25.7081 126.745 26.2007 126.745 26.7607C126.745 27.3278 126.624 27.824 126.383 28.2493C126.142 28.6746 125.809 29.0078 125.384 29.2488C124.966 29.4898 124.491 29.6103 123.959 29.6103ZM121.078 31.6199V23.9749H121.801V25.6549L121.726 26.7713L121.833 27.8984V31.6199H121.078ZM123.906 28.9404C124.303 28.9404 124.657 28.8518 124.969 28.6746C125.281 28.4903 125.529 28.2351 125.713 27.9091C125.898 27.5759 125.99 27.1931 125.99 26.7607C125.99 26.3283 125.898 25.9491 125.713 25.623C125.529 25.2969 125.281 25.0418 124.969 24.8575C124.657 24.6732 124.303 24.581 123.906 24.581C123.509 24.581 123.151 24.6732 122.832 24.8575C122.52 25.0418 122.272 25.2969 122.088 25.623C121.91 25.9491 121.822 26.3283 121.822 26.7607C121.822 27.1931 121.91 27.5759 122.088 27.9091C122.272 28.2351 122.52 28.4903 122.832 28.6746C123.151 28.8518 123.509 28.9404 123.906 28.9404ZM131.802 29.5571V28.3237L131.77 28.1217V26.059C131.77 25.584 131.635 25.219 131.366 24.9638C131.104 24.7086 130.71 24.581 130.186 24.581C129.824 24.581 129.48 24.6413 129.154 24.7618C128.828 24.8823 128.552 25.0418 128.325 25.2402L127.985 24.6767C128.268 24.4357 128.609 24.2514 129.006 24.1238C129.403 23.9891 129.821 23.9218 130.26 23.9218C130.983 23.9218 131.54 24.1025 131.93 24.464C132.327 24.8185 132.525 25.3607 132.525 26.0909V29.5571H131.802ZM129.877 29.6103C129.459 29.6103 129.094 29.543 128.782 29.4083C128.477 29.2665 128.244 29.0751 128.081 28.8341C127.917 28.586 127.836 28.3025 127.836 27.9835C127.836 27.6929 127.903 27.4306 128.038 27.1967C128.18 26.9556 128.407 26.7643 128.718 26.6225C129.037 26.4736 129.463 26.3992 129.994 26.3992H131.919V26.9627H130.016C129.477 26.9627 129.101 27.0584 128.889 27.2498C128.683 27.4412 128.58 27.6787 128.58 27.9622C128.58 28.2812 128.704 28.5364 128.952 28.7278C129.2 28.9192 129.548 29.0149 129.994 29.0149C130.42 29.0149 130.785 28.9192 131.09 28.7278C131.401 28.5293 131.628 28.2458 131.77 27.8772L131.94 28.3982C131.798 28.7668 131.55 29.0609 131.196 29.2807C130.849 29.5004 130.409 29.6103 129.877 29.6103ZM135.92 29.6209C135.516 29.6209 135.115 29.5642 134.718 29.4508C134.321 29.3374 133.97 29.1637 133.666 28.9298L133.91 28.3663C134.179 28.5647 134.491 28.7171 134.846 28.8235C135.2 28.9227 135.551 28.9723 135.898 28.9723C136.246 28.9652 136.547 28.9156 136.802 28.8235C137.057 28.7313 137.256 28.6037 137.398 28.4407C137.539 28.2777 137.61 28.0934 137.61 27.8878C137.61 27.5901 137.476 27.3597 137.206 27.1967C136.937 27.0265 136.568 26.9415 136.1 26.9415H135.143V26.3886H136.047C136.324 26.3886 136.568 26.3531 136.781 26.2822C136.994 26.2114 137.157 26.1086 137.27 25.9739C137.391 25.8392 137.451 25.6797 137.451 25.4954C137.451 25.2969 137.38 25.1268 137.238 24.985C137.103 24.8433 136.916 24.7369 136.675 24.6661C136.434 24.5952 136.161 24.5597 135.856 24.5597C135.579 24.5668 135.292 24.6094 134.995 24.6873C134.697 24.7582 134.403 24.8681 134.112 25.0169L133.899 24.4321C134.226 24.262 134.548 24.1344 134.867 24.0494C135.193 23.9572 135.519 23.9111 135.845 23.9111C136.292 23.897 136.692 23.9501 137.047 24.0706C137.408 24.1911 137.695 24.3648 137.908 24.5916C138.121 24.8114 138.227 25.0772 138.227 25.3891C138.227 25.6655 138.142 25.9066 137.972 26.1121C137.802 26.3177 137.575 26.4772 137.291 26.5906C137.008 26.704 136.685 26.7607 136.324 26.7607L136.356 26.5587C136.994 26.5587 137.49 26.6827 137.844 26.9308C138.206 27.1789 138.386 27.5156 138.386 27.941C138.386 28.2741 138.277 28.5683 138.057 28.8235C137.837 29.0716 137.539 29.2665 137.164 29.4083C136.795 29.55 136.38 29.6209 135.92 29.6209ZM142.982 29.6103C142.5 29.6103 142.064 29.5004 141.674 29.2807C141.284 29.0538 140.972 28.7313 140.738 28.3131C140.511 27.8878 140.398 27.3703 140.398 26.7607C140.398 26.1511 140.511 25.6372 140.738 25.219C140.965 24.7937 141.273 24.4711 141.663 24.2514C142.053 24.0316 142.493 23.9218 142.982 23.9218C143.513 23.9218 143.988 24.0423 144.407 24.2833C144.832 24.5172 145.165 24.8504 145.406 25.2828C145.647 25.7081 145.768 26.2007 145.768 26.7607C145.768 27.3278 145.647 27.824 145.406 28.2493C145.165 28.6746 144.832 29.0078 144.407 29.2488C143.988 29.4898 143.513 29.6103 142.982 29.6103ZM140.1 31.6199V23.9749H140.823V25.6549L140.749 26.7713L140.855 27.8984V31.6199H140.1ZM142.929 28.9404C143.326 28.9404 143.68 28.8518 143.992 28.6746C144.304 28.4903 144.552 28.2351 144.736 27.9091C144.92 27.5759 145.013 27.1931 145.013 26.7607C145.013 26.3283 144.92 25.9491 144.736 25.623C144.552 25.2969 144.304 25.0418 143.992 24.8575C143.68 24.6732 143.326 24.581 142.929 24.581C142.532 24.581 142.174 24.6732 141.855 24.8575C141.543 25.0418 141.295 25.2969 141.11 25.623C140.933 25.9491 140.845 26.3283 140.845 26.7607C140.845 27.1931 140.933 27.5759 141.11 27.9091C141.295 28.2351 141.543 28.4903 141.855 28.6746C142.174 28.8518 142.532 28.9404 142.929 28.9404ZM150.825 29.5571V28.3237L150.793 28.1217V26.059C150.793 25.584 150.658 25.219 150.389 24.9638C150.126 24.7086 149.733 24.581 149.208 24.581C148.847 24.581 148.503 24.6413 148.177 24.7618C147.851 24.8823 147.575 25.0418 147.348 25.2402L147.007 24.6767C147.291 24.4357 147.631 24.2514 148.028 24.1238C148.425 23.9891 148.843 23.9218 149.283 23.9218C150.006 23.9218 150.562 24.1025 150.952 24.464C151.349 24.8185 151.548 25.3607 151.548 26.0909V29.5571H150.825ZM148.9 29.6103C148.482 29.6103 148.117 29.543 147.805 29.4083C147.5 29.2665 147.266 29.0751 147.103 28.8341C146.94 28.586 146.859 28.3025 146.859 27.9835C146.859 27.6929 146.926 27.4306 147.061 27.1967C147.202 26.9556 147.429 26.7643 147.741 26.6225C148.06 26.4736 148.485 26.3992 149.017 26.3992H150.942V26.9627H149.038C148.5 26.9627 148.124 27.0584 147.911 27.2498C147.706 27.4412 147.603 27.6787 147.603 27.9622C147.603 28.2812 147.727 28.5364 147.975 28.7278C148.223 28.9192 148.57 29.0149 149.017 29.0149C149.442 29.0149 149.807 28.9192 150.112 28.7278C150.424 28.5293 150.651 28.2458 150.793 27.8772L150.963 28.3982C150.821 28.7668 150.573 29.0609 150.219 29.2807C149.871 29.5004 149.432 29.6103 148.9 29.6103ZM156.067 29.6209C155.613 29.6209 155.209 29.5465 154.855 29.3976C154.507 29.2488 154.209 29.0219 153.961 28.7171C153.713 28.4123 153.525 28.0366 153.398 27.5901C153.27 27.1364 153.206 26.6119 153.206 26.0164C153.206 25.4848 153.256 25.0205 153.355 24.6235C153.455 24.2195 153.593 23.8721 153.77 23.5815C153.947 23.2909 154.153 23.0463 154.387 22.8479C154.628 22.6423 154.886 22.4793 155.163 22.3588C155.446 22.2312 155.737 22.1355 156.035 22.0717L158.544 21.4869L158.672 22.1886L156.311 22.7203C156.162 22.7557 155.982 22.8053 155.769 22.8691C155.563 22.9329 155.351 23.0286 155.131 23.1562C154.918 23.2838 154.72 23.461 154.536 23.6878C154.351 23.9147 154.202 24.2089 154.089 24.5704C153.983 24.9248 153.929 25.3678 153.929 25.8995C153.929 26.0129 153.933 26.105 153.94 26.1759C153.947 26.2397 153.954 26.3106 153.961 26.3886C153.976 26.4595 153.986 26.5658 153.993 26.7076L153.664 26.4311C153.742 25.9987 153.901 25.623 154.142 25.304C154.383 24.978 154.684 24.7263 155.046 24.5491C155.415 24.3648 155.822 24.2727 156.269 24.2727C156.786 24.2727 157.247 24.3861 157.651 24.6129C158.055 24.8326 158.37 25.141 158.597 25.5379C158.831 25.9349 158.948 26.3957 158.948 26.9202C158.948 27.4377 158.828 27.902 158.587 28.3131C158.353 28.7242 158.02 29.0468 157.587 29.2807C157.155 29.5075 156.648 29.6209 156.067 29.6209ZM156.152 28.9936C156.549 28.9936 156.9 28.905 157.204 28.7278C157.509 28.5435 157.747 28.2954 157.917 27.9835C158.094 27.6716 158.183 27.3207 158.183 26.9308C158.183 26.5481 158.094 26.2078 157.917 25.9101C157.747 25.6124 157.509 25.3785 157.204 25.2083C156.9 25.0311 156.545 24.9425 156.141 24.9425C155.744 24.9425 155.393 25.0276 155.088 25.1977C154.784 25.3607 154.543 25.5911 154.365 25.8888C154.195 26.1865 154.11 26.5303 154.11 26.9202C154.11 27.3101 154.195 27.661 154.365 27.9728C154.543 28.2847 154.784 28.5328 155.088 28.7171C155.4 28.9014 155.755 28.9936 156.152 28.9936ZM162.863 29.6103C162.324 29.6103 161.839 29.4898 161.406 29.2488C160.981 29.0007 160.644 28.664 160.396 28.2387C160.148 27.8063 160.024 27.3136 160.024 26.7607C160.024 26.2007 160.148 25.7081 160.396 25.2828C160.644 24.8575 160.981 24.5243 161.406 24.2833C161.832 24.0423 162.317 23.9218 162.863 23.9218C163.416 23.9218 163.905 24.0423 164.33 24.2833C164.763 24.5243 165.099 24.8575 165.34 25.2828C165.588 25.7081 165.712 26.2007 165.712 26.7607C165.712 27.3136 165.588 27.8063 165.34 28.2387C165.099 28.664 164.763 29.0007 164.33 29.2488C163.898 29.4898 163.409 29.6103 162.863 29.6103ZM162.863 28.9404C163.267 28.9404 163.625 28.8518 163.937 28.6746C164.249 28.4903 164.493 28.2351 164.67 27.9091C164.855 27.5759 164.947 27.1931 164.947 26.7607C164.947 26.3212 164.855 25.9384 164.67 25.6124C164.493 25.2863 164.249 25.0347 163.937 24.8575C163.625 24.6732 163.27 24.581 162.874 24.581C162.477 24.581 162.122 24.6732 161.81 24.8575C161.498 25.0347 161.25 25.2863 161.066 25.6124C160.882 25.9384 160.79 26.3212 160.79 26.7607C160.79 27.1931 160.882 27.5759 161.066 27.9091C161.25 28.2351 161.498 28.4903 161.81 28.6746C162.122 28.8518 162.473 28.9404 162.863 28.9404ZM168.182 29.5571V24.4321L168.373 24.6342H166.066V23.9749H171.052V24.6342H168.745L168.936 24.4321V29.5571H168.182ZM175.674 27.1967C175.348 27.3384 175.018 27.4518 174.685 27.5369C174.359 27.6149 174.033 27.6539 173.707 27.6539C173.048 27.6539 172.527 27.505 172.144 27.2073C171.761 26.9025 171.57 26.4346 171.57 25.8038V23.9749H172.314V25.7612C172.314 26.1865 172.452 26.5055 172.729 26.7182C173.005 26.9308 173.377 27.0372 173.845 27.0372C174.129 27.0372 174.426 27.0017 174.738 26.9308C175.05 26.8529 175.366 26.743 175.685 26.6012L175.674 27.1967ZM175.61 29.5571V23.9749H176.365V29.5571H175.61ZM178.509 29.5571V23.9749H179.264V28.4088L182.996 23.9749H183.666V29.5571H182.911V25.1126L179.189 29.5571H178.509ZM189.923 29.5571L187.626 26.7926L188.254 26.4205L190.816 29.5571H189.923ZM185.829 29.5571V23.9749H186.584V29.5571H185.829ZM186.35 27.0691V26.4205H188.147V27.0691H186.35ZM188.317 26.8458L187.616 26.7394L189.838 23.9749H190.657L188.317 26.8458ZM191.529 31.1095L191.997 29.1425L192.082 29.5997C191.919 29.5997 191.781 29.5465 191.667 29.4402C191.561 29.3338 191.508 29.1956 191.508 29.0255C191.508 28.8554 191.561 28.7171 191.667 28.6108C191.781 28.5045 191.915 28.4513 192.071 28.4513C192.234 28.4513 192.366 28.508 192.465 28.6214C192.571 28.7349 192.624 28.8695 192.624 29.0255C192.624 29.0822 192.621 29.1389 192.614 29.1956C192.607 29.2523 192.592 29.3161 192.571 29.387C192.55 29.4579 192.522 29.543 192.486 29.6422L192.04 31.1095H191.529ZM197.044 29.5571V23.9749H202.062V29.5571H201.307V24.4321L201.499 24.6342H197.607L197.799 24.4321V29.5571H197.044ZM206.505 29.6103C205.966 29.6103 205.481 29.4898 205.048 29.2488C204.623 29.0007 204.286 28.664 204.038 28.2387C203.79 27.8063 203.666 27.3136 203.666 26.7607C203.666 26.2007 203.79 25.7081 204.038 25.2828C204.286 24.8575 204.623 24.5243 205.048 24.2833C205.474 24.0423 205.959 23.9218 206.505 23.9218C207.058 23.9218 207.547 24.0423 207.972 24.2833C208.405 24.5243 208.741 24.8575 208.982 25.2828C209.23 25.7081 209.355 26.2007 209.355 26.7607C209.355 27.3136 209.23 27.8063 208.982 28.2387C208.741 28.664 208.405 29.0007 207.972 29.2488C207.54 29.4898 207.051 29.6103 206.505 29.6103ZM206.505 28.9404C206.909 28.9404 207.267 28.8518 207.579 28.6746C207.891 28.4903 208.135 28.2351 208.313 27.9091C208.497 27.5759 208.589 27.1931 208.589 26.7607C208.589 26.3212 208.497 25.9384 208.313 25.6124C208.135 25.2863 207.891 25.0347 207.579 24.8575C207.267 24.6732 206.913 24.581 206.516 24.581C206.119 24.581 205.764 24.6732 205.452 24.8575C205.14 25.0347 204.892 25.2863 204.708 25.6124C204.524 25.9384 204.432 26.3212 204.432 26.7607C204.432 27.1931 204.524 27.5759 204.708 27.9091C204.892 28.2351 205.14 28.4903 205.452 28.6746C205.764 28.8518 206.115 28.9404 206.505 28.9404ZM210.968 29.5571V23.9749H211.734L214.264 28.2599H213.945L216.518 23.9749H217.22V29.5571H216.529V24.8362L216.667 24.9L214.264 28.8766H213.924L211.5 24.8575L211.659 24.8256V29.5571H210.968ZM221.665 29.6103C221.126 29.6103 220.641 29.4898 220.208 29.2488C219.783 29.0007 219.446 28.664 219.198 28.2387C218.95 27.8063 218.826 27.3136 218.826 26.7607C218.826 26.2007 218.95 25.7081 219.198 25.2828C219.446 24.8575 219.783 24.5243 220.208 24.2833C220.634 24.0423 221.119 23.9218 221.665 23.9218C222.218 23.9218 222.707 24.0423 223.132 24.2833C223.565 24.5243 223.901 24.8575 224.142 25.2828C224.39 25.7081 224.515 26.2007 224.515 26.7607C224.515 27.3136 224.39 27.8063 224.142 28.2387C223.901 28.664 223.565 29.0007 223.132 29.2488C222.7 29.4898 222.211 29.6103 221.665 29.6103ZM221.665 28.9404C222.069 28.9404 222.427 28.8518 222.739 28.6746C223.051 28.4903 223.295 28.2351 223.473 27.9091C223.657 27.5759 223.749 27.1931 223.749 26.7607C223.749 26.3212 223.657 25.9384 223.473 25.6124C223.295 25.2863 223.051 25.0347 222.739 24.8575C222.427 24.6732 222.073 24.581 221.676 24.581C221.279 24.581 220.924 24.6732 220.612 24.8575C220.3 25.0347 220.052 25.2863 219.868 25.6124C219.684 25.9384 219.592 26.3212 219.592 26.7607C219.592 27.1931 219.684 27.5759 219.868 27.9091C220.052 28.2351 220.3 28.4903 220.612 28.6746C220.924 28.8518 221.275 28.9404 221.665 28.9404ZM226.128 29.5571V23.9749H230.083V24.6342H226.691L226.883 24.4428V29.5571H226.128ZM234.641 29.5571V28.3237L234.609 28.1217V26.059C234.609 25.584 234.474 25.219 234.205 24.9638C233.942 24.7086 233.549 24.581 233.024 24.581C232.663 24.581 232.319 24.6413 231.993 24.7618C231.667 24.8823 231.391 25.0418 231.164 25.2402L230.823 24.6767C231.107 24.4357 231.447 24.2514 231.844 24.1238C232.241 23.9891 232.659 23.9218 233.099 23.9218C233.822 23.9218 234.378 24.1025 234.768 24.464C235.165 24.8185 235.364 25.3607 235.364 26.0909V29.5571H234.641ZM232.716 29.6103C232.298 29.6103 231.933 29.543 231.621 29.4083C231.316 29.2665 231.082 29.0751 230.919 28.8341C230.756 28.586 230.675 28.3025 230.675 27.9835C230.675 27.6929 230.742 27.4306 230.877 27.1967C231.018 26.9556 231.245 26.7643 231.557 26.6225C231.876 26.4736 232.301 26.3992 232.833 26.3992H234.758V26.9627H232.854C232.316 26.9627 231.94 27.0584 231.727 27.2498C231.522 27.4412 231.419 27.6787 231.419 27.9622C231.419 28.2812 231.543 28.5364 231.791 28.7278C232.039 28.9192 232.386 29.0149 232.833 29.0149C233.258 29.0149 233.623 28.9192 233.928 28.7278C234.24 28.5293 234.467 28.2458 234.609 27.8772L234.779 28.3982C234.637 28.7668 234.389 29.0609 234.035 29.2807C233.687 29.5004 233.248 29.6103 232.716 29.6103ZM237.373 29.5571V23.9749H238.128V26.3779H239.829V27.0691H238.128V29.5571H237.373ZM242.179 29.6103C241.648 29.6103 241.169 29.4898 240.744 29.2488C240.326 29.0007 239.996 28.664 239.755 28.2387C239.514 27.8063 239.394 27.3136 239.394 26.7607C239.394 26.2007 239.514 25.7081 239.755 25.2828C239.996 24.8575 240.326 24.5243 240.744 24.2833C241.169 24.0423 241.648 23.9218 242.179 23.9218C242.711 23.9218 243.186 24.0423 243.604 24.2833C244.022 24.5243 244.352 24.8575 244.593 25.2828C244.834 25.7081 244.954 26.2007 244.954 26.7607C244.954 27.3136 244.834 27.8063 244.593 28.2387C244.352 28.664 244.022 29.0007 243.604 29.2488C243.186 29.4898 242.711 29.6103 242.179 29.6103ZM242.179 28.9511C242.569 28.9511 242.917 28.8589 243.221 28.6746C243.526 28.4903 243.767 28.2351 243.944 27.9091C244.122 27.5759 244.21 27.1931 244.21 26.7607C244.21 26.3212 244.122 25.9384 243.944 25.6124C243.767 25.2863 243.526 25.0347 243.221 24.8575C242.917 24.6732 242.569 24.581 242.179 24.581C241.797 24.581 241.449 24.6732 241.137 24.8575C240.833 25.0347 240.592 25.2863 240.414 25.6124C240.237 25.9384 240.148 26.3212 240.148 26.7607C240.148 27.1931 240.237 27.5759 240.414 27.9091C240.592 28.2351 240.833 28.4903 241.137 28.6746C241.449 28.8589 241.797 28.9511 242.179 28.9511ZM251.865 29.6209C251.412 29.6209 251.008 29.5465 250.653 29.3976C250.306 29.2488 250.008 29.0219 249.76 28.7171C249.512 28.4123 249.324 28.0366 249.196 27.5901C249.069 27.1364 249.005 26.6119 249.005 26.0164C249.005 25.4848 249.055 25.0205 249.154 24.6235C249.253 24.2195 249.391 23.8721 249.569 23.5815C249.746 23.2909 249.951 23.0463 250.185 22.8479C250.426 22.6423 250.685 22.4793 250.961 22.3588C251.245 22.2312 251.536 22.1355 251.833 22.0717L254.343 21.4869L254.47 22.1886L252.11 22.7203C251.961 22.7557 251.78 22.8053 251.568 22.8691C251.362 22.9329 251.149 23.0286 250.93 23.1562C250.717 23.2838 250.518 23.461 250.334 23.6878C250.15 23.9147 250.001 24.2089 249.888 24.5704C249.781 24.9248 249.728 25.3678 249.728 25.8995C249.728 26.0129 249.732 26.105 249.739 26.1759C249.746 26.2397 249.753 26.3106 249.76 26.3886C249.774 26.4595 249.785 26.5658 249.792 26.7076L249.462 26.4311C249.54 25.9987 249.7 25.623 249.941 25.304C250.182 24.978 250.483 24.7263 250.845 24.5491C251.213 24.3648 251.621 24.2727 252.067 24.2727C252.585 24.2727 253.046 24.3861 253.45 24.6129C253.854 24.8326 254.169 25.141 254.396 25.5379C254.63 25.9349 254.747 26.3957 254.747 26.9202C254.747 27.4377 254.626 27.902 254.385 28.3131C254.151 28.7242 253.818 29.0468 253.386 29.2807C252.953 29.5075 252.447 29.6209 251.865 29.6209ZM251.95 28.9936C252.347 28.9936 252.698 28.905 253.003 28.7278C253.308 28.5435 253.545 28.2954 253.715 27.9835C253.893 27.6716 253.981 27.3207 253.981 26.9308C253.981 26.5481 253.893 26.2078 253.715 25.9101C253.545 25.6124 253.308 25.3785 253.003 25.2083C252.698 25.0311 252.344 24.9425 251.94 24.9425C251.543 24.9425 251.192 25.0276 250.887 25.1977C250.582 25.3607 250.341 25.5911 250.164 25.8888C249.994 26.1865 249.909 26.5303 249.909 26.9202C249.909 27.3101 249.994 27.661 250.164 27.9728C250.341 28.2847 250.582 28.5328 250.887 28.7171C251.199 28.9014 251.553 28.9936 251.95 28.9936ZM256.365 29.5571V23.9749H257.12V28.4088L260.852 23.9749H261.522V29.5571H260.767V25.1126L257.045 29.5571H256.365ZM265.07 29.6209C264.666 29.6209 264.266 29.5642 263.869 29.4508C263.472 29.3374 263.121 29.1637 262.816 28.9298L263.061 28.3663C263.33 28.5647 263.642 28.7171 263.996 28.8235C264.351 28.9227 264.702 28.9723 265.049 28.9723C265.396 28.9652 265.698 28.9156 265.953 28.8235C266.208 28.7313 266.406 28.6037 266.548 28.4407C266.69 28.2777 266.761 28.0934 266.761 27.8878C266.761 27.5901 266.626 27.3597 266.357 27.1967C266.087 27.0265 265.719 26.9415 265.251 26.9415H264.294V26.3886H265.198C265.474 26.3886 265.719 26.3531 265.931 26.2822C266.144 26.2114 266.307 26.1086 266.421 25.9739C266.541 25.8392 266.601 25.6797 266.601 25.4954C266.601 25.2969 266.53 25.1268 266.389 24.985C266.254 24.8433 266.066 24.7369 265.825 24.6661C265.584 24.5952 265.311 24.5597 265.006 24.5597C264.73 24.5668 264.443 24.6094 264.145 24.6873C263.847 24.7582 263.553 24.8681 263.263 25.0169L263.05 24.4321C263.376 24.262 263.699 24.1344 264.018 24.0494C264.344 23.9572 264.67 23.9111 264.996 23.9111C265.442 23.897 265.843 23.9501 266.197 24.0706C266.559 24.1911 266.846 24.3648 267.059 24.5916C267.271 24.8114 267.378 25.0772 267.378 25.3891C267.378 25.6655 267.292 25.9066 267.122 26.1121C266.952 26.3177 266.725 26.4772 266.442 26.5906C266.158 26.704 265.836 26.7607 265.474 26.7607L265.506 26.5587C266.144 26.5587 266.64 26.6827 266.995 26.9308C267.356 27.1789 267.537 27.5156 267.537 27.941C267.537 28.2741 267.427 28.5683 267.207 28.8235C266.988 29.0716 266.69 29.2665 266.314 29.4083C265.946 29.55 265.531 29.6209 265.07 29.6209ZM269.251 29.5571V23.9749H270.006V26.4417H273.525V23.9749H274.28V29.5571H273.525V27.0903H270.006V29.5571H269.251ZM278.818 29.6103C278.237 29.6103 277.727 29.4898 277.287 29.2488C276.848 29.0007 276.504 28.664 276.256 28.2387C276.008 27.8063 275.884 27.3136 275.884 26.7607C275.884 26.2078 276.001 25.7187 276.234 25.2934C276.475 24.8681 276.802 24.5349 277.213 24.2939C277.631 24.0458 278.099 23.9218 278.616 23.9218C279.141 23.9218 279.605 24.0423 280.009 24.2833C280.42 24.5172 280.743 24.8504 280.977 25.2828C281.211 25.7081 281.328 26.2007 281.328 26.7607C281.328 26.7962 281.324 26.8351 281.317 26.8777C281.317 26.9131 281.317 26.9521 281.317 26.9946H276.458V26.4311H280.913L280.615 26.6544C280.615 26.2503 280.527 25.8924 280.349 25.5805C280.179 25.2615 279.945 25.0134 279.648 24.8362C279.35 24.659 279.006 24.5704 278.616 24.5704C278.233 24.5704 277.89 24.659 277.585 24.8362C277.28 25.0134 277.043 25.2615 276.872 25.5805C276.702 25.8995 276.617 26.2645 276.617 26.6757V26.7926C276.617 27.2179 276.709 27.5936 276.894 27.9197C277.085 28.2387 277.347 28.4903 277.681 28.6746C278.021 28.8518 278.407 28.9404 278.839 28.9404C279.18 28.9404 279.495 28.8802 279.786 28.7597C280.084 28.6392 280.339 28.4549 280.551 28.2068L280.977 28.6959C280.729 28.9936 280.417 29.2204 280.041 29.3764C279.672 29.5323 279.265 29.6103 278.818 29.6103ZM285.338 29.6103C284.785 29.6103 284.289 29.4898 283.849 29.2488C283.417 29.0007 283.077 28.664 282.829 28.2387C282.58 27.8063 282.456 27.3136 282.456 26.7607C282.456 26.2007 282.58 25.7081 282.829 25.2828C283.077 24.8575 283.417 24.5243 283.849 24.2833C284.289 24.0423 284.785 23.9218 285.338 23.9218C285.813 23.9218 286.242 24.0139 286.624 24.1982C287.007 24.3825 287.308 24.659 287.528 25.0276L286.965 25.4104C286.773 25.1268 286.536 24.9177 286.252 24.783C285.969 24.6483 285.66 24.581 285.327 24.581C284.93 24.581 284.572 24.6732 284.253 24.8575C283.934 25.0347 283.683 25.2863 283.498 25.6124C283.314 25.9384 283.222 26.3212 283.222 26.7607C283.222 27.2002 283.314 27.583 283.498 27.9091C283.683 28.2351 283.934 28.4903 284.253 28.6746C284.572 28.8518 284.93 28.9404 285.327 28.9404C285.66 28.9404 285.969 28.8731 286.252 28.7384C286.536 28.6037 286.773 28.3982 286.965 28.1217L287.528 28.5045C287.308 28.866 287.007 29.1425 286.624 29.3338C286.242 29.5181 285.813 29.6103 285.338 29.6103ZM289.003 31.673C288.74 31.673 288.489 31.6305 288.248 31.5455C288.014 31.4604 287.812 31.3328 287.642 31.1627L287.992 30.5991C288.134 30.7338 288.287 30.8366 288.45 30.9075C288.62 30.9855 288.808 31.0244 289.013 31.0244C289.261 31.0244 289.474 30.9536 289.651 30.8118C289.835 30.6771 290.009 30.4361 290.172 30.0888L290.534 29.27L290.619 29.1531L292.915 23.9749H293.66L290.863 30.227C290.707 30.5885 290.534 30.8756 290.342 31.0882C290.158 31.3009 289.956 31.4498 289.736 31.5348C289.516 31.627 289.272 31.673 289.003 31.673ZM290.491 29.7166L287.918 23.9749H288.705L290.98 29.0999L290.491 29.7166ZM67.4777 45.5571V39.9749H68.2326V44.4088L71.9647 39.9749H72.6346V45.5571H71.8797V41.1126L68.1582 45.5571H67.4777ZM81.4087 45.1956V40.6342H78.7186L78.6548 41.8782C78.6406 42.2539 78.6158 42.6225 78.5804 42.984C78.552 43.3455 78.4989 43.6787 78.4209 43.9835C78.35 44.2812 78.2472 44.5258 78.1125 44.7171C77.9779 44.9014 77.8042 45.0078 77.5915 45.0361L76.8366 44.8979C77.0564 44.905 77.2371 44.827 77.3789 44.664C77.5207 44.4939 77.6305 44.2635 77.7085 43.9728C77.7865 43.6822 77.8432 43.3526 77.8786 42.984C77.9141 42.6083 77.9424 42.2255 77.9637 41.8357L78.0381 39.9749H82.1636V45.1956H81.4087ZM76.6027 46.9075V44.8979H83.0355V46.9075H82.3231V45.5571H77.3151V46.9075H76.6027ZM84.5067 45.5571V39.9749H85.2617V44.4088L88.9938 39.9749H89.6636V45.5571H88.9087V41.1126L85.1872 45.5571H84.5067ZM93.2121 45.6209C92.8081 45.6209 92.4076 45.5642 92.0106 45.4508C91.6137 45.3374 91.2628 45.1637 90.958 44.9298L91.2025 44.3663C91.4719 44.5647 91.7838 44.7171 92.1382 44.8235C92.4927 44.9227 92.8435 44.9723 93.1909 44.9723C93.5382 44.9652 93.8395 44.9156 94.0947 44.8235C94.3498 44.7313 94.5483 44.6037 94.6901 44.4407C94.8319 44.2777 94.9027 44.0934 94.9027 43.8878C94.9027 43.5901 94.7681 43.3597 94.4987 43.1967C94.2293 43.0265 93.8607 42.9415 93.3929 42.9415H92.4359V42.3886H93.3397C93.6162 42.3886 93.8607 42.3531 94.0734 42.2822C94.286 42.2114 94.4491 42.1086 94.5625 41.9739C94.683 41.8392 94.7433 41.6797 94.7433 41.4954C94.7433 41.2969 94.6724 41.1268 94.5306 40.985C94.3959 40.8433 94.2081 40.7369 93.9671 40.6661C93.7261 40.5952 93.4531 40.5597 93.1483 40.5597C92.8719 40.5668 92.5848 40.6094 92.2871 40.6873C91.9894 40.7582 91.6952 40.8681 91.4046 41.0169L91.1919 40.4321C91.518 40.262 91.8405 40.1344 92.1595 40.0494C92.4856 39.9572 92.8116 39.9111 93.1377 39.9111C93.5843 39.897 93.9848 39.9501 94.3392 40.0706C94.7007 40.1911 94.9878 40.3648 95.2005 40.5916C95.4131 40.8114 95.5194 41.0772 95.5194 41.3891C95.5194 41.6655 95.4344 41.9066 95.2643 42.1121C95.0941 42.3177 94.8673 42.4772 94.5838 42.5906C94.3002 42.704 93.9777 42.7607 93.6162 42.7607L93.6481 42.5587C94.286 42.5587 94.7822 42.6827 95.1367 42.9308C95.4982 43.1789 95.6789 43.5156 95.6789 43.941C95.6789 44.2741 95.5691 44.5683 95.3493 44.8235C95.1296 45.0716 94.8319 45.2665 94.4562 45.4083C94.0876 45.55 93.6729 45.6209 93.2121 45.6209ZM100.859 45.5571V44.3237L100.827 44.1217V42.059C100.827 41.584 100.692 41.219 100.423 40.9638C100.161 40.7086 99.7674 40.581 99.2428 40.581C98.8813 40.581 98.5375 40.6413 98.2114 40.7618C97.8854 40.8823 97.6089 41.0418 97.3821 41.2402L97.0418 40.6767C97.3254 40.4357 97.6656 40.2514 98.0626 40.1238C98.4595 39.9891 98.8778 39.9218 99.3172 39.9218C100.04 39.9218 100.597 40.1025 100.987 40.464C101.384 40.8185 101.582 41.3607 101.582 42.0909V45.5571H100.859ZM98.9345 45.6103C98.5162 45.6103 98.1512 45.543 97.8393 45.4083C97.5345 45.2665 97.3006 45.0751 97.1375 44.8341C96.9745 44.586 96.893 44.3025 96.893 43.9835C96.893 43.6929 96.9603 43.4306 97.095 43.1967C97.2368 42.9556 97.4636 42.7643 97.7755 42.6225C98.0945 42.4736 98.5198 42.3992 99.0514 42.3992H100.976V42.9627H99.0727C98.534 42.9627 98.1583 43.0584 97.9456 43.2498C97.7401 43.4412 97.6373 43.6787 97.6373 43.9622C97.6373 44.2812 97.7613 44.5364 98.0094 44.7278C98.2575 44.9192 98.6049 45.0149 99.0514 45.0149C99.4767 45.0149 99.8418 44.9192 100.147 44.7278C100.458 44.5293 100.685 44.2458 100.827 43.8772L100.997 44.3982C100.855 44.7668 100.607 45.0609 100.253 45.2807C99.9056 45.5004 99.4661 45.6103 98.9345 45.6103ZM103.592 45.5571V39.9749H104.347V44.4088L108.079 39.9749H108.749V45.5571H107.994V41.1126L104.272 45.5571H103.592ZM106.122 39.1668C105.654 39.1668 105.275 39.0499 104.985 38.816C104.701 38.575 104.552 38.2312 104.538 37.7846H105.08C105.087 38.0681 105.187 38.2914 105.378 38.4544C105.569 38.6175 105.817 38.699 106.122 38.699C106.427 38.699 106.675 38.6175 106.867 38.4544C107.065 38.2914 107.168 38.0681 107.175 37.7846H107.717C107.71 38.2312 107.561 38.575 107.271 38.816C106.98 39.0499 106.597 39.1668 106.122 39.1668ZM110.912 45.5571V39.9749H111.667V42.4417H115.186V39.9749H115.941V45.5571H115.186V43.0903H111.667V45.5571H110.912ZM120.479 45.6103C119.898 45.6103 119.388 45.4898 118.948 45.2488C118.509 45.0007 118.165 44.664 117.917 44.2387C117.669 43.8063 117.545 43.3136 117.545 42.7607C117.545 42.2078 117.662 41.7187 117.896 41.2934C118.137 40.8681 118.463 40.5349 118.874 40.2939C119.292 40.0458 119.76 39.9218 120.277 39.9218C120.802 39.9218 121.266 40.0423 121.67 40.2833C122.082 40.5172 122.404 40.8504 122.638 41.2828C122.872 41.7081 122.989 42.2007 122.989 42.7607C122.989 42.7962 122.985 42.8351 122.978 42.8777C122.978 42.9131 122.978 42.9521 122.978 42.9946H118.119V42.4311H122.574L122.276 42.6544C122.276 42.2503 122.188 41.8924 122.011 41.5805C121.84 41.2615 121.607 41.0134 121.309 40.8362C121.011 40.659 120.667 40.5704 120.277 40.5704C119.895 40.5704 119.551 40.659 119.246 40.8362C118.941 41.0134 118.704 41.2615 118.534 41.5805C118.364 41.8995 118.279 42.2645 118.279 42.6757V42.7926C118.279 43.2179 118.371 43.5936 118.555 43.9197C118.746 44.2387 119.009 44.4903 119.342 44.6746C119.682 44.8518 120.068 44.9404 120.501 44.9404C120.841 44.9404 121.156 44.8802 121.447 44.7597C121.745 44.6392 122 44.4549 122.213 44.2068L122.638 44.6959C122.39 44.9936 122.078 45.2204 121.702 45.3764C121.334 45.5323 120.926 45.6103 120.479 45.6103ZM127.541 45.6103C127.059 45.6103 126.623 45.5004 126.234 45.2807C125.844 45.0538 125.532 44.7313 125.298 44.3131C125.071 43.8878 124.958 43.3703 124.958 42.7607C124.958 42.1511 125.071 41.6372 125.298 41.219C125.525 40.7937 125.833 40.4711 126.223 40.2514C126.613 40.0316 127.052 39.9218 127.541 39.9218C128.073 39.9218 128.548 40.0423 128.966 40.2833C129.391 40.5172 129.725 40.8504 129.966 41.2828C130.207 41.7081 130.327 42.2007 130.327 42.7607C130.327 43.3278 130.207 43.824 129.966 44.2493C129.725 44.6746 129.391 45.0078 128.966 45.2488C128.548 45.4898 128.073 45.6103 127.541 45.6103ZM124.66 47.6199V39.9749H125.383V41.6549L125.309 42.7713L125.415 43.8984V47.6199H124.66ZM127.488 44.9404C127.885 44.9404 128.24 44.8518 128.552 44.6746C128.863 44.4903 129.111 44.2351 129.296 43.9091C129.48 43.5759 129.572 43.1931 129.572 42.7607C129.572 42.3283 129.48 41.9491 129.296 41.623C129.111 41.2969 128.863 41.0418 128.552 40.8575C128.24 40.6732 127.885 40.581 127.488 40.581C127.091 40.581 126.733 40.6732 126.414 40.8575C126.102 41.0418 125.854 41.2969 125.67 41.623C125.493 41.9491 125.404 42.3283 125.404 42.7607C125.404 43.1931 125.493 43.5759 125.67 43.9091C125.854 44.2351 126.102 44.4903 126.414 44.6746C126.733 44.8518 127.091 44.9404 127.488 44.9404ZM135.384 45.5571V44.3237L135.352 44.1217V42.059C135.352 41.584 135.218 41.219 134.948 40.9638C134.686 40.7086 134.293 40.581 133.768 40.581C133.407 40.581 133.063 40.6413 132.737 40.7618C132.411 40.8823 132.134 41.0418 131.907 41.2402L131.567 40.6767C131.851 40.4357 132.191 40.2514 132.588 40.1238C132.985 39.9891 133.403 39.9218 133.843 39.9218C134.566 39.9218 135.122 40.1025 135.512 40.464C135.909 40.8185 136.107 41.3607 136.107 42.0909V45.5571H135.384ZM133.46 45.6103C133.042 45.6103 132.676 45.543 132.365 45.4083C132.06 45.2665 131.826 45.0751 131.663 44.8341C131.5 44.586 131.418 44.3025 131.418 43.9835C131.418 43.6929 131.486 43.4306 131.62 43.1967C131.762 42.9556 131.989 42.7643 132.301 42.6225C132.62 42.4736 133.045 42.3992 133.577 42.3992H135.501V42.9627H133.598C133.059 42.9627 132.684 43.0584 132.471 43.2498C132.265 43.4412 132.163 43.6787 132.163 43.9622C132.163 44.2812 132.287 44.5364 132.535 44.7278C132.783 44.9192 133.13 45.0149 133.577 45.0149C134.002 45.0149 134.367 44.9192 134.672 44.7278C134.984 44.5293 135.211 44.2458 135.352 43.8772L135.523 44.3982C135.381 44.7668 135.133 45.0609 134.778 45.2807C134.431 45.5004 133.991 45.6103 133.46 45.6103ZM138.117 45.5571V39.9749H138.883L141.413 44.2599H141.094L143.667 39.9749H144.369V45.5571H143.678V40.8362L143.816 40.9L141.413 44.8766H141.073L138.649 40.8575L138.808 40.8256V45.5571H138.117ZM151.597 45.6103C151.058 45.6103 150.572 45.4898 150.14 45.2488C149.715 45.0007 149.378 44.664 149.13 44.2387C148.882 43.8063 148.758 43.3136 148.758 42.7607C148.758 42.2007 148.882 41.7081 149.13 41.2828C149.378 40.8575 149.715 40.5243 150.14 40.2833C150.565 40.0423 151.051 39.9218 151.597 39.9218C152.15 39.9218 152.639 40.0423 153.064 40.2833C153.496 40.5243 153.833 40.8575 154.074 41.2828C154.322 41.7081 154.446 42.2007 154.446 42.7607C154.446 43.3136 154.322 43.8063 154.074 44.2387C153.833 44.664 153.496 45.0007 153.064 45.2488C152.632 45.4898 152.143 45.6103 151.597 45.6103ZM151.597 44.9404C152.001 44.9404 152.359 44.8518 152.671 44.6746C152.983 44.4903 153.227 44.2351 153.404 43.9091C153.589 43.5759 153.681 43.1931 153.681 42.7607C153.681 42.3212 153.589 41.9384 153.404 41.6124C153.227 41.2863 152.983 41.0347 152.671 40.8575C152.359 40.6732 152.004 40.581 151.607 40.581C151.21 40.581 150.856 40.6732 150.544 40.8575C150.232 41.0347 149.984 41.2863 149.8 41.6124C149.616 41.9384 149.523 42.3212 149.523 42.7607C149.523 43.1931 149.616 43.5759 149.8 43.9091C149.984 44.2351 150.232 44.4903 150.544 44.6746C150.856 44.8518 151.207 44.9404 151.597 44.9404ZM162.487 45.5571L160.573 42.7926L161.2 42.4205L163.39 45.5571H162.487ZM159.318 43.0691V42.4205H161.083V43.0691H159.318ZM161.275 42.8458L160.552 42.7394L162.412 39.9749H163.231L161.275 42.8458ZM155.873 45.5571H154.969L157.16 42.4205L157.776 42.7926L155.873 45.5571ZM159.552 45.5571H158.797V39.9749H159.552V45.5571ZM159.031 43.0691H157.277V42.4205H159.031V43.0691ZM157.096 42.8458L155.129 39.9749H155.948L157.798 42.7394L157.096 42.8458ZM164.647 45.5571V39.9749H165.402V44.4088L169.134 39.9749H169.804V45.5571H169.049V41.1126L165.327 45.5571H164.647ZM171.967 45.5571V39.9749H174.434C175.065 39.9749 175.561 40.0954 175.923 40.3364C176.291 40.5775 176.476 40.9319 176.476 41.3997C176.476 41.8534 176.302 42.2043 175.955 42.4524C175.607 42.6934 175.15 42.8139 174.583 42.8139L174.732 42.5906C175.398 42.5906 175.887 42.7146 176.199 42.9627C176.511 43.2108 176.667 43.5688 176.667 44.0366C176.667 44.5187 176.49 44.8944 176.135 45.1637C175.788 45.426 175.246 45.5571 174.509 45.5571H171.967ZM172.701 44.9617H174.477C174.952 44.9617 175.31 44.8873 175.551 44.7384C175.799 44.5825 175.923 44.3344 175.923 43.9941C175.923 43.6539 175.813 43.4058 175.593 43.2498C175.373 43.0939 175.026 43.0159 174.551 43.0159H172.701V44.9617ZM172.701 42.4524H174.381C174.813 42.4524 175.143 42.3708 175.37 42.2078C175.604 42.0448 175.721 41.8073 175.721 41.4954C175.721 41.1835 175.604 40.9496 175.37 40.7937C175.143 40.6377 174.813 40.5597 174.381 40.5597H172.701V42.4524ZM177.416 45.5465L177.469 44.8979C177.518 44.905 177.564 44.9156 177.607 44.9298C177.657 44.9369 177.699 44.9404 177.735 44.9404C177.961 44.9404 178.142 44.8554 178.277 44.6852C178.419 44.5151 178.525 44.2883 178.596 44.0047C178.667 43.7212 178.716 43.4022 178.745 43.0478C178.773 42.6863 178.798 42.3248 178.819 41.9633L178.915 39.9749H183.008V45.5571H182.253V40.4109L182.445 40.6342H179.404L179.585 40.4002L179.5 42.0164C179.478 42.4984 179.439 42.9592 179.383 43.3987C179.333 43.8382 179.251 44.2245 179.138 44.5577C179.032 44.8908 178.883 45.1531 178.691 45.3445C178.5 45.5288 178.256 45.6209 177.958 45.6209C177.873 45.6209 177.784 45.6138 177.692 45.5997C177.607 45.5855 177.515 45.5678 177.416 45.5465ZM188.759 45.5571V43.5475L188.897 43.707H187.005C186.289 43.707 185.729 43.5511 185.325 43.2392C184.921 42.9273 184.719 42.4736 184.719 41.8782C184.719 41.2402 184.935 40.7653 185.367 40.4534C185.8 40.1344 186.377 39.9749 187.1 39.9749H189.45V45.5571H188.759ZM184.676 45.5571L186.207 43.4093H186.994L185.495 45.5571H184.676ZM188.759 43.3243V40.4109L188.897 40.6342H187.122C186.604 40.6342 186.2 40.7334 185.909 40.9319C185.626 41.1304 185.484 41.4529 185.484 41.8995C185.484 42.7288 186.012 43.1435 187.068 43.1435H188.897L188.759 43.3243ZM192.666 45.5571V40.4321L192.857 40.6342H190.55V39.9749H195.537V40.6342H193.229L193.421 40.4321V45.5571H192.666ZM199.031 41.942C199.733 41.9491 200.265 42.105 200.626 42.4098C200.995 42.7146 201.179 43.1541 201.179 43.7283C201.179 44.3237 200.981 44.7809 200.584 45.0999C200.194 45.4189 199.627 45.5749 198.882 45.5678L196.628 45.5571V39.9749H197.383V41.9207L199.031 41.942ZM198.84 44.9936C199.357 45.0007 199.747 44.8979 200.01 44.6852C200.279 44.4655 200.414 44.1465 200.414 43.7283C200.414 43.3101 200.282 43.0053 200.02 42.8139C199.758 42.6154 199.364 42.5126 198.84 42.5055L197.383 42.4843V44.9723L198.84 44.9936ZM205.402 45.5571V39.9749H206.168L208.699 44.2599H208.38L210.953 39.9749H211.654V45.5571H210.963V40.8362L211.102 40.9L208.699 44.8766H208.358L205.934 40.8575L206.094 40.8256V45.5571H205.402ZM217.269 45.5571V44.3237L217.237 44.1217V42.059C217.237 41.584 217.102 41.219 216.833 40.9638C216.571 40.7086 216.177 40.581 215.653 40.581C215.291 40.581 214.947 40.6413 214.621 40.7618C214.295 40.8823 214.019 41.0418 213.792 41.2402L213.452 40.6767C213.735 40.4357 214.076 40.2514 214.473 40.1238C214.87 39.9891 215.288 39.9218 215.727 39.9218C216.45 39.9218 217.007 40.1025 217.397 40.464C217.794 40.8185 217.992 41.3607 217.992 42.0909V45.5571H217.269ZM215.344 45.6103C214.926 45.6103 214.561 45.543 214.249 45.4083C213.944 45.2665 213.711 45.0751 213.547 44.8341C213.384 44.586 213.303 44.3025 213.303 43.9835C213.303 43.6929 213.37 43.4306 213.505 43.1967C213.647 42.9556 213.874 42.7643 214.185 42.6225C214.504 42.4736 214.93 42.3992 215.461 42.3992H217.386V42.9627H215.483C214.944 42.9627 214.568 43.0584 214.356 43.2498C214.15 43.4412 214.047 43.6787 214.047 43.9622C214.047 44.2812 214.171 44.5364 214.419 44.7278C214.667 44.9192 215.015 45.0149 215.461 45.0149C215.887 45.0149 216.252 44.9192 216.557 44.7278C216.868 44.5293 217.095 44.2458 217.237 43.8772L217.407 44.3982C217.265 44.7668 217.017 45.0609 216.663 45.2807C216.316 45.5004 215.876 45.6103 215.344 45.6103ZM224.095 45.5571L221.799 42.7926L222.426 42.4205L224.988 45.5571H224.095ZM220.002 45.5571V39.9749H220.757V45.5571H220.002ZM220.523 43.0691V42.4205H222.32V43.0691H220.523ZM222.49 42.8458L221.788 42.7394L224.01 39.9749H224.829L222.49 42.8458ZM228.375 45.6103C227.794 45.6103 227.283 45.4898 226.844 45.2488C226.404 45.0007 226.061 44.664 225.812 44.2387C225.564 43.8063 225.44 43.3136 225.44 42.7607C225.44 42.2078 225.557 41.7187 225.791 41.2934C226.032 40.8681 226.358 40.5349 226.769 40.2939C227.188 40.0458 227.655 39.9218 228.173 39.9218C228.697 39.9218 229.162 40.0423 229.566 40.2833C229.977 40.5172 230.299 40.8504 230.533 41.2828C230.767 41.7081 230.884 42.2007 230.884 42.7607C230.884 42.7962 230.881 42.8351 230.874 42.8777C230.874 42.9131 230.874 42.9521 230.874 42.9946H226.014V42.4311H230.47L230.172 42.6544C230.172 42.2503 230.083 41.8924 229.906 41.5805C229.736 41.2615 229.502 41.0134 229.204 40.8362C228.907 40.659 228.563 40.5704 228.173 40.5704C227.79 40.5704 227.446 40.659 227.142 40.8362C226.837 41.0134 226.599 41.2615 226.429 41.5805C226.259 41.8995 226.174 42.2645 226.174 42.6757V42.7926C226.174 43.2179 226.266 43.5936 226.45 43.9197C226.642 44.2387 226.904 44.4903 227.237 44.6746C227.577 44.8518 227.964 44.9404 228.396 44.9404C228.736 44.9404 229.052 44.8802 229.343 44.7597C229.64 44.6392 229.895 44.4549 230.108 44.2068L230.533 44.6959C230.285 44.9936 229.973 45.2204 229.598 45.3764C229.229 45.5323 228.822 45.6103 228.375 45.6103ZM233.369 45.5571V40.4321L233.561 40.6342H231.254V39.9749H236.24V40.6342H233.933L234.124 40.4321V45.5571H233.369ZM242.776 45.5571V39.9749H243.531V45.5571H242.776ZM239.682 41.942C240.383 41.9491 240.919 42.105 241.287 42.4098C241.656 42.7146 241.84 43.1541 241.84 43.7283C241.84 44.3237 241.642 44.7809 241.245 45.0999C240.848 45.4189 240.281 45.5749 239.543 45.5678L237.332 45.5571V39.9749H238.087V41.9207L239.682 41.942ZM239.49 44.9936C240.015 45.0007 240.408 44.8979 240.67 44.6852C240.94 44.4655 241.075 44.1465 241.075 43.7283C241.075 43.3101 240.943 43.0053 240.681 42.8139C240.419 42.6154 240.022 42.5126 239.49 42.5055L238.087 42.4843V44.9723L239.49 44.9936Z" fill="#9990AE"/>
<path d="M43.3532 2.96018C45.4605 1.4795 48.4382 2.97356 48.4382 5.61839V18.2356L51.7692 18.2366C53.3463 18.2366 54.6255 19.515 54.6257 21.092C54.6255 22.6688 53.347 23.9472 51.7702 23.9475H48.4382V38.7024C48.4379 40.4895 46.9881 41.9387 45.2009 41.9387H21.943C18.8618 41.9385 17.5238 38.0396 19.9557 36.1477L31.9303 26.8342C33.1751 25.8661 34.9688 26.0897 35.9372 27.3342C36.9055 28.5791 36.6811 30.3737 35.4362 31.342L29.1559 36.2268H42.7262V23.9475H26.7067L5.50749 41.2932C4.28685 42.2917 2.48759 42.1114 1.48894 40.8909C0.49032 39.6703 0.669882 37.871 1.8903 36.8723L17.6872 23.9475H8.45866C6.88172 23.9473 5.60326 22.669 5.6032 21.092C5.60321 19.5149 6.8816 18.2356 8.45866 18.2356H24.6676L43.152 3.1135L43.3532 2.96018ZM33.6862 18.2356H42.7262V10.8401L33.6862 18.2356Z" fill="#CECFD0"/>
</svg>
