<svg width="297" height="47" viewBox="0 0 297 47" fill="none" xmlns="http://www.w3.org/2000/svg">
<path d="M62.068 11L66.0206 2.21645H67.6267L71.5919 11H69.8854L66.4849 3.08225H67.1374L63.7494 11H62.068ZM63.8875 8.96723L64.3266 7.68735H69.0698L69.5089 8.96723H63.8875ZM72.7632 11V4.2994H74.3317V7.02231H77.707V4.2994H79.2755V11H77.707V8.35239H74.3317V11H72.7632ZM85.9702 10.2722V5.62948H83.3978L83.3602 6.70861C83.3435 7.09341 83.3184 7.46567 83.2849 7.82537C83.2514 8.17671 83.1971 8.50296 83.1218 8.80411C83.0465 9.0969 82.9377 9.33949 82.7955 9.53189C82.6533 9.72429 82.4651 9.84977 82.2309 9.90833L80.6749 9.66992C80.9259 9.66992 81.1267 9.59045 81.2772 9.43151C81.4362 9.2642 81.5575 9.03834 81.6411 8.75392C81.7331 8.46113 81.8001 8.13071 81.8419 7.76263C81.8837 7.3862 81.913 6.99721 81.9297 6.59568L82.0176 4.2994H87.5386V10.2722H85.9702ZM80.4365 12.4932V9.66992H88.5299V12.4932H87.0618V11H81.8921V12.4932H80.4365ZM93.645 11.0878C93.1012 11.0878 92.6035 10.9624 92.1518 10.7114C91.7084 10.4604 91.3529 10.084 91.0852 9.58208C90.8259 9.0718 90.6962 8.42767 90.6962 7.6497C90.6962 6.86336 90.8217 6.21924 91.0727 5.71732C91.332 5.2154 91.6833 4.84315 92.1267 4.60055C92.57 4.34959 93.0761 4.22412 93.645 4.22412C94.3058 4.22412 94.8872 4.36633 95.3891 4.65075C95.8994 4.93516 96.301 5.33252 96.5937 5.8428C96.8949 6.35308 97.0455 6.95538 97.0455 7.6497C97.0455 8.34402 96.8949 8.9505 96.5937 9.46915C96.301 9.97943 95.8994 10.3768 95.3891 10.6612C94.8872 10.9456 94.3058 11.0878 93.645 11.0878ZM89.9308 13.4343V4.2994H91.424V5.88044L91.3738 7.66225L91.4993 9.44406V13.4343H89.9308ZM93.4693 9.74521C93.8458 9.74521 94.1804 9.66155 94.4731 9.49425C94.7743 9.32694 95.0127 9.08435 95.1884 8.76647C95.3641 8.44859 95.4519 8.07633 95.4519 7.6497C95.4519 7.21471 95.3641 6.84245 95.1884 6.53294C95.0127 6.21505 94.7743 5.97246 94.4731 5.80516C94.1804 5.63785 93.8458 5.5542 93.4693 5.5542C93.0929 5.5542 92.7541 5.63785 92.4529 5.80516C92.1518 5.97246 91.9134 6.21505 91.7377 6.53294C91.562 6.84245 91.4742 7.21471 91.4742 7.6497C91.4742 8.07633 91.562 8.44859 91.7377 8.76647C91.9134 9.08435 92.1518 9.32694 92.4529 9.49425C92.7541 9.66155 93.0929 9.74521 93.4693 9.74521ZM101.731 11.0878C100.986 11.0878 100.334 10.9414 99.7735 10.6487C99.2214 10.3475 98.7905 9.93761 98.481 9.41896C98.1799 8.90031 98.0293 8.31056 98.0293 7.6497C98.0293 6.98048 98.1757 6.39073 98.4685 5.88044C98.7696 5.36179 99.1795 4.95608 99.6982 4.66329C100.225 4.37051 100.823 4.22412 101.493 4.22412C102.145 4.22412 102.726 4.36633 103.237 4.65075C103.747 4.93516 104.149 5.3367 104.441 5.85535C104.734 6.37399 104.88 6.98466 104.88 7.68735C104.88 7.75427 104.876 7.82956 104.868 7.91321C104.868 7.99686 104.864 8.07633 104.855 8.15162H99.2716V7.11014H104.027L103.412 7.43639C103.421 7.05158 103.341 6.71279 103.174 6.42C103.007 6.12722 102.777 5.89717 102.484 5.72987C102.199 5.56256 101.869 5.47891 101.493 5.47891C101.108 5.47891 100.769 5.56256 100.476 5.72987C100.192 5.89717 99.9659 6.1314 99.7986 6.43255C99.6396 6.72534 99.5602 7.0725 99.5602 7.47403V7.72499C99.5602 8.12652 99.6522 8.48205 99.8362 8.79156C100.02 9.10108 100.28 9.33949 100.614 9.5068C100.949 9.6741 101.334 9.75775 101.769 9.75775C102.145 9.75775 102.484 9.6992 102.785 9.58208C103.086 9.46497 103.354 9.28093 103.588 9.02997L104.429 9.99617C104.128 10.3475 103.747 10.6194 103.287 10.8118C102.835 10.9958 102.317 11.0878 101.731 11.0878ZM106.596 11V4.2994H108.165V8.71628L111.866 4.2994H113.297V11H111.728V6.58313L108.039 11H106.596ZM109.846 3.50888C109.177 3.50888 108.662 3.35413 108.303 3.04461C107.943 2.72673 107.759 2.26664 107.75 1.66434H108.792C108.8 1.96549 108.892 2.2039 109.068 2.37957C109.252 2.55524 109.507 2.64308 109.833 2.64308C110.151 2.64308 110.402 2.55524 110.586 2.37957C110.779 2.2039 110.879 1.96549 110.887 1.66434H111.954C111.946 2.26664 111.757 2.72673 111.389 3.04461C111.03 3.35413 110.515 3.50888 109.846 3.50888ZM123.065 11.1255C122.396 11.1255 121.773 11.0167 121.196 10.7992C120.627 10.5734 120.129 10.2597 119.703 9.85814C119.284 9.44824 118.958 8.96723 118.724 8.41513C118.49 7.86302 118.372 7.26072 118.372 6.60822C118.372 5.95573 118.49 5.35343 118.724 4.80132C118.958 4.24921 119.288 3.77239 119.715 3.37086C120.142 2.96096 120.639 2.64726 121.208 2.42976C121.777 2.2039 122.4 2.09097 123.078 2.09097C123.797 2.09097 124.454 2.21645 125.048 2.46741C125.642 2.71 126.144 3.07389 126.554 3.55907L125.5 4.55036C125.182 4.20739 124.826 3.95224 124.433 3.78494C124.04 3.60927 123.613 3.52143 123.153 3.52143C122.693 3.52143 122.271 3.59672 121.886 3.74729C121.509 3.89787 121.179 4.11118 120.895 4.38724C120.619 4.66329 120.401 4.98954 120.242 5.36598C120.092 5.74242 120.016 6.1565 120.016 6.60822C120.016 7.05995 120.092 7.47403 120.242 7.85047C120.401 8.22691 120.619 8.55315 120.895 8.82921C121.179 9.10526 121.509 9.31858 121.886 9.46915C122.271 9.61973 122.693 9.69501 123.153 9.69501C123.613 9.69501 124.04 9.61136 124.433 9.44406C124.826 9.26839 125.182 9.00488 125.5 8.65354L126.554 9.65737C126.144 10.1342 125.642 10.4981 125.048 10.749C124.454 11 123.793 11.1255 123.065 11.1255ZM132.057 11V9.64482L131.969 9.35622V6.98466C131.969 6.52457 131.831 6.16905 131.555 5.91809C131.279 5.65876 130.861 5.5291 130.3 5.5291C129.924 5.5291 129.551 5.58766 129.183 5.70477C128.824 5.82189 128.518 5.98501 128.267 6.19414L127.652 5.05228C128.012 4.77622 128.439 4.57128 128.932 4.43743C129.434 4.29522 129.953 4.22412 130.488 4.22412C131.459 4.22412 132.207 4.45834 132.734 4.9268C133.27 5.38689 133.537 6.10212 133.537 7.0725V11H132.057ZM129.949 11.0878C129.447 11.0878 129.008 11.0042 128.631 10.8369C128.255 10.6612 127.962 10.4228 127.753 10.1216C127.552 9.81213 127.452 9.46497 127.452 9.08017C127.452 8.70373 127.539 8.36493 127.715 8.06378C127.899 7.76263 128.196 7.52422 128.606 7.34855C129.016 7.17288 129.56 7.08504 130.237 7.08504H132.182V8.12652H130.35C129.815 8.12652 129.455 8.21436 129.271 8.39003C129.087 8.55734 128.995 8.76647 128.995 9.01743C128.995 9.30185 129.108 9.52771 129.334 9.69501C129.56 9.86232 129.873 9.94597 130.275 9.94597C130.66 9.94597 131.003 9.85814 131.304 9.68247C131.613 9.5068 131.835 9.24747 131.969 8.90449L132.232 9.84559C132.082 10.2388 131.81 10.5441 131.417 10.7616C131.032 10.9791 130.543 11.0878 129.949 11.0878ZM135.478 11V4.2994H137.122L139.82 9.05507H139.167L142.003 4.2994H143.471L143.484 11H142.066V5.98083L142.317 6.14395L139.807 10.2973H139.13L136.608 6.03102L136.909 5.95573V11H135.478ZM148.574 11.0878C147.888 11.0878 147.278 10.9414 146.742 10.6487C146.207 10.3475 145.784 9.93761 145.475 9.41896C145.165 8.90031 145.011 8.31056 145.011 7.6497C145.011 6.98048 145.165 6.39073 145.475 5.88044C145.784 5.36179 146.207 4.95608 146.742 4.66329C147.278 4.37051 147.888 4.22412 148.574 4.22412C149.268 4.22412 149.883 4.37051 150.419 4.66329C150.962 4.95608 151.385 5.35761 151.686 5.8679C151.996 6.37818 152.15 6.97211 152.15 7.6497C152.15 8.31056 151.996 8.90031 151.686 9.41896C151.385 9.93761 150.962 10.3475 150.419 10.6487C149.883 10.9414 149.268 11.0878 148.574 11.0878ZM148.574 9.74521C148.959 9.74521 149.302 9.66155 149.603 9.49425C149.904 9.32694 150.138 9.08435 150.306 8.76647C150.481 8.44859 150.569 8.07633 150.569 7.6497C150.569 7.21471 150.481 6.84245 150.306 6.53294C150.138 6.21505 149.904 5.97246 149.603 5.80516C149.302 5.63785 148.963 5.5542 148.587 5.5542C148.202 5.5542 147.859 5.63785 147.558 5.80516C147.265 5.97246 147.031 6.21505 146.855 6.53294C146.679 6.84245 146.592 7.21471 146.592 7.6497C146.592 8.07633 146.679 8.44859 146.855 8.76647C147.031 9.08435 147.265 9.32694 147.558 9.49425C147.859 9.66155 148.198 9.74521 148.574 9.74521ZM153.7 11V4.2994H155.268V8.71628L158.97 4.2994H160.4V11H158.832V6.58313L155.143 11H153.7ZM156.95 3.50888C156.28 3.50888 155.766 3.35413 155.406 3.04461C155.047 2.72673 154.863 2.26664 154.854 1.66434H155.896C155.904 1.96549 155.996 2.2039 156.172 2.37957C156.356 2.55524 156.611 2.64308 156.937 2.64308C157.255 2.64308 157.506 2.55524 157.69 2.37957C157.882 2.2039 157.983 1.96549 157.991 1.66434H159.058C159.049 2.26664 158.861 2.72673 158.493 3.04461C158.133 3.35413 157.619 3.50888 156.95 3.50888ZM161.532 10.9875L161.607 9.66992C161.665 9.67828 161.72 9.68665 161.77 9.69501C161.82 9.70338 161.866 9.70756 161.908 9.70756C162.167 9.70756 162.368 9.62809 162.51 9.46915C162.653 9.31021 162.757 9.0969 162.824 8.82921C162.899 8.55315 162.949 8.24782 162.975 7.91321C163.008 7.57023 163.033 7.22725 163.05 6.88428L163.163 4.2994H168.583V11H167.015V5.20285L167.379 5.62948H164.192L164.531 5.19031L164.443 6.95957C164.418 7.5535 164.367 8.10561 164.292 8.61589C164.225 9.11781 164.116 9.55699 163.966 9.93343C163.824 10.3099 163.623 10.6026 163.364 10.8118C163.113 11.0209 162.791 11.1255 162.397 11.1255C162.272 11.1255 162.134 11.1129 161.983 11.0878C161.841 11.0627 161.69 11.0293 161.532 10.9875ZM173.82 11.0878C173.076 11.0878 172.423 10.9414 171.863 10.6487C171.311 10.3475 170.88 9.93761 170.57 9.41896C170.269 8.90031 170.119 8.31056 170.119 7.6497C170.119 6.98048 170.265 6.39073 170.558 5.88044C170.859 5.36179 171.269 4.95608 171.788 4.66329C172.315 4.37051 172.913 4.22412 173.582 4.22412C174.234 4.22412 174.816 4.36633 175.326 4.65075C175.836 4.93516 176.238 5.3367 176.531 5.85535C176.823 6.37399 176.97 6.98466 176.97 7.68735C176.97 7.75427 176.966 7.82956 176.957 7.91321C176.957 7.99686 176.953 8.07633 176.945 8.15162H171.361V7.11014H176.117L175.502 7.43639C175.51 7.05158 175.431 6.71279 175.263 6.42C175.096 6.12722 174.866 5.89717 174.573 5.72987C174.289 5.56256 173.958 5.47891 173.582 5.47891C173.197 5.47891 172.858 5.56256 172.566 5.72987C172.281 5.89717 172.055 6.1314 171.888 6.43255C171.729 6.72534 171.65 7.0725 171.65 7.47403V7.72499C171.65 8.12652 171.742 8.48205 171.926 8.79156C172.11 9.10108 172.369 9.33949 172.704 9.5068C173.038 9.6741 173.423 9.75775 173.858 9.75775C174.234 9.75775 174.573 9.6992 174.874 9.58208C175.175 9.46497 175.443 9.28093 175.677 9.02997L176.518 9.99617C176.217 10.3475 175.836 10.6194 175.376 10.8118C174.925 10.9958 174.406 11.0878 173.82 11.0878ZM178.685 11V4.2994H180.254V7.02231H183.629V4.2994H185.198V11H183.629V8.35239H180.254V11H178.685ZM192.106 11L189.684 7.78773L190.964 6.99721L193.95 11H192.106ZM187.3 11V4.2994H188.868V11H187.3ZM188.404 8.31474V7.00976H190.675V8.31474H188.404ZM191.114 7.83792L189.646 7.66225L192.106 4.2994H193.787L191.114 7.83792ZM197.822 11.0878C197.136 11.0878 196.526 10.9414 195.99 10.6487C195.455 10.3475 195.033 9.93761 194.723 9.41896C194.413 8.90031 194.259 8.31056 194.259 7.6497C194.259 6.98048 194.413 6.39073 194.723 5.88044C195.033 5.36179 195.455 4.95608 195.99 4.66329C196.526 4.37051 197.136 4.22412 197.822 4.22412C198.517 4.22412 199.132 4.37051 199.667 4.66329C200.211 4.95608 200.633 5.35761 200.934 5.8679C201.244 6.37818 201.399 6.97211 201.399 7.6497C201.399 8.31056 201.244 8.90031 200.934 9.41896C200.633 9.93761 200.211 10.3475 199.667 10.6487C199.132 10.9414 198.517 11.0878 197.822 11.0878ZM197.822 9.74521C198.207 9.74521 198.55 9.66155 198.851 9.49425C199.152 9.32694 199.387 9.08435 199.554 8.76647C199.73 8.44859 199.817 8.07633 199.817 7.6497C199.817 7.21471 199.73 6.84245 199.554 6.53294C199.387 6.21505 199.152 5.97246 198.851 5.80516C198.55 5.63785 198.211 5.5542 197.835 5.5542C197.45 5.5542 197.107 5.63785 196.806 5.80516C196.513 5.97246 196.279 6.21505 196.103 6.53294C195.928 6.84245 195.84 7.21471 195.84 7.6497C195.84 8.07633 195.928 8.44859 196.103 8.76647C196.279 9.08435 196.513 9.32694 196.806 9.49425C197.107 9.66155 197.446 9.74521 197.822 9.74521Z" fill="#1A112F"/>
<path d="M63.1472 24.2898H67.2096V24.9925H63.1472V24.2898ZM63.235 28.2534H62.4226V20.5678H67.6927V21.2705H63.235V28.2534ZM69.0986 28.2534V22.4892H69.8452V24.0593L69.7683 23.7848C69.9293 23.3456 70.2002 23.0126 70.5808 22.7857C70.9614 22.5514 71.4335 22.4343 71.9971 22.4343V23.1919C71.9679 23.1919 71.9386 23.1919 71.9093 23.1919C71.88 23.1846 71.8508 23.1809 71.8215 23.1809C71.2139 23.1809 70.7382 23.3676 70.3941 23.7409C70.0501 24.1068 69.8781 24.6302 69.8781 25.3109V28.2534H69.0986ZM75.7156 28.3083C75.1593 28.3083 74.6579 28.1839 74.2114 27.935C73.7722 27.6788 73.4245 27.3311 73.1683 26.892C72.9122 26.4455 72.7841 25.9368 72.7841 25.3658C72.7841 24.7876 72.9122 24.2789 73.1683 23.8397C73.4245 23.4005 73.7722 23.0565 74.2114 22.8076C74.6506 22.5587 75.152 22.4343 75.7156 22.4343C76.2865 22.4343 76.7916 22.5587 77.2307 22.8076C77.6772 23.0565 78.0249 23.4005 78.2738 23.8397C78.53 24.2789 78.6581 24.7876 78.6581 25.3658C78.6581 25.9368 78.53 26.4455 78.2738 26.892C78.0249 27.3311 77.6772 27.6788 77.2307 27.935C76.7842 28.1839 76.2792 28.3083 75.7156 28.3083ZM75.7156 27.6166C76.1328 27.6166 76.5024 27.5251 76.8245 27.3421C77.1466 27.1518 77.3991 26.8883 77.5821 26.5516C77.7724 26.2076 77.8675 25.8123 77.8675 25.3658C77.8675 24.912 77.7724 24.5167 77.5821 24.18C77.3991 23.8433 77.1466 23.5835 76.8245 23.4005C76.5024 23.2102 76.1364 23.115 75.7265 23.115C75.3167 23.115 74.9507 23.2102 74.6286 23.4005C74.3065 23.5835 74.0504 23.8433 73.86 24.18C73.6697 24.5167 73.5746 24.912 73.5746 25.3658C73.5746 25.8123 73.6697 26.2076 73.86 26.5516C74.0504 26.8883 74.3065 27.1518 74.6286 27.3421C74.9507 27.5251 75.313 27.6166 75.7156 27.6166ZM83.1921 22.4343C83.6605 22.4343 84.0704 22.5258 84.4218 22.7088C84.7804 22.8845 85.0586 23.1553 85.2562 23.5213C85.4611 23.8873 85.5636 24.3484 85.5636 24.9047V28.2534H84.7841V24.9815C84.7841 24.374 84.6304 23.9165 84.3229 23.6091C84.0228 23.2944 83.5983 23.137 83.0493 23.137C82.6394 23.137 82.2808 23.2212 81.9733 23.3895C81.6732 23.5506 81.439 23.7884 81.2707 24.1032C81.1096 24.4106 81.0291 24.7839 81.0291 25.2231V28.2534H80.2496V22.4892H80.9962V24.0703L80.8754 23.7738C81.0584 23.3566 81.3512 23.0309 81.7537 22.7966C82.1563 22.5551 82.6358 22.4343 83.1921 22.4343ZM89.4919 28.3083C88.9502 28.3083 88.533 28.1619 88.2402 27.8691C87.9474 27.5764 87.801 27.1628 87.801 26.6285V21.2156H88.5806V26.5845C88.5806 26.9212 88.6647 27.1811 88.8331 27.3641C89.0088 27.5471 89.2576 27.6386 89.5797 27.6386C89.9237 27.6386 90.2092 27.5398 90.4361 27.3421L90.7106 27.9021C90.5569 28.0411 90.3702 28.1436 90.1506 28.2095C89.9384 28.2754 89.7188 28.3083 89.4919 28.3083ZM86.769 23.137V22.4892H90.3373V23.137H86.769ZM94.3744 28.3083C93.7742 28.3083 93.2471 28.1839 92.7933 27.935C92.3395 27.6788 91.9845 27.3311 91.7283 26.892C91.4721 26.4455 91.344 25.9368 91.344 25.3658C91.344 24.7949 91.4648 24.2898 91.7064 23.8507C91.9552 23.4115 92.2919 23.0675 92.7165 22.8186C93.1483 22.5624 93.6314 22.4343 94.1658 22.4343C94.7074 22.4343 95.1868 22.5587 95.6041 22.8076C96.0286 23.0492 96.3616 23.3932 96.6032 23.8397C96.8447 24.2789 96.9655 24.7876 96.9655 25.3658C96.9655 25.4024 96.9618 25.4427 96.9545 25.4866C96.9545 25.5232 96.9545 25.5635 96.9545 25.6074H91.9369V25.0255H96.5373L96.2299 25.256C96.2299 24.8388 96.1384 24.4692 95.9554 24.1471C95.7797 23.8177 95.5382 23.5615 95.2308 23.3785C94.9233 23.1956 94.5683 23.1041 94.1658 23.1041C93.7705 23.1041 93.4155 23.1956 93.1007 23.3785C92.786 23.5615 92.5408 23.8177 92.3651 24.1471C92.1895 24.4765 92.1016 24.8535 92.1016 25.278V25.3988C92.1016 25.8379 92.1968 26.2259 92.3871 26.5626C92.5847 26.892 92.8555 27.1518 93.1996 27.3421C93.5509 27.5251 93.9498 27.6166 94.3963 27.6166C94.7477 27.6166 95.0734 27.5544 95.3735 27.43C95.6809 27.3055 95.9444 27.1152 96.164 26.859L96.6032 27.3641C96.347 27.6715 96.0249 27.9057 95.637 28.0668C95.2564 28.2278 94.8355 28.3083 94.3744 28.3083ZM101.495 22.4343C101.963 22.4343 102.373 22.5258 102.724 22.7088C103.083 22.8845 103.361 23.1553 103.559 23.5213C103.764 23.8873 103.866 24.3484 103.866 24.9047V28.2534H103.087V24.9815C103.087 24.374 102.933 23.9165 102.626 23.6091C102.325 23.2944 101.901 23.137 101.352 23.137C100.942 23.137 100.583 23.2212 100.276 23.3895C99.9759 23.5506 99.7416 23.7884 99.5733 24.1032C99.4123 24.4106 99.3317 24.7839 99.3317 25.2231V28.2534H98.5522V22.4892H99.2988V24.0703L99.178 23.7738C99.361 23.3566 99.6538 23.0309 100.056 22.7966C100.459 22.5551 100.938 22.4343 101.495 22.4343ZM108.267 28.3083C107.718 28.3083 107.224 28.1839 106.784 27.935C106.353 27.6861 106.012 27.3421 105.763 26.9029C105.514 26.4564 105.39 25.9441 105.39 25.3658C105.39 24.7803 105.514 24.2679 105.763 23.8287C106.012 23.3895 106.353 23.0492 106.784 22.8076C107.224 22.5587 107.718 22.4343 108.267 22.4343C108.772 22.4343 109.222 22.5478 109.617 22.7747C110.02 23.0016 110.338 23.3346 110.572 23.7738C110.814 24.2057 110.935 24.7363 110.935 25.3658C110.935 25.988 110.818 26.5187 110.583 26.9578C110.349 27.397 110.031 27.7337 109.628 27.968C109.233 28.1949 108.779 28.3083 108.267 28.3083ZM108.322 27.6166C108.731 27.6166 109.097 27.5251 109.419 27.3421C109.749 27.1518 110.005 26.8883 110.188 26.5516C110.378 26.2076 110.473 25.8123 110.473 25.3658C110.473 24.912 110.378 24.5167 110.188 24.18C110.005 23.8433 109.749 23.5835 109.419 23.4005C109.097 23.2102 108.731 23.115 108.322 23.115C107.919 23.115 107.557 23.2102 107.235 23.4005C106.912 23.5835 106.656 23.8433 106.466 24.18C106.276 24.5167 106.181 24.912 106.181 25.3658C106.181 25.8123 106.276 26.2076 106.466 26.5516C106.656 26.8883 106.912 27.1518 107.235 27.3421C107.557 27.5251 107.919 27.6166 108.322 27.6166ZM110.495 28.2534V26.5187L110.572 25.3548L110.463 24.191V20.1067H111.242V28.2534H110.495ZM112.985 25.6184V24.9376H115.861V25.6184H112.985ZM120.603 28.3083C120.105 28.3083 119.655 28.1949 119.252 27.968C118.85 27.7337 118.528 27.4007 118.286 26.9688C118.052 26.5296 117.935 25.9953 117.935 25.3658C117.935 24.7363 118.052 24.2057 118.286 23.7738C118.52 23.3346 118.839 23.0016 119.241 22.7747C119.644 22.5478 120.098 22.4343 120.603 22.4343C121.152 22.4343 121.642 22.5587 122.074 22.8076C122.513 23.0492 122.857 23.3932 123.106 23.8397C123.355 24.2789 123.479 24.7876 123.479 25.3658C123.479 25.9514 123.355 26.4638 123.106 26.9029C122.857 27.3421 122.513 27.6861 122.074 27.935C121.642 28.1839 121.152 28.3083 120.603 28.3083ZM117.627 30.3834V22.4892H118.374V24.224L118.297 25.3768L118.407 26.5406V30.3834H117.627ZM120.548 27.6166C120.958 27.6166 121.324 27.5251 121.646 27.3421C121.968 27.1518 122.224 26.8883 122.414 26.5516C122.605 26.2076 122.7 25.8123 122.7 25.3658C122.7 24.9193 122.605 24.5277 122.414 24.191C122.224 23.8543 121.968 23.5908 121.646 23.4005C121.324 23.2102 120.958 23.115 120.548 23.115C120.138 23.115 119.768 23.2102 119.439 23.4005C119.117 23.5908 118.861 23.8543 118.67 24.191C118.487 24.5277 118.396 24.9193 118.396 25.3658C118.396 25.8123 118.487 26.2076 118.67 26.5516C118.861 26.8883 119.117 27.1518 119.439 27.3421C119.768 27.5251 120.138 27.6166 120.548 27.6166ZM128.701 28.2534V26.9798L128.668 26.7712V24.6412C128.668 24.1508 128.529 23.7738 128.251 23.5103C127.98 23.2468 127.574 23.115 127.033 23.115C126.659 23.115 126.304 23.1773 125.968 23.3017C125.631 23.4261 125.345 23.5908 125.111 23.7958L124.76 23.2139C125.053 22.965 125.404 22.7747 125.814 22.6429C126.224 22.5038 126.656 22.4343 127.109 22.4343C127.856 22.4343 128.431 22.621 128.833 22.9943C129.243 23.3602 129.448 23.9202 129.448 24.6741V28.2534H128.701ZM126.714 28.3083C126.282 28.3083 125.905 28.2388 125.583 28.0997C125.269 27.9533 125.027 27.7557 124.859 27.5068C124.69 27.2506 124.606 26.9578 124.606 26.6285C124.606 26.3284 124.676 26.0575 124.815 25.816C124.961 25.5671 125.195 25.3695 125.517 25.2231C125.847 25.0694 126.286 24.9925 126.835 24.9925H128.822V25.5744H126.857C126.301 25.5744 125.913 25.6732 125.693 25.8709C125.481 26.0685 125.375 26.3137 125.375 26.6065C125.375 26.9359 125.503 27.1994 125.759 27.397C126.015 27.5947 126.374 27.6935 126.835 27.6935C127.274 27.6935 127.651 27.5947 127.966 27.397C128.288 27.1921 128.522 26.8993 128.668 26.5187L128.844 27.0567C128.698 27.4373 128.442 27.741 128.076 27.968C127.717 28.1949 127.263 28.3083 126.714 28.3083ZM132.953 28.3193C132.536 28.3193 132.123 28.2607 131.713 28.1436C131.303 28.0265 130.94 27.8472 130.626 27.6056L130.878 27.0237C131.156 27.2287 131.478 27.386 131.844 27.4958C132.21 27.5983 132.573 27.6495 132.931 27.6495C133.29 27.6422 133.601 27.591 133.865 27.4958C134.128 27.4007 134.333 27.2689 134.48 27.1006C134.626 26.9322 134.699 26.7419 134.699 26.5296C134.699 26.2222 134.56 25.9843 134.282 25.816C134.004 25.6403 133.623 25.5525 133.14 25.5525H132.152V24.9815H133.085C133.371 24.9815 133.623 24.9449 133.843 24.8717C134.062 24.7986 134.231 24.6924 134.348 24.5533C134.472 24.4143 134.534 24.2496 134.534 24.0593C134.534 23.8543 134.461 23.6787 134.315 23.5323C134.176 23.3859 133.982 23.2761 133.733 23.2029C133.484 23.1297 133.202 23.0931 132.887 23.0931C132.602 23.1004 132.306 23.1443 131.998 23.2248C131.691 23.298 131.387 23.4115 131.087 23.5652L130.867 22.9613C131.204 22.7857 131.537 22.6539 131.866 22.5661C132.203 22.4709 132.54 22.4233 132.877 22.4233C133.338 22.4087 133.751 22.4636 134.117 22.588C134.49 22.7125 134.787 22.8918 135.007 23.126C135.226 23.3529 135.336 23.6274 135.336 23.9495C135.336 24.2349 135.248 24.4838 135.072 24.6961C134.897 24.9083 134.663 25.073 134.37 25.1902C134.077 25.3073 133.744 25.3658 133.371 25.3658L133.404 25.1572C134.062 25.1572 134.575 25.2853 134.941 25.5415C135.314 25.7977 135.501 26.1454 135.501 26.5845C135.501 26.9286 135.387 27.2323 135.16 27.4958C134.933 27.752 134.626 27.9533 134.238 28.0997C133.857 28.2461 133.429 28.3193 132.953 28.3193ZM140.246 28.3083C139.748 28.3083 139.298 28.1949 138.895 27.968C138.493 27.7337 138.171 27.4007 137.929 26.9688C137.695 26.5296 137.578 25.9953 137.578 25.3658C137.578 24.7363 137.695 24.2057 137.929 23.7738C138.163 23.3346 138.482 23.0016 138.884 22.7747C139.287 22.5478 139.741 22.4343 140.246 22.4343C140.795 22.4343 141.285 22.5587 141.717 22.8076C142.156 23.0492 142.5 23.3932 142.749 23.8397C142.998 24.2789 143.122 24.7876 143.122 25.3658C143.122 25.9514 142.998 26.4638 142.749 26.9029C142.5 27.3421 142.156 27.6861 141.717 27.935C141.285 28.1839 140.795 28.3083 140.246 28.3083ZM137.27 30.3834V22.4892H138.017V24.224L137.94 25.3768L138.05 26.5406V30.3834H137.27ZM140.191 27.6166C140.601 27.6166 140.967 27.5251 141.289 27.3421C141.611 27.1518 141.867 26.8883 142.057 26.5516C142.248 26.2076 142.343 25.8123 142.343 25.3658C142.343 24.9193 142.248 24.5277 142.057 24.191C141.867 23.8543 141.611 23.5908 141.289 23.4005C140.967 23.2102 140.601 23.115 140.191 23.115C139.781 23.115 139.411 23.2102 139.082 23.4005C138.76 23.5908 138.504 23.8543 138.313 24.191C138.13 24.5277 138.039 24.9193 138.039 25.3658C138.039 25.8123 138.13 26.2076 138.313 26.5516C138.504 26.8883 138.76 27.1518 139.082 27.3421C139.411 27.5251 139.781 27.6166 140.191 27.6166ZM148.344 28.2534V26.9798L148.311 26.7712V24.6412C148.311 24.1508 148.172 23.7738 147.894 23.5103C147.623 23.2468 147.217 23.115 146.675 23.115C146.302 23.115 145.947 23.1773 145.61 23.3017C145.274 23.4261 144.988 23.5908 144.754 23.7958L144.403 23.2139C144.695 22.965 145.047 22.7747 145.457 22.6429C145.867 22.5038 146.298 22.4343 146.752 22.4343C147.499 22.4343 148.073 22.621 148.476 22.9943C148.886 23.3602 149.091 23.9202 149.091 24.6741V28.2534H148.344ZM146.357 28.3083C145.925 28.3083 145.548 28.2388 145.226 28.0997C144.911 27.9533 144.67 27.7557 144.502 27.5068C144.333 27.2506 144.249 26.9578 144.249 26.6285C144.249 26.3284 144.319 26.0575 144.458 25.816C144.604 25.5671 144.838 25.3695 145.16 25.2231C145.49 25.0694 145.929 24.9925 146.478 24.9925H148.465V25.5744H146.5C145.943 25.5744 145.556 25.6732 145.336 25.8709C145.124 26.0685 145.018 26.3137 145.018 26.6065C145.018 26.9359 145.146 27.1994 145.402 27.397C145.658 27.5947 146.017 27.6935 146.478 27.6935C146.917 27.6935 147.294 27.5947 147.609 27.397C147.931 27.1921 148.165 26.8993 148.311 26.5187L148.487 27.0567C148.341 27.4373 148.084 27.741 147.718 27.968C147.36 28.1949 146.906 28.3083 146.357 28.3083ZM153.757 28.3193C153.289 28.3193 152.872 28.2424 152.506 28.0887C152.147 27.935 151.84 27.7008 151.583 27.386C151.327 27.0713 151.133 26.6834 151.001 26.2222C150.87 25.7538 150.804 25.2121 150.804 24.5973C150.804 24.0483 150.855 23.5689 150.958 23.159C151.06 22.7417 151.203 22.3831 151.386 22.083C151.569 21.7829 151.781 21.5303 152.023 21.3254C152.271 21.1131 152.539 20.9448 152.824 20.8203C153.117 20.6886 153.417 20.5898 153.724 20.5239L156.315 19.92L156.447 20.6447L154.01 21.1936C153.856 21.2302 153.669 21.2815 153.45 21.3473C153.238 21.4132 153.018 21.512 152.791 21.6438C152.571 21.7755 152.367 21.9585 152.176 22.1928C151.986 22.427 151.832 22.7308 151.715 23.1041C151.605 23.47 151.55 23.9275 151.55 24.4765C151.55 24.5936 151.554 24.6888 151.561 24.762C151.569 24.8278 151.576 24.901 151.583 24.9815C151.598 25.0547 151.609 25.1645 151.616 25.3109L151.276 25.0255C151.356 24.579 151.521 24.191 151.77 23.8616C152.019 23.5249 152.33 23.2651 152.703 23.0821C153.084 22.8918 153.505 22.7966 153.966 22.7966C154.5 22.7966 154.976 22.9137 155.393 23.148C155.81 23.3749 156.136 23.6933 156.37 24.1032C156.612 24.5131 156.733 24.9889 156.733 25.5305C156.733 26.0648 156.608 26.5443 156.359 26.9688C156.118 27.3934 155.774 27.7264 155.327 27.968C154.881 28.2022 154.357 28.3193 153.757 28.3193ZM153.845 27.6715C154.255 27.6715 154.617 27.58 154.932 27.397C155.247 27.2067 155.492 26.9505 155.668 26.6285C155.851 26.3064 155.942 25.9441 155.942 25.5415C155.942 25.1462 155.851 24.7949 155.668 24.4875C155.492 24.18 155.247 23.9385 154.932 23.7628C154.617 23.5798 154.251 23.4883 153.834 23.4883C153.424 23.4883 153.062 23.5762 152.747 23.7518C152.432 23.9202 152.184 24.1581 152.001 24.4655C151.825 24.7729 151.737 25.1279 151.737 25.5305C151.737 25.9331 151.825 26.2954 152.001 26.6175C152.184 26.9395 152.432 27.1957 152.747 27.386C153.069 27.5764 153.435 27.6715 153.845 27.6715ZM160.775 28.3083C160.219 28.3083 159.717 28.1839 159.271 27.935C158.832 27.6788 158.484 27.3311 158.228 26.892C157.972 26.4455 157.844 25.9368 157.844 25.3658C157.844 24.7876 157.972 24.2789 158.228 23.8397C158.484 23.4005 158.832 23.0565 159.271 22.8076C159.71 22.5587 160.211 22.4343 160.775 22.4343C161.346 22.4343 161.851 22.5587 162.29 22.8076C162.737 23.0565 163.084 23.4005 163.333 23.8397C163.59 24.2789 163.718 24.7876 163.718 25.3658C163.718 25.9368 163.59 26.4455 163.333 26.892C163.084 27.3311 162.737 27.6788 162.29 27.935C161.844 28.1839 161.339 28.3083 160.775 28.3083ZM160.775 27.6166C161.192 27.6166 161.562 27.5251 161.884 27.3421C162.206 27.1518 162.459 26.8883 162.642 26.5516C162.832 26.2076 162.927 25.8123 162.927 25.3658C162.927 24.912 162.832 24.5167 162.642 24.18C162.459 23.8433 162.206 23.5835 161.884 23.4005C161.562 23.2102 161.196 23.115 160.786 23.115C160.376 23.115 160.01 23.2102 159.688 23.4005C159.366 23.5835 159.11 23.8433 158.92 24.18C158.729 24.5167 158.634 24.912 158.634 25.3658C158.634 25.8123 158.729 26.2076 158.92 26.5516C159.11 26.8883 159.366 27.1518 159.688 27.3421C160.01 27.5251 160.373 27.6166 160.775 27.6166ZM166.267 28.2534V22.9613L166.465 23.1699H164.082V22.4892H169.232V23.1699H166.849L167.047 22.9613V28.2534H166.267ZM174.004 25.816C173.667 25.9624 173.327 26.0795 172.983 26.1673C172.646 26.2478 172.309 26.2881 171.973 26.2881C171.292 26.2881 170.754 26.1344 170.359 25.827C169.963 25.5122 169.766 25.0291 169.766 24.3777V22.4892H170.534V24.3338C170.534 24.7729 170.677 25.1023 170.963 25.3219C171.248 25.5415 171.632 25.6513 172.115 25.6513C172.408 25.6513 172.716 25.6147 173.038 25.5415C173.36 25.461 173.685 25.3475 174.015 25.2011L174.004 25.816ZM173.938 28.2534V22.4892H174.718V28.2534H173.938ZM176.931 28.2534V22.4892H177.711V27.0676L181.565 22.4892H182.256V28.2534H181.477V23.664L177.634 28.2534H176.931ZM188.718 28.2534L186.346 25.3988L186.994 25.0145L189.64 28.2534H188.718ZM184.49 28.2534V22.4892H185.27V28.2534H184.49ZM185.028 25.6842V25.0145H186.884V25.6842H185.028ZM187.06 25.4537L186.335 25.3439L188.63 22.4892H189.475L187.06 25.4537ZM190.376 29.8564L190.859 27.8252L190.947 28.2973C190.779 28.2973 190.636 28.2424 190.519 28.1326C190.409 28.0228 190.354 27.8801 190.354 27.7044C190.354 27.5288 190.409 27.386 190.519 27.2762C190.636 27.1665 190.775 27.1116 190.936 27.1116C191.104 27.1116 191.24 27.1701 191.342 27.2872C191.452 27.4043 191.507 27.5434 191.507 27.7044C191.507 27.763 191.503 27.8216 191.496 27.8801C191.489 27.9387 191.474 28.0046 191.452 28.0777C191.43 28.1509 191.401 28.2388 191.364 28.3413L190.903 29.8564H190.376ZM196.07 28.2534V22.4892H201.253V28.2534H200.473V22.9613L200.671 23.1699H196.652L196.85 22.9613V28.2534H196.07ZM205.84 28.3083C205.284 28.3083 204.782 28.1839 204.336 27.935C203.897 27.6788 203.549 27.3311 203.293 26.892C203.037 26.4455 202.909 25.9368 202.909 25.3658C202.909 24.7876 203.037 24.2789 203.293 23.8397C203.549 23.4005 203.897 23.0565 204.336 22.8076C204.775 22.5587 205.277 22.4343 205.84 22.4343C206.411 22.4343 206.916 22.5587 207.355 22.8076C207.802 23.0565 208.149 23.4005 208.398 23.8397C208.655 24.2789 208.783 24.7876 208.783 25.3658C208.783 25.9368 208.655 26.4455 208.398 26.892C208.149 27.3311 207.802 27.6788 207.355 27.935C206.909 28.1839 206.404 28.3083 205.84 28.3083ZM205.84 27.6166C206.257 27.6166 206.627 27.5251 206.949 27.3421C207.271 27.1518 207.524 26.8883 207.707 26.5516C207.897 26.2076 207.992 25.8123 207.992 25.3658C207.992 24.912 207.897 24.5167 207.707 24.18C207.524 23.8433 207.271 23.5835 206.949 23.4005C206.627 23.2102 206.261 23.115 205.851 23.115C205.441 23.115 205.075 23.2102 204.753 23.4005C204.431 23.5835 204.175 23.8433 203.985 24.18C203.794 24.5167 203.699 24.912 203.699 25.3658C203.699 25.8123 203.794 26.2076 203.985 26.5516C204.175 26.8883 204.431 27.1518 204.753 27.3421C205.075 27.5251 205.438 27.6166 205.84 27.6166ZM210.449 28.2534V22.4892H211.239L213.852 26.9139H213.523L216.18 22.4892H216.905V28.2534H216.191V23.3785L216.334 23.4444L213.852 27.5507H213.501L210.998 23.4005L211.162 23.3676V28.2534H210.449ZM221.494 28.3083C220.938 28.3083 220.437 28.1839 219.99 27.935C219.551 27.6788 219.203 27.3311 218.947 26.892C218.691 26.4455 218.563 25.9368 218.563 25.3658C218.563 24.7876 218.691 24.2789 218.947 23.8397C219.203 23.4005 219.551 23.0565 219.99 22.8076C220.429 22.5587 220.931 22.4343 221.494 22.4343C222.065 22.4343 222.57 22.5587 223.01 22.8076C223.456 23.0565 223.804 23.4005 224.053 23.8397C224.309 24.2789 224.437 24.7876 224.437 25.3658C224.437 25.9368 224.309 26.4455 224.053 26.892C223.804 27.3311 223.456 27.6788 223.01 27.935C222.563 28.1839 222.058 28.3083 221.494 28.3083ZM221.494 27.6166C221.912 27.6166 222.281 27.5251 222.603 27.3421C222.925 27.1518 223.178 26.8883 223.361 26.5516C223.551 26.2076 223.646 25.8123 223.646 25.3658C223.646 24.912 223.551 24.5167 223.361 24.18C223.178 23.8433 222.925 23.5835 222.603 23.4005C222.281 23.2102 221.915 23.115 221.505 23.115C221.095 23.115 220.73 23.2102 220.407 23.4005C220.085 23.5835 219.829 23.8433 219.639 24.18C219.449 24.5167 219.353 24.912 219.353 25.3658C219.353 25.8123 219.449 26.2076 219.639 26.5516C219.829 26.8883 220.085 27.1518 220.407 27.3421C220.73 27.5251 221.092 27.6166 221.494 27.6166ZM226.103 28.2534V22.4892H230.187V23.1699H226.685L226.882 22.9723V28.2534H226.103ZM234.893 28.2534V26.9798L234.86 26.7712V24.6412C234.86 24.1508 234.721 23.7738 234.443 23.5103C234.172 23.2468 233.766 23.115 233.224 23.115C232.851 23.115 232.496 23.1773 232.159 23.3017C231.823 23.4261 231.537 23.5908 231.303 23.7958L230.952 23.2139C231.244 22.965 231.596 22.7747 232.006 22.6429C232.416 22.5038 232.847 22.4343 233.301 22.4343C234.048 22.4343 234.622 22.621 235.025 22.9943C235.435 23.3602 235.64 23.9202 235.64 24.6741V28.2534H234.893ZM232.906 28.3083C232.474 28.3083 232.097 28.2388 231.775 28.0997C231.46 27.9533 231.219 27.7557 231.05 27.5068C230.882 27.2506 230.798 26.9578 230.798 26.6285C230.798 26.3284 230.867 26.0575 231.006 25.816C231.153 25.5671 231.387 25.3695 231.709 25.2231C232.039 25.0694 232.478 24.9925 233.027 24.9925H235.014V25.5744H233.049C232.492 25.5744 232.104 25.6732 231.885 25.8709C231.673 26.0685 231.566 26.3137 231.566 26.6065C231.566 26.9359 231.695 27.1994 231.951 27.397C232.207 27.5947 232.566 27.6935 233.027 27.6935C233.466 27.6935 233.843 27.5947 234.158 27.397C234.48 27.1921 234.714 26.8993 234.86 26.5187L235.036 27.0567C234.89 27.4373 234.633 27.741 234.267 27.968C233.909 28.1949 233.455 28.3083 232.906 28.3083ZM237.715 28.2534V22.4892H238.495V24.9706H240.251V25.6842H238.495V28.2534H237.715ZM242.678 28.3083C242.129 28.3083 241.635 28.1839 241.195 27.935C240.764 27.6788 240.423 27.3311 240.174 26.892C239.926 26.4455 239.801 25.9368 239.801 25.3658C239.801 24.7876 239.926 24.2789 240.174 23.8397C240.423 23.4005 240.764 23.0565 241.195 22.8076C241.635 22.5587 242.129 22.4343 242.678 22.4343C243.227 22.4343 243.717 22.5587 244.149 22.8076C244.581 23.0565 244.921 23.4005 245.17 23.8397C245.419 24.2789 245.543 24.7876 245.543 25.3658C245.543 25.9368 245.419 26.4455 245.17 26.892C244.921 27.3311 244.581 27.6788 244.149 27.935C243.717 28.1839 243.227 28.3083 242.678 28.3083ZM242.678 27.6276C243.08 27.6276 243.439 27.5324 243.754 27.3421C244.068 27.1518 244.317 26.8883 244.5 26.5516C244.683 26.2076 244.775 25.8123 244.775 25.3658C244.775 24.912 244.683 24.5167 244.5 24.18C244.317 23.8433 244.068 23.5835 243.754 23.4005C243.439 23.2102 243.08 23.115 242.678 23.115C242.282 23.115 241.924 23.2102 241.602 23.4005C241.287 23.5835 241.038 23.8433 240.855 24.18C240.672 24.5167 240.581 24.912 240.581 25.3658C240.581 25.8123 240.672 26.2076 240.855 26.5516C241.038 26.8883 241.287 27.1518 241.602 27.3421C241.924 27.5324 242.282 27.6276 242.678 27.6276ZM252.679 28.3193C252.211 28.3193 251.794 28.2424 251.428 28.0887C251.069 27.935 250.762 27.7008 250.506 27.386C250.249 27.0713 250.055 26.6834 249.924 26.2222C249.792 25.7538 249.726 25.2121 249.726 24.5973C249.726 24.0483 249.777 23.5689 249.88 23.159C249.982 22.7417 250.125 22.3831 250.308 22.083C250.491 21.7829 250.703 21.5303 250.945 21.3254C251.194 21.1131 251.461 20.9448 251.746 20.8203C252.039 20.6886 252.339 20.5898 252.647 20.5239L255.238 19.92L255.369 20.6447L252.932 21.1936C252.778 21.2302 252.592 21.2815 252.372 21.3473C252.16 21.4132 251.94 21.512 251.713 21.6438C251.494 21.7755 251.289 21.9585 251.098 22.1928C250.908 22.427 250.754 22.7308 250.637 23.1041C250.528 23.47 250.473 23.9275 250.473 24.4765C250.473 24.5936 250.476 24.6888 250.484 24.762C250.491 24.8278 250.498 24.901 250.506 24.9815C250.52 25.0547 250.531 25.1645 250.538 25.3109L250.198 25.0255C250.279 24.579 250.443 24.191 250.692 23.8616C250.941 23.5249 251.252 23.2651 251.625 23.0821C252.006 22.8918 252.427 22.7966 252.888 22.7966C253.422 22.7966 253.898 22.9137 254.315 23.148C254.733 23.3749 255.058 23.6933 255.293 24.1032C255.534 24.5131 255.655 24.9889 255.655 25.5305C255.655 26.0648 255.53 26.5443 255.282 26.9688C255.04 27.3934 254.696 27.7264 254.25 27.968C253.803 28.2022 253.28 28.3193 252.679 28.3193ZM252.767 27.6715C253.177 27.6715 253.54 27.58 253.854 27.397C254.169 27.2067 254.414 26.9505 254.59 26.6285C254.773 26.3064 254.864 25.9441 254.864 25.5415C254.864 25.1462 254.773 24.7949 254.59 24.4875C254.414 24.18 254.169 23.9385 253.854 23.7628C253.54 23.5798 253.174 23.4883 252.756 23.4883C252.346 23.4883 251.984 23.5762 251.669 23.7518C251.355 23.9202 251.106 24.1581 250.923 24.4655C250.747 24.7729 250.659 25.1279 250.659 25.5305C250.659 25.9331 250.747 26.2954 250.923 26.6175C251.106 26.9395 251.355 27.1957 251.669 27.386C251.991 27.5764 252.357 27.6715 252.767 27.6715ZM257.326 28.2534V22.4892H258.105V27.0676L261.959 22.4892H262.651V28.2534H261.871V23.664L258.028 28.2534H257.326ZM266.315 28.3193C265.898 28.3193 265.484 28.2607 265.074 28.1436C264.664 28.0265 264.302 27.8472 263.987 27.6056L264.24 27.0237C264.518 27.2287 264.84 27.386 265.206 27.4958C265.572 27.5983 265.934 27.6495 266.293 27.6495C266.652 27.6422 266.963 27.591 267.226 27.4958C267.49 27.4007 267.695 27.2689 267.841 27.1006C267.988 26.9322 268.061 26.7419 268.061 26.5296C268.061 26.2222 267.922 25.9843 267.643 25.816C267.365 25.6403 266.985 25.5525 266.502 25.5525H265.513V24.9815H266.447C266.732 24.9815 266.985 24.9449 267.204 24.8717C267.424 24.7986 267.592 24.6924 267.709 24.5533C267.834 24.4143 267.896 24.2496 267.896 24.0593C267.896 23.8543 267.823 23.6787 267.676 23.5323C267.537 23.3859 267.343 23.2761 267.095 23.2029C266.846 23.1297 266.564 23.0931 266.249 23.0931C265.964 23.1004 265.667 23.1443 265.36 23.2248C265.052 23.298 264.749 23.4115 264.448 23.5652L264.229 22.9613C264.566 22.7857 264.899 22.6539 265.228 22.5661C265.565 22.4709 265.901 22.4233 266.238 22.4233C266.699 22.4087 267.113 22.4636 267.479 22.588C267.852 22.7125 268.149 22.8918 268.368 23.126C268.588 23.3529 268.698 23.6274 268.698 23.9495C268.698 24.2349 268.61 24.4838 268.434 24.6961C268.258 24.9083 268.024 25.073 267.731 25.1902C267.439 25.3073 267.106 25.3658 266.732 25.3658L266.765 25.1572C267.424 25.1572 267.936 25.2853 268.302 25.5415C268.676 25.7977 268.862 26.1454 268.862 26.5845C268.862 26.9286 268.749 27.2323 268.522 27.4958C268.295 27.752 267.988 27.9533 267.6 28.0997C267.219 28.2461 266.791 28.3193 266.315 28.3193ZM270.632 28.2534V22.4892H271.411V25.0364H275.046V22.4892H275.825V28.2534H275.046V25.7062H271.411V28.2534H270.632ZM280.511 28.3083C279.911 28.3083 279.384 28.1839 278.93 27.935C278.476 27.6788 278.121 27.3311 277.865 26.892C277.609 26.4455 277.481 25.9368 277.481 25.3658C277.481 24.7949 277.602 24.2898 277.843 23.8507C278.092 23.4115 278.429 23.0675 278.853 22.8186C279.285 22.5624 279.768 22.4343 280.303 22.4343C280.844 22.4343 281.324 22.5587 281.741 22.8076C282.165 23.0492 282.499 23.3932 282.74 23.8397C282.982 24.2789 283.102 24.7876 283.102 25.3658C283.102 25.4024 283.099 25.4427 283.091 25.4866C283.091 25.5232 283.091 25.5635 283.091 25.6074H278.074V25.0255H282.674L282.367 25.256C282.367 24.8388 282.275 24.4692 282.092 24.1471C281.917 23.8177 281.675 23.5615 281.368 23.3785C281.06 23.1956 280.705 23.1041 280.303 23.1041C279.907 23.1041 279.552 23.1956 279.238 23.3785C278.923 23.5615 278.678 23.8177 278.502 24.1471C278.326 24.4765 278.238 24.8535 278.238 25.278V25.3988C278.238 25.8379 278.334 26.2259 278.524 26.5626C278.722 26.892 278.992 27.1518 279.336 27.3421C279.688 27.5251 280.087 27.6166 280.533 27.6166C280.885 27.6166 281.21 27.5544 281.51 27.43C281.818 27.3055 282.081 27.1152 282.301 26.859L282.74 27.3641C282.484 27.6715 282.162 27.9057 281.774 28.0668C281.393 28.2278 280.972 28.3083 280.511 28.3083ZM287.243 28.3083C286.673 28.3083 286.16 28.1839 285.706 27.935C285.26 27.6788 284.908 27.3311 284.652 26.892C284.396 26.4455 284.268 25.9368 284.268 25.3658C284.268 24.7876 284.396 24.2789 284.652 23.8397C284.908 23.4005 285.26 23.0565 285.706 22.8076C286.16 22.5587 286.673 22.4343 287.243 22.4343C287.734 22.4343 288.177 22.5295 288.572 22.7198C288.967 22.9101 289.278 23.1956 289.505 23.5762L288.923 23.9714C288.726 23.6787 288.48 23.4627 288.188 23.3236C287.895 23.1846 287.576 23.115 287.232 23.115C286.823 23.115 286.453 23.2102 286.124 23.4005C285.794 23.5835 285.534 23.8433 285.344 24.18C285.154 24.5167 285.059 24.912 285.059 25.3658C285.059 25.8196 285.154 26.2149 285.344 26.5516C285.534 26.8883 285.794 27.1518 286.124 27.3421C286.453 27.5251 286.823 27.6166 287.232 27.6166C287.576 27.6166 287.895 27.5471 288.188 27.408C288.48 27.2689 288.726 27.0567 288.923 26.7712L289.505 27.1665C289.278 27.5398 288.967 27.8252 288.572 28.0228C288.177 28.2132 287.734 28.3083 287.243 28.3083ZM291.028 30.4383C290.757 30.4383 290.497 30.3944 290.248 30.3066C290.007 30.2187 289.798 30.087 289.622 29.9113L289.985 29.3294C290.131 29.4685 290.288 29.5746 290.457 29.6478C290.632 29.7283 290.826 29.7686 291.039 29.7686C291.295 29.7686 291.514 29.6954 291.697 29.549C291.888 29.4099 292.067 29.1611 292.235 28.8024L292.609 27.957L292.697 27.8362L295.068 22.4892H295.837L292.949 28.9451C292.788 29.3184 292.609 29.6149 292.411 29.8345C292.221 30.054 292.012 30.2078 291.785 30.2956C291.558 30.3907 291.306 30.4383 291.028 30.4383ZM292.565 28.4181L289.908 22.4892H290.72L293.07 27.7813L292.565 28.4181ZM62.2798 42.2534V36.4892H63.0594V41.0676L66.9131 36.4892H67.6049V42.2534H66.8253V37.664L62.9825 42.2534H62.2798ZM76.665 41.8801V37.1699H73.8872L73.8214 38.4545C73.8067 38.8425 73.7811 39.2231 73.7445 39.5964C73.7152 39.9697 73.6603 40.3137 73.5798 40.6285C73.5066 40.9359 73.4005 41.1884 73.2614 41.386C73.1223 41.5764 72.943 41.6861 72.7234 41.7154L71.9439 41.5727C72.1708 41.58 72.3574 41.4995 72.5038 41.3311C72.6502 41.1555 72.7637 40.9176 72.8442 40.6175C72.9247 40.3174 72.9833 39.977 73.0199 39.5964C73.0565 39.2085 73.0857 38.8132 73.1077 38.4106L73.1846 36.4892H77.4446V41.8801H76.665ZM71.7023 43.6478V41.5727H78.3449V43.6478H77.6093V42.2534H72.438V43.6478H71.7023ZM79.8641 42.2534V36.4892H80.6436V41.0676L84.4974 36.4892H85.1891V42.2534H84.4096V37.664L80.5668 42.2534H79.8641ZM88.8533 42.3193C88.4361 42.3193 88.0226 42.2607 87.6127 42.1436C87.2028 42.0265 86.8404 41.8472 86.5257 41.6056L86.7782 41.0237C87.0564 41.2287 87.3784 41.386 87.7444 41.4958C88.1104 41.5983 88.4727 41.6495 88.8314 41.6495C89.19 41.6422 89.5011 41.591 89.7646 41.4958C90.0281 41.4007 90.2331 41.2689 90.3795 41.1006C90.5259 40.9322 90.5991 40.7419 90.5991 40.5296C90.5991 40.2222 90.46 39.9843 90.1818 39.816C89.9037 39.6403 89.5231 39.5525 89.04 39.5525H88.0518V38.9815H88.9851C89.2706 38.9815 89.5231 38.9449 89.7427 38.8717C89.9623 38.7986 90.1306 38.6924 90.2477 38.5533C90.3722 38.4143 90.4344 38.2496 90.4344 38.0593C90.4344 37.8543 90.3612 37.6787 90.2148 37.5323C90.0757 37.3859 89.8817 37.2761 89.6329 37.2029C89.384 37.1297 89.1022 37.0931 88.7875 37.0931C88.502 37.1004 88.2055 37.1443 87.8981 37.2248C87.5907 37.298 87.2869 37.4115 86.9868 37.5652L86.7672 36.9613C87.1039 36.7857 87.437 36.6539 87.7664 36.5661C88.1031 36.4709 88.4398 36.4233 88.7765 36.4233C89.2376 36.4087 89.6512 36.4636 90.0172 36.588C90.3905 36.7125 90.6869 36.8918 90.9065 37.126C91.1261 37.3529 91.2359 37.6274 91.2359 37.9495C91.2359 38.2349 91.148 38.4838 90.9724 38.6961C90.7967 38.9083 90.5625 39.073 90.2697 39.1902C89.9769 39.3073 89.6439 39.3658 89.2705 39.3658L89.3035 39.1572C89.9623 39.1572 90.4746 39.2853 90.8406 39.5415C91.2139 39.7977 91.4006 40.1454 91.4006 40.5845C91.4006 40.9286 91.2871 41.2323 91.0602 41.4958C90.8333 41.752 90.5259 41.9533 90.1379 42.0997C89.7573 42.2461 89.3291 42.3193 88.8533 42.3193ZM96.7495 42.2534V40.9798L96.7166 40.7712V38.6412C96.7166 38.1508 96.5775 37.7738 96.2994 37.5103C96.0285 37.2468 95.6223 37.115 95.0806 37.115C94.7073 37.115 94.3523 37.1773 94.0156 37.3017C93.6789 37.4261 93.3935 37.5908 93.1592 37.7958L92.8079 37.2139C93.1007 36.965 93.452 36.7747 93.8619 36.6429C94.2718 36.5038 94.7037 36.4343 95.1575 36.4343C95.9041 36.4343 96.4787 36.621 96.8813 36.9943C97.2912 37.3602 97.4961 37.9202 97.4961 38.6741V42.2534H96.7495ZM94.7622 42.3083C94.3304 42.3083 93.9534 42.2388 93.6314 42.0997C93.3166 41.9533 93.0751 41.7557 92.9067 41.5068C92.7384 41.2506 92.6542 40.9578 92.6542 40.6285C92.6542 40.3284 92.7237 40.0575 92.8628 39.816C93.0092 39.5671 93.2434 39.3695 93.5655 39.2231C93.8949 39.0694 94.334 38.9925 94.883 38.9925H96.8703V39.5744H94.905C94.3487 39.5744 93.9607 39.6732 93.7412 39.8709C93.5289 40.0685 93.4228 40.3137 93.4228 40.6065C93.4228 40.9359 93.5508 41.1994 93.807 41.397C94.0632 41.5947 94.4219 41.6935 94.883 41.6935C95.3222 41.6935 95.6992 41.5947 96.0139 41.397C96.336 41.1921 96.5702 40.8993 96.7166 40.5187L96.8923 41.0567C96.7459 41.4373 96.4897 41.741 96.1237 41.968C95.765 42.1949 95.3112 42.3083 94.7622 42.3083ZM99.5713 42.2534V36.4892H100.351V41.0676L104.205 36.4892H104.896V42.2534H104.117V37.664L100.274 42.2534H99.5713ZM102.184 35.6548C101.701 35.6548 101.31 35.534 101.01 35.2925C100.717 35.0436 100.563 34.6886 100.548 34.2274H101.108C101.116 34.5202 101.218 34.7508 101.416 34.9192C101.613 35.0875 101.87 35.1717 102.184 35.1717C102.499 35.1717 102.755 35.0875 102.953 34.9192C103.158 34.7508 103.264 34.5202 103.271 34.2274H103.831C103.824 34.6886 103.67 35.0436 103.37 35.2925C103.07 35.534 102.675 35.6548 102.184 35.6548ZM107.13 42.2534V36.4892H107.91V39.0364H111.544V36.4892H112.324V42.2534H111.544V39.7062H107.91V42.2534H107.13ZM117.01 42.3083C116.41 42.3083 115.883 42.1839 115.429 41.935C114.975 41.6788 114.62 41.3311 114.364 40.892C114.108 40.4455 113.979 39.9368 113.979 39.3658C113.979 38.7949 114.1 38.2898 114.342 37.8507C114.591 37.4115 114.927 37.0675 115.352 36.8186C115.784 36.5624 116.267 36.4343 116.801 36.4343C117.343 36.4343 117.822 36.5587 118.239 36.8076C118.664 37.0492 118.997 37.3932 119.239 37.8397C119.48 38.2789 119.601 38.7876 119.601 39.3658C119.601 39.4024 119.597 39.4427 119.59 39.4866C119.59 39.5232 119.59 39.5635 119.59 39.6074H114.572V39.0255H119.173L118.865 39.256C118.865 38.8388 118.774 38.4692 118.591 38.1471C118.415 37.8177 118.174 37.5615 117.866 37.3785C117.559 37.1956 117.204 37.1041 116.801 37.1041C116.406 37.1041 116.051 37.1956 115.736 37.3785C115.421 37.5615 115.176 37.8177 115.001 38.1471C114.825 38.4765 114.737 38.8535 114.737 39.278V39.3988C114.737 39.8379 114.832 40.2259 115.022 40.5626C115.22 40.892 115.491 41.1518 115.835 41.3421C116.186 41.5251 116.585 41.6166 117.032 41.6166C117.383 41.6166 117.709 41.5544 118.009 41.43C118.316 41.3055 118.58 41.1152 118.799 40.859L119.239 41.3641C118.982 41.6715 118.66 41.9057 118.272 42.0668C117.892 42.2278 117.471 42.3083 117.01 42.3083ZM124.302 42.3083C123.804 42.3083 123.354 42.1949 122.951 41.968C122.549 41.7337 122.227 41.4007 121.985 40.9688C121.751 40.5296 121.634 39.9953 121.634 39.3658C121.634 38.7363 121.751 38.2057 121.985 37.7738C122.219 37.3346 122.538 37.0016 122.94 36.7747C123.343 36.5478 123.797 36.4343 124.302 36.4343C124.851 36.4343 125.341 36.5587 125.773 36.8076C126.212 37.0492 126.556 37.3932 126.805 37.8397C127.054 38.2789 127.179 38.7876 127.179 39.3658C127.179 39.9514 127.054 40.4638 126.805 40.9029C126.556 41.3421 126.212 41.6861 125.773 41.935C125.341 42.1839 124.851 42.3083 124.302 42.3083ZM121.326 44.3834V36.4892H122.073V38.224L121.996 39.3768L122.106 40.5406V44.3834H121.326ZM124.247 41.6166C124.657 41.6166 125.023 41.5251 125.345 41.3421C125.667 41.1518 125.923 40.8883 126.114 40.5516C126.304 40.2076 126.399 39.8123 126.399 39.3658C126.399 38.9193 126.304 38.5277 126.114 38.191C125.923 37.8543 125.667 37.5908 125.345 37.4005C125.023 37.2102 124.657 37.115 124.247 37.115C123.837 37.115 123.467 37.2102 123.138 37.4005C122.816 37.5908 122.56 37.8543 122.37 38.191C122.187 38.5277 122.095 38.9193 122.095 39.3658C122.095 39.8123 122.187 40.2076 122.37 40.5516C122.56 40.8883 122.816 41.1518 123.138 41.3421C123.467 41.5251 123.837 41.6166 124.247 41.6166ZM132.401 42.2534V40.9798L132.368 40.7712V38.6412C132.368 38.1508 132.229 37.7738 131.95 37.5103C131.68 37.2468 131.273 37.115 130.732 37.115C130.358 37.115 130.003 37.1773 129.667 37.3017C129.33 37.4261 129.044 37.5908 128.81 37.7958L128.459 37.2139C128.752 36.965 129.103 36.7747 129.513 36.6429C129.923 36.5038 130.355 36.4343 130.809 36.4343C131.555 36.4343 132.13 36.621 132.532 36.9943C132.942 37.3602 133.147 37.9202 133.147 38.6741V42.2534H132.401ZM130.413 42.3083C129.981 42.3083 129.604 42.2388 129.282 42.0997C128.968 41.9533 128.726 41.7557 128.558 41.5068C128.389 41.2506 128.305 40.9578 128.305 40.6285C128.305 40.3284 128.375 40.0575 128.514 39.816C128.66 39.5671 128.894 39.3695 129.217 39.2231C129.546 39.0694 129.985 38.9925 130.534 38.9925H132.521V39.5744H130.556C130 39.5744 129.612 39.6732 129.392 39.8709C129.18 40.0685 129.074 40.3137 129.074 40.6065C129.074 40.9359 129.202 41.1994 129.458 41.397C129.714 41.5947 130.073 41.6935 130.534 41.6935C130.973 41.6935 131.35 41.5947 131.665 41.397C131.987 41.1921 132.221 40.8993 132.368 40.5187L132.543 41.0567C132.397 41.4373 132.141 41.741 131.775 41.968C131.416 42.1949 130.962 42.3083 130.413 42.3083ZM135.222 42.2534V36.4892H136.013L138.626 40.9139H138.297L140.954 36.4892H141.678V42.2534H140.965V37.3785L141.107 37.4444L138.626 41.5507H138.275L135.771 37.4005L135.936 37.3676V42.2534H135.222ZM149.142 42.3083C148.585 42.3083 148.084 42.1839 147.637 41.935C147.198 41.6788 146.851 41.3311 146.594 40.892C146.338 40.4455 146.21 39.9368 146.21 39.3658C146.21 38.7876 146.338 38.2789 146.594 37.8397C146.851 37.4005 147.198 37.0565 147.637 36.8076C148.077 36.5587 148.578 36.4343 149.142 36.4343C149.713 36.4343 150.218 36.5587 150.657 36.8076C151.103 37.0565 151.451 37.4005 151.7 37.8397C151.956 38.2789 152.084 38.7876 152.084 39.3658C152.084 39.9368 151.956 40.4455 151.7 40.892C151.451 41.3311 151.103 41.6788 150.657 41.935C150.21 42.1839 149.705 42.3083 149.142 42.3083ZM149.142 41.6166C149.559 41.6166 149.928 41.5251 150.251 41.3421C150.573 41.1518 150.825 40.8883 151.008 40.5516C151.198 40.2076 151.294 39.8123 151.294 39.3658C151.294 38.912 151.198 38.5167 151.008 38.18C150.825 37.8433 150.573 37.5835 150.251 37.4005C149.928 37.2102 149.562 37.115 149.153 37.115C148.743 37.115 148.377 37.2102 148.055 37.4005C147.733 37.5835 147.476 37.8433 147.286 38.18C147.096 38.5167 147.001 38.912 147.001 39.3658C147.001 39.8123 147.096 40.2076 147.286 40.5516C147.476 40.8883 147.733 41.1518 148.055 41.3421C148.377 41.5251 148.739 41.6166 149.142 41.6166ZM160.387 42.2534L158.41 39.3988L159.058 39.0145L161.32 42.2534H160.387ZM157.115 39.6842V39.0145H158.937V39.6842H157.115ZM159.135 39.4537L158.388 39.3439L160.31 36.4892H161.155L159.135 39.4537ZM153.557 42.2534H152.624L154.886 39.0145L155.523 39.3988L153.557 42.2534ZM157.356 42.2534H156.577V36.4892H157.356V42.2534ZM156.818 39.6842H155.007V39.0145H156.818V39.6842ZM154.82 39.4537L152.789 36.4892H153.634L155.545 39.3439L154.82 39.4537ZM162.617 42.2534V36.4892H163.397V41.0676L167.251 36.4892H167.942V42.2534H167.163V37.664L163.32 42.2534H162.617ZM170.176 42.2534V36.4892H172.724C173.375 36.4892 173.887 36.6136 174.261 36.8625C174.641 37.1114 174.832 37.4774 174.832 37.9605C174.832 38.4289 174.652 38.7912 174.294 39.0474C173.935 39.2963 173.463 39.4207 172.877 39.4207L173.031 39.1902C173.719 39.1902 174.224 39.3182 174.546 39.5744C174.868 39.8306 175.029 40.2003 175.029 40.6834C175.029 41.1811 174.846 41.569 174.48 41.8472C174.122 42.118 173.562 42.2534 172.801 42.2534H170.176ZM170.934 41.6386H172.768C173.258 41.6386 173.628 41.5617 173.876 41.408C174.133 41.247 174.261 40.9908 174.261 40.6394C174.261 40.2881 174.147 40.0319 173.92 39.8709C173.694 39.7098 173.335 39.6293 172.844 39.6293H170.934V41.6386ZM170.934 39.0474H172.669C173.115 39.0474 173.456 38.9632 173.69 38.7949C173.931 38.6265 174.052 38.3813 174.052 38.0593C174.052 37.7372 173.931 37.4957 173.69 37.3346C173.456 37.1736 173.115 37.0931 172.669 37.0931H170.934V39.0474ZM175.802 42.2424L175.857 41.5727C175.908 41.58 175.956 41.591 176 41.6056C176.051 41.613 176.095 41.6166 176.132 41.6166C176.366 41.6166 176.553 41.5288 176.692 41.3531C176.838 41.1774 176.948 40.9432 177.021 40.6504C177.094 40.3576 177.145 40.0283 177.175 39.6623C177.204 39.289 177.23 38.9157 177.252 38.5424L177.35 36.4892H181.577V42.2534H180.798V36.9394L180.996 37.1699H177.855L178.042 36.9284L177.954 38.5973C177.932 39.095 177.892 39.5708 177.833 40.0246C177.782 40.4784 177.698 40.8773 177.581 41.2214C177.471 41.5654 177.317 41.8362 177.12 42.0338C176.922 42.2241 176.67 42.3193 176.362 42.3193C176.274 42.3193 176.183 42.312 176.088 42.2973C176 42.2827 175.905 42.2644 175.802 42.2424ZM187.516 42.2534V40.1783L187.658 40.343H185.704C184.965 40.343 184.386 40.182 183.969 39.8599C183.552 39.5378 183.343 39.0694 183.343 38.4545C183.343 37.7958 183.567 37.3053 184.013 36.9833C184.46 36.6539 185.056 36.4892 185.803 36.4892H188.229V42.2534H187.516ZM183.299 42.2534L184.88 40.0356H185.693L184.145 42.2534H183.299ZM187.516 39.9477V36.9394L187.658 37.1699H185.825C185.29 37.1699 184.873 37.2724 184.573 37.4774C184.28 37.6823 184.134 38.0154 184.134 38.4765C184.134 39.3329 184.679 39.7611 185.77 39.7611H187.658L187.516 39.9477ZM191.55 42.2534V36.9613L191.748 37.1699H189.365V36.4892H194.514V37.1699H192.132L192.329 36.9613V42.2534H191.55ZM198.123 38.5204C198.847 38.5277 199.396 38.6888 199.77 39.0035C200.15 39.3182 200.341 39.7721 200.341 40.365C200.341 40.9798 200.136 41.4519 199.726 41.7813C199.323 42.1107 198.738 42.2717 197.969 42.2644L195.641 42.2534V36.4892H196.421V38.4984L198.123 38.5204ZM197.925 41.6715C198.459 41.6788 198.862 41.5727 199.133 41.3531C199.411 41.1262 199.55 40.7968 199.55 40.365C199.55 39.9331 199.415 39.6184 199.144 39.4207C198.873 39.2158 198.467 39.1096 197.925 39.1023L196.421 39.0804V41.6495L197.925 41.6715ZM204.702 42.2534V36.4892H205.492L208.105 40.9139H207.776L210.433 36.4892H211.158V42.2534H210.444V37.3785L210.587 37.4444L208.105 41.5507H207.754L205.251 37.4005L205.415 37.3676V42.2534H204.702ZM216.955 42.2534V40.9798L216.922 40.7712V38.6412C216.922 38.1508 216.783 37.7738 216.505 37.5103C216.234 37.2468 215.828 37.115 215.286 37.115C214.913 37.115 214.558 37.1773 214.221 37.3017C213.885 37.4261 213.599 37.5908 213.365 37.7958L213.013 37.2139C213.306 36.965 213.658 36.7747 214.068 36.6429C214.477 36.5038 214.909 36.4343 215.363 36.4343C216.11 36.4343 216.684 36.621 217.087 36.9943C217.497 37.3602 217.702 37.9202 217.702 38.6741V42.2534H216.955ZM214.968 42.3083C214.536 42.3083 214.159 42.2388 213.837 42.0997C213.522 41.9533 213.281 41.7557 213.112 41.5068C212.944 41.2506 212.86 40.9578 212.86 40.6285C212.86 40.3284 212.929 40.0575 213.068 39.816C213.215 39.5671 213.449 39.3695 213.771 39.2231C214.1 39.0694 214.54 38.9925 215.089 38.9925H217.076V39.5744H215.111C214.554 39.5744 214.166 39.6732 213.947 39.8709C213.734 40.0685 213.628 40.3137 213.628 40.6065C213.628 40.9359 213.756 41.1994 214.013 41.397C214.269 41.5947 214.627 41.6935 215.089 41.6935C215.528 41.6935 215.905 41.5947 216.219 41.397C216.542 41.1921 216.776 40.8993 216.922 40.5187L217.098 41.0567C216.951 41.4373 216.695 41.741 216.329 41.968C215.971 42.1949 215.517 42.3083 214.968 42.3083ZM224.004 42.2534L221.632 39.3988L222.28 39.0145L224.926 42.2534H224.004ZM219.777 42.2534V36.4892H220.556V42.2534H219.777ZM220.315 39.6842V39.0145H222.17V39.6842H220.315ZM222.346 39.4537L221.621 39.3439L223.916 36.4892H224.762L222.346 39.4537ZM228.423 42.3083C227.823 42.3083 227.296 42.1839 226.842 41.935C226.388 41.6788 226.033 41.3311 225.777 40.892C225.521 40.4455 225.393 39.9368 225.393 39.3658C225.393 38.7949 225.514 38.2898 225.755 37.8507C226.004 37.4115 226.341 37.0675 226.765 36.8186C227.197 36.5624 227.68 36.4343 228.215 36.4343C228.756 36.4343 229.236 36.5587 229.653 36.8076C230.077 37.0492 230.41 37.3932 230.652 37.8397C230.894 38.2789 231.014 38.7876 231.014 39.3658C231.014 39.4024 231.011 39.4427 231.003 39.4866C231.003 39.5232 231.003 39.5635 231.003 39.6074H225.986V39.0255H230.586L230.279 39.256C230.279 38.8388 230.187 38.4692 230.004 38.1471C229.829 37.8177 229.587 37.5615 229.28 37.3785C228.972 37.1956 228.617 37.1041 228.215 37.1041C227.819 37.1041 227.464 37.1956 227.15 37.3785C226.835 37.5615 226.59 37.8177 226.414 38.1471C226.238 38.4765 226.15 38.8535 226.15 39.278V39.3988C226.15 39.8379 226.246 40.2259 226.436 40.5626C226.634 40.892 226.904 41.1518 227.248 41.3421C227.6 41.5251 227.999 41.6166 228.445 41.6166C228.797 41.6166 229.122 41.5544 229.422 41.43C229.73 41.3055 229.993 41.1152 230.213 40.859L230.652 41.3641C230.396 41.6715 230.074 41.9057 229.686 42.0668C229.305 42.2278 228.884 42.3083 228.423 42.3083ZM233.581 42.2534V36.9613L233.778 37.1699H231.396V36.4892H236.545V37.1699H234.162L234.36 36.9613V42.2534H233.581ZM243.294 42.2534V36.4892H244.073V42.2534H243.294ZM240.099 38.5204C240.823 38.5277 241.376 38.6888 241.756 39.0035C242.137 39.3182 242.327 39.7721 242.327 40.365C242.327 40.9798 242.122 41.4519 241.713 41.7813C241.303 42.1107 240.717 42.2717 239.956 42.2644L237.672 42.2534V36.4892H238.452V38.4984L240.099 38.5204ZM239.901 41.6715C240.443 41.6788 240.849 41.5727 241.12 41.3531C241.398 41.1262 241.537 40.7968 241.537 40.365C241.537 39.9331 241.401 39.6184 241.131 39.4207C240.86 39.2158 240.45 39.1096 239.901 39.1023L238.452 39.0804V41.6495L239.901 41.6715Z" fill="#9990AE"/>
<path d="M41.3432 4.23421C43.4081 2.54472 46.5092 4.01341 46.5092 6.68148V19.0116H49.7641C51.305 19.0117 52.5549 20.2607 52.5551 21.8016C52.555 23.3426 51.3051 24.5925 49.7641 24.5926H46.5092V39.0106C46.5089 40.7569 45.0924 42.1735 43.3461 42.1737H20.6176C17.6067 42.1733 16.2997 38.3632 18.6762 36.5145L30.3773 27.4129C31.5937 26.4669 33.3471 26.6861 34.2934 27.9022C35.2391 29.1186 35.0204 30.8721 33.8041 31.8182L27.6664 36.5926H40.9281V24.5926H25.2738L4.55703 41.5428C3.36441 42.5182 1.60616 42.3424 0.630268 41.1502C-0.345658 39.9574 -0.168976 38.1984 1.02382 37.2225L16.4603 24.5926H7.44179C5.90064 24.5926 4.64983 23.3427 4.6498 21.8016C4.64994 20.2607 5.89993 19.0118 7.44081 19.0116H23.2816L41.3432 4.23421ZM32.0951 19.0116H40.9281V11.784L32.0951 19.0116Z" fill="#FF6B52"/>
</svg>
