<svg width="32" height="33" viewBox="0 0 32 33" fill="none" xmlns="http://www.w3.org/2000/svg">
<path fill-rule="evenodd" clip-rule="evenodd" d="M27.2949 5.2394C25.8213 3.76505 24.0706 2.59674 22.1436 1.80172C20.2166 1.0067 18.1514 0.600667 16.0669 0.607007C7.31868 0.607007 0.19717 7.69294 0.193613 16.4041C0.189709 19.178 0.920885 21.9033 2.3127 24.3027L0.0605469 32.4859L8.475 30.2892C10.8041 31.5511 13.4115 32.2115 16.0605 32.2105H16.0669C24.8143 32.2105 31.9351 25.1238 31.9394 16.4134C31.9447 14.3359 31.5368 12.2782 30.7395 10.3599C29.9421 8.44159 28.7712 6.70099 27.2949 5.2394ZM16.0669 29.5442H16.0612C13.6997 29.5449 11.3812 28.9129 9.34669 27.714L8.86495 27.4294L3.87178 28.733L5.20457 23.8878L4.89076 23.3897C3.57034 21.2992 2.87076 18.8767 2.87343 16.4041C2.87343 9.1652 8.7945 3.27544 16.0718 3.27544C19.5629 3.2692 22.9134 4.64988 25.3865 7.1138C27.8596 9.57771 29.2528 12.9231 29.2596 16.4141C29.2567 23.6537 23.3385 29.5442 16.0669 29.5442ZM23.3029 19.7108C22.9066 19.513 20.9547 18.5581 20.5932 18.4264C20.2318 18.2948 19.9649 18.2286 19.7009 18.6243C19.4369 19.0199 18.6762 19.9051 18.445 20.1719C18.2137 20.4388 17.9824 20.468 17.5861 20.2701C17.1897 20.0723 15.911 19.656 14.3961 18.3112C13.217 17.2644 12.4214 15.9722 12.1902 15.5773C11.9589 15.1823 12.1653 14.9681 12.3638 14.7718C12.5424 14.5946 12.7601 14.3106 12.9587 14.0801C13.1572 13.8495 13.2234 13.6845 13.355 13.4212C13.4867 13.1579 13.4212 12.9273 13.3223 12.7302C13.2234 12.5331 12.43 10.5898 12.0998 9.79922C11.7775 9.02929 11.4508 9.13389 11.2075 9.12179C10.9762 9.11041 10.7094 9.10756 10.4468 9.10756C10.2461 9.11279 10.0486 9.15934 9.86663 9.2443C9.6847 9.32927 9.52223 9.45083 9.38938 9.6014C9.02577 9.99704 8.00109 10.9534 8.00109 12.8946C8.00109 14.8358 9.42425 16.7144 9.62065 16.9777C9.81704 17.2409 12.4172 21.2279 16.3956 22.9379C17.1344 23.2543 17.8892 23.5317 18.657 23.769C19.607 24.0693 20.4716 24.0273 21.1547 23.9255C21.9168 23.8124 23.5029 22.9706 23.8324 22.0484C24.1618 21.1262 24.1625 20.3363 24.0636 20.1719C23.9647 20.0076 23.7 19.9079 23.3029 19.7108Z" fill="#F4F5F5"/>
</svg>
